GeoramaCondensed-Black.ufo
<glyph name="exclam" format="2">
  <advance width="219.0"/>
  <unicode hex="0021"/>
  <outline>
    <contour>
      <point x="28.0" y="259.0" type="line"/>
      <point x="189.9" y="259.0" type="line"/>
      <point x="206.29999999999998" y="740.0" type="line"/>
      <point x="14.3" y="740.0" type="line"/>
    </contour>
    <contour>
      <point x="9.5" y="106.6" type="curve" smooth="yes"/>
      <point x="9.5" y="28.9"/>
      <point x="39.199999999999996" y="-10.1"/>
      <point x="109.5" y="-10.1" type="curve" smooth="yes"/>
      <point x="179.8" y="-10.1"/>
      <point x="209.5" y="28.9"/>
      <point x="209.5" y="106.6" type="curve" smooth="yes"/>
      <point x="209.5" y="185.3"/>
      <point x="179.8" y="224.3"/>
      <point x="109.5" y="224.3" type="curve" smooth="yes"/>
      <point x="39.199999999999996" y="224.3"/>
      <point x="9.5" y="185.3"/>
    </contour>
  </outline>
</glyph>
<glyph name="numbersign" format="2">
  <advance width="483.0"/>
  <unicode hex="0023"/>
  <outline>
    <contour>
      <point x="42.900000000000006" y="391.9" type="line"/>
      <point x="84.6" y="391.9" type="line"/>
      <point x="78.1" y="298.2" type="line"/>
      <point x="31.299999999999997" y="298.2" type="line"/>
      <point x="31.299999999999997" y="138.89999999999998" type="line"/>
      <point x="67.10000000000001" y="138.89999999999998" type="line"/>
      <point x="57.89999999999999" y="0.0" type="line"/>
      <point x="201.4" y="0.0" type="line"/>
      <point x="210.6" y="138.89999999999998" type="line"/>
      <point x="244.99999999999997" y="138.89999999999998" type="line"/>
      <point x="235.79999999999998" y="0.0" type="line"/>
      <point x="379.3" y="0.0" type="line"/>
      <point x="388.5" y="138.89999999999998" type="line"/>
      <point x="440.2" y="138.89999999999998" type="line"/>
      <point x="440.2" y="298.2" type="line"/>
      <point x="399.5" y="298.2" type="line"/>
      <point x="406.0" y="391.9" type="line"/>
      <point x="451.8" y="391.9" type="line"/>
      <point x="451.8" y="552.8" type="line"/>
      <point x="416.9" y="552.8" type="line"/>
      <point x="426.90000000000003" y="700.0" type="line"/>
      <point x="283.40000000000003" y="700.0" type="line"/>
      <point x="273.4" y="552.8" type="line"/>
      <point x="239.0" y="552.8" type="line"/>
      <point x="249.0" y="700.0" type="line"/>
      <point x="105.5" y="700.0" type="line"/>
      <point x="95.5" y="552.8" type="line"/>
      <point x="42.900000000000006" y="552.8" type="line"/>
    </contour>
    <contour>
      <point x="228.1" y="391.9" type="line"/>
      <point x="262.5" y="391.9" type="line"/>
      <point x="256.0" y="298.2" type="line"/>
      <point x="221.60000000000002" y="298.2" type="line"/>
    </contour>
  </outline>
</glyph>
<glyph name="dollar" format="2">
  <advance width="483.0"/>
  <unicode hex="0024"/>
  <outline>
    <contour>
      <point x="211.4" y="-10.0" type="curve" smooth="yes"/>
      <point x="337.4" y="-11.1"/>
      <point x="464.0" y="39.3"/>
      <point x="464.0" y="208.9" type="curve" smooth="yes"/>
      <point x="464.0" y="336.1"/>
      <point x="389.2" y="387.3"/>
      <point x="312.7" y="422.6" type="curve" smooth="yes"/>
      <point x="254.2" y="447.79999999999995"/>
      <point x="216.7" y="465.1"/>
      <point x="216.7" y="500.59999999999997" type="curve" smooth="yes"/>
      <point x="216.7" y="525.3"/>
      <point x="233.5" y="533.8"/>
      <point x="278.90000000000003" y="533.8" type="curve" smooth="yes"/>
      <point x="323.3" y="533.8"/>
      <point x="370.59999999999997" y="525.7"/>
      <point x="410.8" y="510.5" type="curve"/>
      <point x="446.0" y="673.6" type="line"/>
      <point x="404.5" y="693.9"/>
      <point x="329.3" y="710.0"/>
      <point x="251.20000000000002" y="710.0" type="curve" smooth="yes"/>
      <point x="114.4" y="710.0"/>
      <point x="28.4" y="630.6"/>
      <point x="28.4" y="497.5" type="curve" smooth="yes"/>
      <point x="28.4" y="384.0"/>
      <point x="88.0" y="325.1"/>
      <point x="153.1" y="287.8" type="curve" smooth="yes"/>
      <point x="224.3" y="251.10000000000002"/>
      <point x="278.5" y="234.5"/>
      <point x="278.5" y="199.5" type="curve" smooth="yes"/>
      <point x="278.5" y="174.1"/>
      <point x="257.0" y="160.2"/>
      <point x="213.4" y="160.2" type="curve" smooth="yes"/>
      <point x="170.4" y="160.2"/>
      <point x="117.8" y="171.7"/>
      <point x="53.800000000000004" y="194.9" type="curve"/>
      <point x="19.1" y="34.4" type="line"/>
      <point x="69.3" y="9.6"/>
      <point x="144.7" y="-9.5"/>
    </contour>
    <contour>
      <point x="157.1" y="-105.0" type="line"/>
      <point x="322.1" y="-105.0" type="line"/>
      <point x="322.1" y="22.799999999999997" type="line"/>
      <point x="157.1" y="11.5" type="line"/>
    </contour>
    <contour>
      <point x="157.1" y="674.8000000000001" type="line"/>
      <point x="322.1" y="689.3" type="line"/>
      <point x="322.1" y="803.2" type="line"/>
      <point x="157.1" y="803.2" type="line"/>
    </contour>
  </outline>
</glyph>
<glyph name="ampersand" format="2">
  <advance width="578.9"/>
  <unicode hex="0026"/>
  <outline>
    <contour>
      <point x="379.2" y="0.0" type="line"/>
      <point x="581.3" y="0.0" type="line"/>
      <point x="290.5" y="436.8" type="line" smooth="yes"/>
      <point x="267.59999999999997" y="469.40000000000003"/>
      <point x="256.8" y="491.8"/>
      <point x="256.8" y="508.1" type="curve" smooth="yes"/>
      <point x="256.8" y="528.4000000000001"/>
      <point x="264.5" y="537.6"/>
      <point x="281.0" y="537.6" type="curve" smooth="yes"/>
      <point x="297.40000000000003" y="537.6"/>
      <point x="303.9" y="526.3000000000001"/>
      <point x="303.9" y="503.79999999999995" type="curve" smooth="yes"/>
      <point x="303.9" y="489.20000000000005"/>
      <point x="303.6" y="479.8"/>
      <point x="294.29999999999995" y="470.7" type="curve"/>
      <point x="357.5" y="371.79999999999995" type="line"/>
      <point x="424.2" y="399.59999999999997"/>
      <point x="463.7" y="454.7"/>
      <point x="463.7" y="541.3" type="curve" smooth="yes"/>
      <point x="463.7" y="656.6"/>
      <point x="395.5" y="710.0"/>
      <point x="277.9" y="710.0" type="curve" smooth="yes"/>
      <point x="137.4" y="710.0"/>
      <point x="70.2" y="635.1"/>
      <point x="70.2" y="515.8" type="curve" smooth="yes"/>
      <point x="70.2" y="455.09999999999997"/>
      <point x="96.2" y="398.4"/>
      <point x="132.9" y="346.3" type="curve" smooth="yes"/>
    </contour>
    <contour>
      <point x="223.9" y="-10.0" type="curve" smooth="yes"/>
      <point x="292.3" y="-10.0"/>
      <point x="343.0" y="13.7"/>
      <point x="378.8" y="54.800000000000004" type="curve"/>
      <point x="301.7" y="168.1" type="line"/>
      <point x="292.9" y="155.9"/>
      <point x="279.0" y="145.7"/>
      <point x="249.0" y="145.7" type="curve" smooth="yes"/>
      <point x="211.6" y="145.7"/>
      <point x="183.5" y="172.1"/>
      <point x="183.5" y="209.8" type="curve" smooth="yes"/>
      <point x="183.5" y="239.4"/>
      <point x="195.2" y="255.8"/>
      <point x="215.8" y="269.2" type="curve"/>
      <point x="135.4" y="396.1" type="line"/>
      <point x="45.0" y="346.7"/>
      <point x="10.2" y="275.6"/>
      <point x="10.2" y="190.1" type="curve" smooth="yes"/>
      <point x="10.2" y="66.89999999999999"/>
      <point x="94.6" y="-10.0"/>
    </contour>
    <contour>
      <point x="475.70000000000005" y="131.0" type="line"/>
      <point x="511.59999999999997" y="184.10000000000002"/>
      <point x="529.9" y="238.9"/>
      <point x="529.9" y="298.4" type="curve" smooth="yes"/>
      <point x="529.9" y="319.4"/>
      <point x="528.9" y="338.8"/>
      <point x="527.0" y="358.0" type="curve"/>
      <point x="381.8" y="358.0" type="line"/>
      <point x="382.7" y="348.5"/>
      <point x="383.5" y="337.2"/>
      <point x="383.09999999999997" y="324.3" type="curve" smooth="yes"/>
      <point x="382.3" y="309.3"/>
      <point x="378.5" y="299.3"/>
      <point x="371.4" y="288.3" type="curve"/>
    </contour>
  </outline>
</glyph>
<glyph name="parenleft" format="2">
  <advance width="265.1"/>
  <unicode hex="0028"/>
  <outline>
    <contour>
      <point x="16.4" y="265.0" type="curve" smooth="yes"/>
      <point x="16.4" y="-15.0"/>
      <point x="82.30000000000001" y="-197.0"/>
      <point x="254.10000000000002" y="-220.0" type="curve"/>
      <point x="254.10000000000002" y="-61.0" type="line"/>
      <point x="191.7" y="-27.9"/>
      <point x="166.6" y="26.7"/>
      <point x="166.6" y="265.0" type="curve" smooth="yes"/>
      <point x="166.6" y="503.3"/>
      <point x="191.7" y="557.9"/>
      <point x="254.10000000000002" y="591.0" type="curve"/>
      <point x="254.10000000000002" y="750.0" type="line"/>
      <point x="82.30000000000001" y="727.0"/>
      <point x="16.4" y="545.0"/>
    </contour>
  </outline>
</glyph>
<glyph name="parenright" format="2">
  <advance width="265.1"/>
  <unicode hex="0029"/>
  <outline>
    <contour>
      <point x="11.0" y="-61.0" type="curve"/>
      <point x="11.0" y="-220.0" type="line"/>
      <point x="182.79999999999998" y="-197.0"/>
      <point x="248.7" y="-15.0"/>
      <point x="248.7" y="265.0" type="curve" smooth="yes"/>
      <point x="248.7" y="545.0"/>
      <point x="182.79999999999998" y="727.0"/>
      <point x="11.0" y="750.0" type="curve"/>
      <point x="11.0" y="591.0" type="line"/>
      <point x="73.39999999999999" y="557.9"/>
      <point x="98.5" y="503.3"/>
      <point x="98.5" y="265.0" type="curve" smooth="yes"/>
      <point x="98.5" y="26.7"/>
      <point x="73.39999999999999" y="-27.9"/>
    </contour>
  </outline>
</glyph>
<glyph name="asterisk" format="2">
  <advance width="356.0"/>
  <unicode hex="002A"/>
  <outline>
    <contour>
      <point x="114.3" y="413.40000000000003" type="line"/>
      <point x="178.0" y="481.09999999999997" type="line"/>
      <point x="241.7" y="413.4" type="line"/>
      <point x="310.6" y="461.40000000000003" type="line"/>
      <point x="266.59999999999997" y="542.9" type="line"/>
      <point x="349.20000000000005" y="583.6" type="line"/>
      <point x="323.1" y="663.7" type="line"/>
      <point x="232.20000000000002" y="647.3" type="line"/>
      <point x="220.8" y="739.0" type="line"/>
      <point x="135.2" y="739.0" type="line"/>
      <point x="123.79999999999998" y="647.3" type="line"/>
      <point x="32.9" y="663.7" type="line"/>
      <point x="6.8" y="583.6" type="line"/>
      <point x="89.4" y="542.9" type="line"/>
      <point x="45.4" y="461.40000000000003" type="line"/>
    </contour>
  </outline>
</glyph>
<glyph name="plus" format="2">
  <advance width="456.2"/>
  <unicode hex="002B"/>
  <outline>
    <contour>
      <point x="143.8" y="155.4" type="line"/>
      <point x="312.3" y="155.4" type="line"/>
      <point x="312.3" y="247.5" type="line"/>
      <point x="412.40000000000003" y="247.5" type="line"/>
      <point x="412.40000000000003" y="412.0" type="line"/>
      <point x="312.3" y="412.0" type="line"/>
      <point x="312.3" y="504.0" type="line"/>
      <point x="143.8" y="504.0" type="line"/>
      <point x="143.8" y="412.0" type="line"/>
      <point x="43.8" y="412.0" type="line"/>
      <point x="43.8" y="247.5" type="line"/>
      <point x="143.8" y="247.5" type="line"/>
    </contour>
  </outline>
</glyph>
<glyph name="comma" format="2">
  <advance width="219.0"/>
  <unicode hex="002C"/>
  <outline>
    <contour>
      <point x="19.599999999999998" y="111.0" type="line"/>
      <point x="25.2" y="71.9"/>
      <point x="25.299999999999997" y="39.0"/>
      <point x="25.299999999999997" y="25.099999999999998" type="curve" smooth="yes"/>
      <point x="25.299999999999997" y="-24.7"/>
      <point x="7.6" y="-84.4"/>
      <point x="-20.7" y="-144.6" type="curve"/>
      <point x="120.39999999999999" y="-179.29999999999998" type="line"/>
      <point x="175.4" y="-101.39999999999999"/>
      <point x="201.1" y="-45.3"/>
      <point x="201.1" y="28.900000000000002" type="curve" smooth="yes"/>
      <point x="201.1" y="65.0"/>
      <point x="195.29999999999998" y="91.0"/>
      <point x="190.0" y="112.0" type="curve"/>
    </contour>
  </outline>
</glyph>
<glyph name="hyphen" format="2">
  <advance width="333.3"/>
  <unicode hex="002D"/>
  <outline>
    <contour>
      <point x="34.699999999999996" y="234.0" type="line"/>
      <point x="298.59999999999997" y="234.0" type="line"/>
      <point x="298.59999999999997" y="411.4" type="line"/>
      <point x="34.699999999999996" y="411.4" type="line"/>
    </contour>
  </outline>
</glyph>
<glyph name="period" format="2">
  <advance width="220.6"/>
  <unicode hex="002E"/>
  <outline>
    <contour>
      <point x="10.3" y="109.3" type="curve" smooth="yes"/>
      <point x="10.3" y="31.6"/>
      <point x="40.0" y="-7.4"/>
      <point x="110.3" y="-7.4" type="curve" smooth="yes"/>
      <point x="180.60000000000002" y="-7.4"/>
      <point x="210.3" y="31.6"/>
      <point x="210.3" y="109.3" type="curve" smooth="yes"/>
      <point x="210.3" y="188.0"/>
      <point x="180.60000000000002" y="227.0"/>
      <point x="110.3" y="227.0" type="curve" smooth="yes"/>
      <point x="40.0" y="227.0"/>
      <point x="10.3" y="188.0"/>
    </contour>
  </outline>
</glyph>
<glyph name="slash" format="2">
  <advance width="415.5"/>
  <unicode hex="002F"/>
  <outline>
    <contour>
      <point x="-7.999999999999999" y="-210.0" type="line"/>
      <point x="148.6" y="-210.0" type="line"/>
      <point x="423.5" y="740.0" type="line"/>
      <point x="266.0" y="740.0" type="line"/>
    </contour>
  </outline>
</glyph>
<glyph name="zero" format="2">
  <advance width="483.0"/>
  <unicode hex="0030"/>
  <outline>
    <contour>
      <point x="17.6" y="350.0" type="curve" smooth="yes"/>
      <point x="17.6" y="82.5"/>
      <point x="83.7" y="-10.0"/>
      <point x="241.5" y="-10.0" type="curve" smooth="yes"/>
      <point x="396.59999999999997" y="-10.0"/>
      <point x="465.40000000000003" y="86.10000000000001"/>
      <point x="465.40000000000003" y="350.0" type="curve" smooth="yes"/>
      <point x="465.40000000000003" y="614.8"/>
      <point x="410.09999999999997" y="710.0"/>
      <point x="241.5" y="710.0" type="curve" smooth="yes"/>
      <point x="81.0" y="710.0"/>
      <point x="17.6" y="622.0"/>
    </contour>
    <contour>
      <point x="208.4" y="338.3" type="curve" smooth="yes"/>
      <point x="208.4" y="538.3"/>
      <point x="219.1" y="542.2"/>
      <point x="241.5" y="542.2" type="curve" smooth="yes"/>
      <point x="263.90000000000003" y="542.2"/>
      <point x="274.6" y="539.2"/>
      <point x="274.6" y="338.3" type="curve" smooth="yes"/>
      <point x="274.6" y="167.1"/>
      <point x="266.6" y="157.8"/>
      <point x="241.5" y="157.8" type="curve" smooth="yes"/>
      <point x="216.4" y="157.8"/>
      <point x="208.4" y="166.20000000000002"/>
    </contour>
  </outline>
</glyph>
<glyph name="one" format="2">
  <advance width="483.0"/>
  <unicode hex="0031"/>
  <outline>
    <contour>
      <point x="71.2" y="0.0" type="line"/>
      <point x="444.1" y="0.0" type="line"/>
      <point x="444.1" y="165.0" type="line"/>
      <point x="359.1" y="165.0" type="line"/>
      <point x="359.1" y="700.0" type="line"/>
      <point x="263.8" y="700.0" type="line"/>
      <point x="52.8" y="639.6" type="line"/>
      <point x="84.2" y="452.6" type="line"/>
      <point x="169.9" y="473.3" type="line"/>
      <point x="169.9" y="165.0" type="line"/>
      <point x="71.2" y="165.0" type="line"/>
    </contour>
  </outline>
</glyph>
<glyph name="two" format="2">
  <advance width="483.1"/>
  <unicode hex="0032"/>
  <outline>
    <contour>
      <point x="48.05" y="146.3" type="curve"/>
      <point x="48.15" y="0.0" type="line"/>
      <point x="441.65" y="0.0" type="line"/>
      <point x="441.65" y="165.0" type="line"/>
      <point x="278.6" y="165.0" type="line"/>
      <point x="389.95" y="304.5"/>
      <point x="424.3" y="375.2"/>
      <point x="424.3" y="498.7" type="curve" smooth="yes"/>
      <point x="424.3" y="633.4"/>
      <point x="355.0" y="710.0"/>
      <point x="226.55" y="710.0" type="curve" smooth="yes"/>
      <point x="151.9" y="710.0"/>
      <point x="83.45" y="688.15"/>
      <point x="24.85" y="646.95" type="curve"/>
      <point x="89.05" y="462.15" type="line"/>
      <point x="121.7" y="481.25"/>
      <point x="148.05" y="489.5"/>
      <point x="177.45" y="489.5" type="curve" smooth="yes"/>
      <point x="212.5" y="489.5"/>
      <point x="232.6" y="468.2"/>
      <point x="232.6" y="428.2" type="curve" smooth="yes"/>
      <point x="232.6" y="369.55"/>
      <point x="158.8" y="259.35"/>
    </contour>
  </outline>
</glyph>
<glyph name="three" format="2">
  <advance width="483.0"/>
  <unicode hex="0033"/>
  <outline>
    <contour>
      <point x="20.25" y="38.5" type="line"/>
      <point x="86.75" y="2.5"/>
      <point x="136.25" y="-10.0"/>
      <point x="210.5" y="-10.0" type="curve" smooth="yes"/>
      <point x="358.75" y="-10.0"/>
      <point x="442.5" y="70.5"/>
      <point x="442.5" y="206.25" type="curve" smooth="yes"/>
      <point x="442.5" y="279.75"/>
      <point x="408.5" y="340.0"/>
      <point x="346.5" y="373.75" type="curve"/>
      <point x="400.5" y="413.5"/>
      <point x="433.25" y="474.0"/>
      <point x="433.25" y="534.25" type="curve" smooth="yes"/>
      <point x="433.25" y="642.75"/>
      <point x="355.75" y="710.0"/>
      <point x="217.75" y="710.0" type="curve" smooth="yes"/>
      <point x="140.5" y="710.0"/>
      <point x="68.5" y="690.25"/>
      <point x="18.5" y="652.75" type="curve"/>
      <point x="74.0" y="495.0" type="line"/>
      <point x="99.5" y="506.0"/>
      <point x="139.25" y="514.25"/>
      <point x="172.25" y="514.25" type="curve" smooth="yes"/>
      <point x="222.5" y="514.25"/>
      <point x="246.75" y="498.25"/>
      <point x="246.75" y="470.25" type="curve" smooth="yes"/>
      <point x="246.75" y="444.0"/>
      <point x="226.0" y="427.25"/>
      <point x="180.5" y="427.25" type="curve" smooth="yes"/>
      <point x="121.0" y="427.25" type="line"/>
      <point x="121.0" y="273.5" type="line"/>
      <point x="184.75" y="273.5" type="line" smooth="yes"/>
      <point x="231.25" y="273.5"/>
      <point x="254.0" y="255.25"/>
      <point x="254.0" y="222.25" type="curve" smooth="yes"/>
      <point x="254.0" y="192.0"/>
      <point x="231.0" y="174.5"/>
      <point x="184.25" y="174.5" type="curve" smooth="yes"/>
      <point x="149.25" y="174.5"/>
      <point x="116.75" y="181.5"/>
      <point x="81.0" y="198.0" type="curve"/>
    </contour>
  </outline>
</glyph>
<glyph name="four" format="2">
  <advance width="483.0"/>
  <unicode hex="0034"/>
  <outline>
    <contour>
      <point x="19.25" y="77.75" type="line"/>
      <point x="213.0" y="77.75" type="line"/>
      <point x="213.0" y="0.0" type="line"/>
      <point x="409.5" y="0.0" type="line"/>
      <point x="409.5" y="77.75" type="line"/>
      <point x="467.0" y="77.75" type="line"/>
      <point x="467.0" y="239.0" type="line"/>
      <point x="409.5" y="239.0" type="line"/>
      <point x="409.5" y="700.0" type="line"/>
      <point x="198.5" y="700.0" type="line"/>
      <point x="19.25" y="246.0" type="line"/>
    </contour>
    <contour>
      <point x="137.0" y="239.0" type="line"/>
      <point x="222.0" y="471.25" type="line"/>
      <point x="222.0" y="239.0" type="line"/>
    </contour>
  </outline>
</glyph>
<glyph name="five" format="2">
  <advance width="483.0"/>
  <unicode hex="0035"/>
  <outline>
    <contour>
      <point x="31.2" y="30.299999999999997" type="line"/>
      <point x="85.2" y="2.8"/>
      <point x="136.5" y="-10.0"/>
      <point x="206.6" y="-10.0" type="curve" smooth="yes"/>
      <point x="353.8" y="-10.0"/>
      <point x="457.40000000000003" y="76.0"/>
      <point x="457.40000000000003" y="238.0" type="curve" smooth="yes"/>
      <point x="457.40000000000003" y="369.3"/>
      <point x="389.2" y="428.0"/>
      <point x="280.59999999999997" y="434.29999999999995" type="curve" smooth="yes"/>
      <point x="248.0" y="436.09999999999997" type="line"/>
      <point x="256.0" y="528.7" type="line"/>
      <point x="438.09999999999997" y="528.7" type="line"/>
      <point x="438.09999999999997" y="700.0" type="line"/>
      <point x="108.6" y="700.0" type="line"/>
      <point x="66.5" y="296.9" type="line"/>
      <point x="74.8" y="284.5" type="line"/>
      <point x="175.70000000000002" y="284.5" type="line" smooth="yes"/>
      <point x="243.70000000000002" y="284.5"/>
      <point x="267.2" y="268.09999999999997"/>
      <point x="267.2" y="229.5" type="curve" smooth="yes"/>
      <point x="267.2" y="198.3"/>
      <point x="246.7" y="174.1"/>
      <point x="182.9" y="174.1" type="curve" smooth="yes"/>
      <point x="135.29999999999998" y="174.1"/>
      <point x="95.5" y="182.8"/>
      <point x="66.10000000000001" y="194.7" type="curve"/>
    </contour>
  </outline>
</glyph>
<glyph name="six" format="2">
  <advance width="483.0"/>
  <unicode hex="0036"/>
  <outline>
    <contour>
      <point x="246.24999999999997" y="-10.0" type="curve" smooth="yes"/>
      <point x="397.5" y="-10.0"/>
      <point x="470.5" y="73.0"/>
      <point x="470.5" y="247.25" type="curve" smooth="yes"/>
      <point x="470.5" y="384.0"/>
      <point x="413.50000000000006" y="464.0"/>
      <point x="312.5" y="464.0" type="curve" smooth="yes"/>
      <point x="266.0" y="464.0"/>
      <point x="232.5" y="455.0"/>
      <point x="199.5" y="431.00000000000006" type="curve"/>
      <point x="193.5" y="288.5" type="line"/>
      <point x="213.25" y="305.0"/>
      <point x="228.0" y="314.5"/>
      <point x="245.25000000000003" y="314.5" type="curve" smooth="yes"/>
      <point x="268.99999999999994" y="314.5"/>
      <point x="283.25" y="290.25000000000006"/>
      <point x="283.25" y="239.99999999999997" type="curve" smooth="yes"/>
      <point x="283.25" y="175.0"/>
      <point x="271.5" y="153.74999999999997"/>
      <point x="252.25" y="153.74999999999997" type="curve" smooth="yes"/>
      <point x="225.50000000000003" y="153.74999999999997"/>
      <point x="215.75" y="169.49999999999997"/>
      <point x="215.75" y="361.5" type="curve" smooth="yes"/>
      <point x="215.75" y="471.5"/>
      <point x="219.5" y="533.0"/>
      <point x="323.0" y="533.0" type="curve" smooth="yes"/>
      <point x="354.25" y="533.0"/>
      <point x="385.75" y="524.0000000000001"/>
      <point x="411.5" y="510.0" type="curve"/>
      <point x="464.5" y="670.0" type="line"/>
      <point x="429.75" y="692.25"/>
      <point x="355.25" y="710.0"/>
      <point x="290.25" y="710.0" type="curve" smooth="yes"/>
      <point x="114.5" y="710.0"/>
      <point x="20.75" y="574.7500000000001"/>
      <point x="20.75" y="325.25" type="curve" smooth="yes"/>
      <point x="20.75" y="96.75"/>
      <point x="93.24999999999999" y="-10.0"/>
    </contour>
  </outline>
</glyph>
<glyph name="seven" format="2">
  <advance width="483.0"/>
  <unicode hex="0037"/>
  <outline>
    <contour>
      <point x="96.89999999999999" y="0.0" type="curve"/>
      <point x="299.1" y="0.0" type="line"/>
      <point x="299.9" y="117.0"/>
      <point x="318.2" y="196.0"/>
      <point x="369.1" y="338.2" type="curve" smooth="yes"/>
      <point x="451.9" y="567.4" type="line"/>
      <point x="451.9" y="700.0" type="line"/>
      <point x="33.5" y="700.0" type="line"/>
      <point x="33.5" y="530.5" type="line"/>
      <point x="249.29999999999998" y="530.5" type="line"/>
      <point x="169.89999999999998" y="356.9" type="line" smooth="yes"/>
      <point x="116.8" y="240.20000000000002"/>
      <point x="96.89999999999999" y="134.7"/>
    </contour>
  </outline>
</glyph>
<glyph name="eight" format="2">
  <advance width="483.1"/>
  <unicode hex="0038"/>
  <outline>
    <contour>
      <point x="236.35" y="419.0" type="curve"/>
      <point x="336.5" y="352.3" type="line"/>
      <point x="412.05" y="405.75"/>
      <point x="447.9" y="466.05"/>
      <point x="447.9" y="532.95" type="curve" smooth="yes"/>
      <point x="447.9" y="643.6"/>
      <point x="372.55" y="710.0"/>
      <point x="246.4" y="710.0" type="curve" smooth="yes"/>
      <point x="107.6" y="710.0"/>
      <point x="30.7" y="639.85"/>
      <point x="30.7" y="510.9" type="curve" smooth="yes"/>
      <point x="30.7" y="288.35"/>
      <point x="280.6" y="294.0"/>
      <point x="280.6" y="183.65" type="curve" smooth="yes"/>
      <point x="280.6" y="160.5"/>
      <point x="269.35" y="148.4"/>
      <point x="246.95" y="148.4" type="curve" smooth="yes"/>
      <point x="217.1" y="148.4"/>
      <point x="199.8" y="165.45"/>
      <point x="199.8" y="198.75" type="curve" smooth="yes"/>
      <point x="199.8" y="237.6"/>
      <point x="212.4" y="255.1"/>
      <point x="240.0" y="284.05" type="curve"/>
      <point x="133.7" y="364.3" type="line"/>
      <point x="55.2" y="323.55"/>
      <point x="17.7" y="261.65"/>
      <point x="17.7" y="185.95" type="curve" smooth="yes"/>
      <point x="17.7" y="61.0"/>
      <point x="97.75" y="-10.0"/>
      <point x="240.2" y="-10.0" type="curve" smooth="yes"/>
      <point x="389.35" y="-10.0"/>
      <point x="466.0" y="59.7"/>
      <point x="466.0" y="192.85" type="curve" smooth="yes"/>
      <point x="466.0" y="426.95"/>
      <point x="207.7" y="406.15"/>
      <point x="207.7" y="513.6" type="curve" smooth="yes"/>
      <point x="207.7" y="532.7"/>
      <point x="218.25" y="548.2"/>
      <point x="240.6" y="548.2" type="curve" smooth="yes"/>
      <point x="267.25" y="548.2"/>
      <point x="279.0" y="533.25"/>
      <point x="279.0" y="501.45" type="curve" smooth="yes"/>
      <point x="279.0" y="463.1"/>
      <point x="267.8" y="444.0"/>
    </contour>
  </outline>
</glyph>
<glyph name="nine" format="2">
  <advance width="483.0"/>
  <unicode hex="0039"/>
  <outline>
    <contour>
      <point x="201.0" y="-10.0" type="curve" smooth="yes"/>
      <point x="376.75" y="-10.0"/>
      <point x="470.25" y="124.5"/>
      <point x="470.25" y="373.25" type="curve" smooth="yes"/>
      <point x="470.25" y="602.4999999999999"/>
      <point x="398.5" y="710.0"/>
      <point x="245.25" y="710.0" type="curve" smooth="yes"/>
      <point x="94.0" y="710.0"/>
      <point x="20.5" y="626.5000000000001"/>
      <point x="20.5" y="452.25" type="curve" smooth="yes"/>
      <point x="20.5" y="315.25"/>
      <point x="78.75" y="236.0"/>
      <point x="179.25" y="236.0" type="curve" smooth="yes"/>
      <point x="224.0" y="236.0"/>
      <point x="260.0" y="245.75"/>
      <point x="291.5" y="268.99999999999994" type="curve"/>
      <point x="297.5" y="411.5" type="line"/>
      <point x="280.0" y="396.0"/>
      <point x="263.99999999999994" y="385.75"/>
      <point x="243.75" y="385.75" type="curve" smooth="yes"/>
      <point x="222.50000000000003" y="385.75"/>
      <point x="208.00000000000003" y="409.75"/>
      <point x="208.00000000000003" y="460.0" type="curve" smooth="yes"/>
      <point x="208.00000000000003" y="523.5"/>
      <point x="218.50000000000003" y="546.2499999999999"/>
      <point x="240.25" y="546.2499999999999" type="curve" smooth="yes"/>
      <point x="269.0" y="546.2499999999999"/>
      <point x="275.5" y="523.9999999999999"/>
      <point x="275.5" y="338.75" type="curve" smooth="yes"/>
      <point x="275.5" y="228.75"/>
      <point x="271.25" y="166.25"/>
      <point x="167.75" y="166.25" type="curve" smooth="yes"/>
      <point x="136.5" y="166.25"/>
      <point x="105.0" y="175.25000000000003"/>
      <point x="79.5" y="189.25" type="curve"/>
      <point x="26.5" y="29.999999999999996" type="line"/>
      <point x="61.25" y="7.749999999999999"/>
      <point x="136.0" y="-10.0"/>
    </contour>
  </outline>
</glyph>
<glyph name="less" format="2">
  <advance width="456.2"/>
  <unicode hex="003C"/>
  <outline>
    <contour>
      <point x="431.3" y="99.3" type="line"/>
      <point x="431.3" y="248.4" type="line"/>
      <point x="197.1" y="312.59999999999997" type="line"/>
      <point x="431.3" y="377.6" type="line"/>
      <point x="431.3" y="526.0" type="line"/>
      <point x="24.900000000000002" y="393.79999999999995" type="line"/>
      <point x="24.900000000000002" y="231.1" type="line"/>
    </contour>
  </outline>
</glyph>
<glyph name="equal" format="2">
  <advance width="438.2"/>
  <unicode hex="003D"/>
  <outline>
    <contour>
      <point x="394.40000000000003" y="282.4" type="line"/>
      <point x="43.8" y="282.4" type="line"/>
      <point x="43.8" y="117.9" type="line"/>
      <point x="394.40000000000003" y="117.9" type="line"/>
    </contour>
    <contour>
      <point x="394.40000000000003" y="508.3" type="line"/>
      <point x="43.8" y="508.3" type="line"/>
      <point x="43.8" y="343.8" type="line"/>
      <point x="394.40000000000003" y="343.8" type="line"/>
    </contour>
  </outline>
</glyph>
<glyph name="greater" format="2">
  <advance width="456.2"/>
  <unicode hex="003E"/>
  <outline>
    <contour>
      <point x="431.3" y="231.1" type="line"/>
      <point x="431.3" y="393.8" type="line"/>
      <point x="24.900000000000002" y="526.0" type="line"/>
      <point x="24.900000000000002" y="377.59999999999997" type="line"/>
      <point x="259.1" y="312.6" type="line"/>
      <point x="24.900000000000002" y="248.4" type="line"/>
      <point x="24.900000000000002" y="99.3" type="line"/>
    </contour>
  </outline>
</glyph>
<glyph name="question" format="2">
  <advance width="401.2"/>
  <unicode hex="003F"/>
  <outline>
    <contour>
      <point x="105.8" y="259.0" type="line"/>
      <point x="268.6" y="259.0" type="line"/>
      <point x="268.8" y="329.1" type="line"/>
      <point x="357.70000000000005" y="367.5"/>
      <point x="391.59999999999997" y="450.7"/>
      <point x="391.59999999999997" y="545.7" type="curve" smooth="yes"/>
      <point x="391.59999999999997" y="678.0"/>
      <point x="312.8" y="749.1"/>
      <point x="176.3" y="749.1" type="curve" smooth="yes"/>
      <point x="113.0" y="749.1"/>
      <point x="49.2" y="727.4000000000001"/>
      <point x="7.6000000000000005" y="696.9" type="curve"/>
      <point x="71.0" y="528.0" type="line"/>
      <point x="104.2" y="549.8"/>
      <point x="123.6" y="552.6999999999999"/>
      <point x="145.10000000000002" y="552.6999999999999" type="curve" smooth="yes"/>
      <point x="180.20000000000002" y="552.6999999999999"/>
      <point x="196.6" y="534.0"/>
      <point x="196.6" y="510.2" type="curve" smooth="yes"/>
      <point x="196.6" y="482.8"/>
      <point x="185.0" y="446.4"/>
      <point x="101.5" y="412.5" type="curve"/>
    </contour>
    <contour>
      <point x="87.5" y="106.6" type="curve" smooth="yes"/>
      <point x="87.5" y="28.9"/>
      <point x="116.30000000000001" y="-10.1"/>
      <point x="187.5" y="-10.1" type="curve" smooth="yes"/>
      <point x="256.9" y="-10.1"/>
      <point x="287.5" y="28.9"/>
      <point x="287.5" y="106.6" type="curve" smooth="yes"/>
      <point x="287.5" y="185.3"/>
      <point x="256.9" y="224.3"/>
      <point x="187.5" y="224.3" type="curve" smooth="yes"/>
      <point x="116.3" y="224.3"/>
      <point x="87.5" y="185.3"/>
    </contour>
  </outline>
</glyph>
<glyph name="at" format="2">
  <advance width="843.5"/>
  <unicode hex="0040"/>
  <outline>
    <contour>
      <point x="424.0" y="-124.9" type="curve" smooth="yes"/>
      <point x="478.7" y="-124.9"/>
      <point x="563.1999999999999" y="-111.3"/>
      <point x="608.7" y="-89.7" type="curve"/>
      <point x="586.1999999999999" y="-15.899999999999999" type="line"/>
      <point x="534.6" y="-30.900000000000002"/>
      <point x="477.70000000000005" y="-39.0"/>
      <point x="425.2" y="-39.0" type="curve" smooth="yes"/>
      <point x="258.2" y="-39.0"/>
      <point x="121.60000000000001" y="36.9"/>
      <point x="121.60000000000001" y="261.5" type="curve" smooth="yes"/>
      <point x="121.60000000000001" y="477.9"/>
      <point x="236.0" y="629.0"/>
      <point x="443.7" y="629.0" type="curve" smooth="yes"/>
      <point x="647.5" y="629.0"/>
      <point x="731.3000000000001" y="526.6"/>
      <point x="731.3000000000001" y="330.5" type="curve" smooth="yes"/>
      <point x="731.3000000000001" y="224.5"/>
      <point x="686.8" y="152.8"/>
      <point x="650.1" y="153.3" type="curve" smooth="yes"/>
      <point x="617.6" y="153.3"/>
      <point x="598.6999999999999" y="175.9"/>
      <point x="604.5" y="241.9" type="curve" smooth="yes"/>
      <point x="629.6999999999999" y="518.3" type="line"/>
      <point x="569.2" y="544.2"/>
      <point x="515.9" y="556.8000000000001"/>
      <point x="441.4" y="556.8000000000001" type="curve" smooth="yes"/>
      <point x="283.79999999999995" y="556.8000000000001"/>
      <point x="209.0" y="425.59999999999997"/>
      <point x="209.0" y="248.20000000000002" type="curve" smooth="yes"/>
      <point x="209.0" y="97.9"/>
      <point x="269.59999999999997" y="44.1"/>
      <point x="340.2" y="44.1" type="curve" smooth="yes"/>
      <point x="393.3" y="44.1"/>
      <point x="435.29999999999995" y="67.8"/>
      <point x="474.40000000000003" y="128.39999999999998" type="curve"/>
      <point x="493.0" y="78.9"/>
      <point x="532.9" y="34.2"/>
      <point x="614.5" y="34.2" type="curve" smooth="yes"/>
      <point x="743.1" y="33.2"/>
      <point x="822.8" y="164.1"/>
      <point x="822.8" y="346.8" type="curve" smooth="yes"/>
      <point x="822.8" y="593.8000000000001"/>
      <point x="663.2" y="710.0"/>
      <point x="460.0" y="710.0" type="curve" smooth="yes"/>
      <point x="175.1" y="710.0"/>
      <point x="22.5" y="532.0"/>
      <point x="22.5" y="273.9" type="curve" smooth="yes"/>
      <point x="22.5" y="2.1999999999999993"/>
      <point x="186.79999999999998" y="-124.9"/>
    </contour>
    <contour>
      <point x="410.7" y="210.7" type="curve" smooth="yes"/>
      <point x="400.0" y="210.7"/>
      <point x="389.0" y="221.7"/>
      <point x="389.0" y="241.70000000000002" type="curve" smooth="yes"/>
      <point x="389.0" y="331.7"/>
      <point x="412.3" y="435.1"/>
      <point x="442.0" y="435.1" type="curve" smooth="yes"/>
      <point x="449.8" y="435.1"/>
      <point x="457.3" y="431.4"/>
      <point x="463.1" y="428.4" type="curve"/>
      <point x="442.3" y="227.1" type="line" smooth="yes"/>
      <point x="434.9" y="220.0"/>
      <point x="425.70000000000005" y="210.7"/>
    </contour>
  </outline>
</glyph>
<glyph name="A" format="2">
  <advance width="509.1"/>
  <unicode hex="0041"/>
  <anchor x="506.8" y="0.0" name="ogonek"/>
  <anchor x="251.70000000000002" y="0.0" name="bottom"/>
  <anchor x="253.4" y="700.0" name="top"/>
  <outline>
    <contour>
      <point x="2.3" y="0.0" type="line"/>
      <point x="195.2" y="0.0" type="line"/>
      <point x="205.4" y="91.0" type="line"/>
      <point x="297.5" y="91.0" type="line"/>
      <point x="309.5" y="0.0" type="line"/>
      <point x="506.8" y="0.0" type="line"/>
      <point x="384.0" y="700.0" type="line"/>
      <point x="120.6" y="700.0" type="line"/>
    </contour>
    <contour>
      <point x="227.0" y="281.0" type="line"/>
      <point x="251.9" y="565.7" type="line"/>
      <point x="275.9" y="281.0" type="line"/>
    </contour>
  </outline>
</glyph>
<glyph name="B" format="2">
  <advance width="491.9"/>
  <unicode hex="0042"/>
  <anchor x="246.1" y="700.0" name="top"/>
  <anchor x="246.1" y="0.0" name="bottom"/>
  <outline>
    <contour>
      <point x="27.299999999999997" y="5.0" type="line"/>
      <point x="156.9" y="-8.0"/>
      <point x="160.1" y="-10.0"/>
      <point x="246.3" y="-10.0" type="curve" smooth="yes"/>
      <point x="416.7" y="-10.0"/>
      <point x="485.3" y="56.0"/>
      <point x="485.3" y="212.60000000000002" type="curve" smooth="yes"/>
      <point x="485.3" y="289.4"/>
      <point x="450.90000000000003" y="355.40000000000003"/>
      <point x="392.7" y="390.2" type="curve"/>
      <point x="392.7" y="392.20000000000005" type="line"/>
      <point x="437.0" y="425.1"/>
      <point x="459.09999999999997" y="475.0"/>
      <point x="459.09999999999997" y="537.4" type="curve" smooth="yes"/>
      <point x="459.09999999999997" y="654.7"/>
      <point x="392.9" y="710.0"/>
      <point x="246.3" y="710.0" type="curve" smooth="yes"/>
      <point x="190.0" y="710.0"/>
      <point x="117.0" y="705.0"/>
      <point x="27.299999999999997" y="695.0" type="curve"/>
    </contour>
    <contour>
      <point x="217.70000000000002" y="425.1" type="line"/>
      <point x="217.70000000000002" y="532.1" type="line"/>
      <point x="229.89999999999998" y="535.0999999999999"/>
      <point x="236.1" y="536.0999999999999"/>
      <point x="248.20000000000002" y="536.0999999999999" type="curve" smooth="yes"/>
      <point x="277.2" y="536.0999999999999"/>
      <point x="288.2" y="517.3000000000001"/>
      <point x="288.2" y="476.6" type="curve" smooth="yes"/>
      <point x="288.2" y="439.7"/>
      <point x="278.0" y="425.1"/>
      <point x="254.10000000000002" y="425.1" type="curve" smooth="yes"/>
    </contour>
    <contour>
      <point x="217.70000000000002" y="166.1" type="curve"/>
      <point x="217.70000000000002" y="275.90000000000003" type="line"/>
      <point x="250.8" y="275.90000000000003" type="line" smooth="yes"/>
      <point x="284.2" y="275.90000000000003"/>
      <point x="295.7" y="259.9"/>
      <point x="295.7" y="219.1" type="curve" smooth="yes"/>
      <point x="295.7" y="179.79999999999998"/>
      <point x="284.2" y="163.0"/>
      <point x="247.7" y="163.0" type="curve" smooth="yes"/>
      <point x="238.7" y="163.0"/>
      <point x="227.1" y="164.1"/>
    </contour>
  </outline>
</glyph>
<glyph name="C" format="2">
  <advance width="437.70000000000005"/>
  <unicode hex="0043"/>
  <anchor x="249.2" y="700.0" name="top"/>
  <anchor x="255.3" y="0.0" name="bottom"/>
  <outline>
    <contour>
      <point x="11.7" y="347.70000000000005" type="curve" smooth="yes"/>
      <point x="11.7" y="89.2"/>
      <point x="84.8" y="-10.0"/>
      <point x="259.7" y="-10.0" type="curve" smooth="yes"/>
      <point x="328.70000000000005" y="-10.0"/>
      <point x="379.7" y="0.6000000000000002"/>
      <point x="425.0" y="20.4" type="curve"/>
      <point x="392.40000000000003" y="190.8" type="line"/>
      <point x="363.2" y="180.7"/>
      <point x="325.6" y="173.0"/>
      <point x="295.90000000000003" y="173.0" type="curve" smooth="yes"/>
      <point x="224.20000000000002" y="173.0"/>
      <point x="203.9" y="209.6"/>
      <point x="203.9" y="344.3" type="curve" smooth="yes"/>
      <point x="203.9" y="486.7"/>
      <point x="225.4" y="527.4"/>
      <point x="293.8" y="527.4" type="curve" smooth="yes"/>
      <point x="324.90000000000003" y="527.4"/>
      <point x="352.5" y="521.8"/>
      <point x="389.3" y="510.20000000000005" type="curve"/>
      <point x="427.0" y="679.8" type="line"/>
      <point x="387.5" y="699.0"/>
      <point x="332.79999999999995" y="710.0"/>
      <point x="268.0" y="710.0" type="curve" smooth="yes"/>
      <point x="89.3" y="710.0"/>
      <point x="11.7" y="607.5"/>
    </contour>
  </outline>
</glyph>
<glyph name="D" format="2">
  <advance width="505.4"/>
  <unicode hex="0044"/>
  <anchor x="250.20000000000002" y="700.0" name="top"/>
  <outline>
    <contour>
      <point x="229.5" y="-10.0" type="curve" smooth="yes"/>
      <point x="415.7" y="-10.0"/>
      <point x="493.70000000000005" y="95.2"/>
      <point x="493.70000000000005" y="353.0" type="curve" smooth="yes"/>
      <point x="493.70000000000005" y="604.2"/>
      <point x="429.59999999999997" y="710.0"/>
      <point x="230.0" y="710.0" type="curve" smooth="yes"/>
      <point x="152.1" y="710.0"/>
      <point x="94.2" y="707.0"/>
      <point x="27.299999999999997" y="698.2" type="curve"/>
      <point x="27.299999999999997" y="0.0" type="line"/>
      <point x="84.4" y="-6.7"/>
      <point x="150.0" y="-10.0"/>
    </contour>
    <contour>
      <point x="253.10000000000002" y="162.0" type="curve" smooth="yes"/>
      <point x="235.1" y="162.0"/>
      <point x="228.60000000000002" y="163.2"/>
      <point x="216.8" y="164.3" type="curve"/>
      <point x="216.8" y="533.2" type="line"/>
      <point x="225.5" y="535.3000000000001"/>
      <point x="238.0" y="536.3"/>
      <point x="252.0" y="536.3" type="curve" smooth="yes"/>
      <point x="286.4" y="536.3"/>
      <point x="297.40000000000003" y="507.5"/>
      <point x="297.40000000000003" y="349.7" type="curve" smooth="yes"/>
      <point x="297.40000000000003" y="202.7"/>
      <point x="284.5" y="162.0"/>
    </contour>
  </outline>
</glyph>
<glyph name="E" format="2">
  <advance width="429.3"/>
  <unicode hex="0045"/>
  <anchor x="414.2" y="0.0" name="ogonek"/>
  <anchor x="219.9" y="0.0" name="bottom"/>
  <anchor x="221.3" y="700.0" name="top"/>
  <outline>
    <contour>
      <point x="27.299999999999997" y="0.0" type="line"/>
      <point x="414.2" y="0.0" type="line"/>
      <point x="414.2" y="180.7" type="line"/>
      <point x="216.70000000000002" y="180.7" type="line"/>
      <point x="216.70000000000002" y="263.7" type="line"/>
      <point x="377.5" y="263.7" type="line"/>
      <point x="377.5" y="432.9" type="line"/>
      <point x="216.70000000000002" y="432.9" type="line"/>
      <point x="216.70000000000002" y="514.8" type="line"/>
      <point x="401.4" y="514.8" type="line"/>
      <point x="401.4" y="700.0" type="line"/>
      <point x="27.299999999999997" y="700.0" type="line"/>
    </contour>
  </outline>
</glyph>
<glyph name="F" format="2">
  <advance width="412.79999999999995"/>
  <unicode hex="0046"/>
  <outline>
    <contour>
      <point x="27.299999999999997" y="0.0" type="line"/>
      <point x="218.6" y="0.0" type="line"/>
      <point x="218.6" y="204.8" type="line"/>
      <point x="372.4" y="204.8" type="line"/>
      <point x="372.4" y="390.5" type="line"/>
      <point x="216.8" y="390.5" type="line"/>
      <point x="216.8" y="513.3" type="line"/>
      <point x="399.5" y="513.3" type="line"/>
      <point x="399.5" y="700.0" type="line"/>
      <point x="27.299999999999997" y="700.0" type="line"/>
    </contour>
  </outline>
</glyph>
<glyph name="G" format="2">
  <advance width="484.8"/>
  <unicode hex="0047"/>
  <anchor x="253.5" y="700.0" name="top"/>
  <anchor x="252.10000000000002" y="0.0" name="bottom"/>
  <outline>
    <contour>
      <point x="11.7" y="349.5" type="curve" smooth="yes"/>
      <point x="11.7" y="101.7"/>
      <point x="84.39999999999999" y="-10.0"/>
      <point x="243.6" y="-10.0" type="curve" smooth="yes"/>
      <point x="330.59999999999997" y="-10.0"/>
      <point x="399.3" y="8.399999999999999"/>
      <point x="464.0" y="49.0" type="curve"/>
      <point x="464.0" y="416.90000000000003" type="line"/>
      <point x="247.1" y="416.90000000000003" type="line"/>
      <point x="247.1" y="244.0" type="line"/>
      <point x="291.09999999999997" y="244.0" type="line"/>
      <point x="291.09999999999997" y="170.3" type="line"/>
      <point x="283.3" y="165.4"/>
      <point x="269.40000000000003" y="162.39999999999998"/>
      <point x="254.5" y="162.39999999999998" type="curve" smooth="yes"/>
      <point x="216.70000000000002" y="162.39999999999998"/>
      <point x="202.1" y="201.20000000000002"/>
      <point x="202.1" y="338.0" type="curve" smooth="yes"/>
      <point x="202.1" y="474.7"/>
      <point x="227.3" y="529.1999999999999"/>
      <point x="292.0" y="529.1999999999999" type="curve" smooth="yes"/>
      <point x="327.09999999999997" y="529.1999999999999"/>
      <point x="376.3" y="520.1999999999999"/>
      <point x="409.4" y="509.3" type="curve"/>
      <point x="443.2" y="680.6999999999999" type="line"/>
      <point x="402.6" y="697.4"/>
      <point x="329.6" y="710.0"/>
      <point x="270.70000000000005" y="710.0" type="curve" smooth="yes"/>
      <point x="91.6" y="710.0"/>
      <point x="11.7" y="595.8"/>
    </contour>
  </outline>
</glyph>
<glyph name="H" format="2">
  <advance width="505.3"/>
  <unicode hex="0048"/>
  <anchor x="253.10000000000002" y="700.0" name="top"/>
  <outline>
    <contour>
      <point x="27.299999999999997" y="0.0" type="line"/>
      <point x="216.8" y="0.0" type="line"/>
      <point x="216.8" y="226.3" type="line"/>
      <point x="288.5" y="226.3" type="line"/>
      <point x="288.5" y="0.0" type="line"/>
      <point x="478.0" y="0.0" type="line"/>
      <point x="478.0" y="700.0" type="line"/>
      <point x="288.5" y="700.0" type="line"/>
      <point x="288.5" y="416.8" type="line"/>
      <point x="216.8" y="416.8" type="line"/>
      <point x="216.8" y="700.0" type="line"/>
      <point x="27.299999999999997" y="700.0" type="line"/>
    </contour>
  </outline>
</glyph>
<glyph name="I" format="2">
  <advance width="244.10000000000002"/>
  <unicode hex="0049"/>
  <anchor x="216.8" y="0.0" name="ogonek"/>
  <anchor x="122.5" y="0.0" name="bottom"/>
  <anchor x="122.5" y="700.0" name="top"/>
  <outline>
    <contour>
      <point x="27.299999999999997" y="0.0" type="line"/>
      <point x="216.8" y="0.0" type="line"/>
      <point x="216.8" y="700.0" type="line"/>
      <point x="27.299999999999997" y="700.0" type="line"/>
    </contour>
  </outline>
</glyph>
<glyph name="J" format="2">
  <advance width="371.4"/>
  <unicode hex="004A"/>
  <anchor x="199.4" y="700.0" name="top"/>
  <outline>
    <contour>
      <point x="1.2000000000000002" y="25.7" type="line"/>
      <point x="46.1" y="5.699999999999999"/>
      <point x="100.7" y="-10.0"/>
      <point x="169.0" y="-10.0" type="curve" smooth="yes"/>
      <point x="283.70000000000005" y="-10.0"/>
      <point x="346.6" y="62.9"/>
      <point x="346.6" y="206.1" type="curve" smooth="yes"/>
      <point x="346.6" y="700.0" type="line"/>
      <point x="46.7" y="700.0" type="line"/>
      <point x="46.7" y="512.9" type="line"/>
      <point x="157.10000000000002" y="512.9" type="line"/>
      <point x="157.10000000000002" y="275.1" type="line" smooth="yes"/>
      <point x="157.10000000000002" y="187.9"/>
      <point x="140.29999999999998" y="170.8"/>
      <point x="99.8" y="170.8" type="curve" smooth="yes"/>
      <point x="83.6" y="170.8"/>
      <point x="58.400000000000006" y="176.9"/>
      <point x="33.6" y="184.0" type="curve"/>
    </contour>
  </outline>
</glyph>
<glyph name="K" format="2">
  <advance width="548.75"/>
  <unicode hex="004B"/>
  <anchor x="274.25" y="700.0" name="top"/>
  <anchor x="281.25" y="0.0" name="bottom"/>
  <outline>
    <contour>
      <point x="494.25" y="-10.0" type="curve" smooth="yes"/>
      <point x="503.25" y="-10.0"/>
      <point x="511.75" y="-10.0"/>
      <point x="522.75" y="-8.0" type="curve"/>
      <point x="522.75" y="212.75" type="line"/>
      <point x="519.25" y="212.75"/>
      <point x="515.0" y="212.75"/>
      <point x="511.75" y="212.75" type="curve" smooth="yes"/>
      <point x="491.5" y="213.0"/>
      <point x="466.75" y="224.75"/>
      <point x="406.0" y="282.25" type="curve" smooth="yes"/>
      <point x="208.0" y="470.0" type="line"/>
      <point x="208.0" y="700.0" type="line"/>
      <point x="32.0" y="700.0" type="line"/>
      <point x="32.0" y="0.0" type="line"/>
      <point x="208.0" y="0.0" type="line"/>
      <point x="208.0" y="184.75" type="line"/>
      <point x="346.0" y="54.0" type="line" smooth="yes"/>
      <point x="388.75" y="13.75"/>
      <point x="432.5" y="-10.0"/>
    </contour>
    <contour>
      <point x="313.75" y="266.75" type="line"/>
      <point x="428.25" y="380.75"/>
      <point x="514.25" y="503.5"/>
      <point x="546.0" y="662.5" type="curve"/>
      <point x="381.25" y="700.5" type="line"/>
      <point x="355.5" y="577.75"/>
      <point x="266.0" y="460.25"/>
      <point x="215.25" y="410.5" type="curve"/>
    </contour>
  </outline>
</glyph>
<glyph name="L" format="2">
  <advance width="407.1"/>
  <unicode hex="004C"/>
  <anchor x="204.0" y="350.0" name="center"/>
  <anchor x="122.5" y="700.0" name="top"/>
  <anchor x="258.1" y="700.0" name="topright"/>
  <anchor x="210.9" y="0.0" name="bottom"/>
  <outline>
    <contour>
      <point x="27.299999999999997" y="0.0" type="line"/>
      <point x="394.6" y="0.0" type="line"/>
      <point x="394.6" y="184.2" type="line"/>
      <point x="217.70000000000002" y="184.2" type="line"/>
      <point x="217.70000000000002" y="700.0" type="line"/>
      <point x="27.299999999999997" y="700.0" type="line"/>
    </contour>
  </outline>
</glyph>
<glyph name="M" format="2">
  <advance width="611.2"/>
  <unicode hex="004D"/>
  <outline>
    <contour>
      <point x="27.4" y="0.0" type="line"/>
      <point x="198.2" y="0.0" type="line"/>
      <point x="198.2" y="373.15" type="line"/>
      <point x="256.8" y="126.0" type="line"/>
      <point x="351.6" y="126.0" type="line"/>
      <point x="413.0" y="374.85" type="line"/>
      <point x="413.0" y="0.0" type="line"/>
      <point x="583.8" y="0.0" type="line"/>
      <point x="583.8" y="700.0" type="line"/>
      <point x="388.75" y="700.0" type="line"/>
      <point x="308.95" y="405.65" type="line"/>
      <point x="229.7" y="700.0" type="line"/>
      <point x="27.4" y="700.0" type="line"/>
    </contour>
  </outline>
</glyph>
<glyph name="N" format="2">
  <advance width="513.25"/>
  <unicode hex="004E"/>
  <anchor x="256.75" y="700.0" name="top"/>
  <anchor x="256.75" y="0.0" name="bottom"/>
  <outline>
    <contour>
      <point x="27.25" y="0.0" type="line"/>
      <point x="194.25" y="0.0" type="line"/>
      <point x="194.25" y="289.75" type="line"/>
      <point x="293.75" y="0.0" type="line"/>
      <point x="486.0" y="0.0" type="line"/>
      <point x="486.0" y="700.0" type="line"/>
      <point x="319.25" y="700.0" type="line"/>
      <point x="319.25" y="384.25" type="line"/>
      <point x="220.5" y="700.0" type="line"/>
      <point x="27.25" y="700.0" type="line"/>
    </contour>
  </outline>
</glyph>
<glyph name="O" format="2">
  <advance width="493.25"/>
  <unicode hex="004F"/>
  <anchor x="345.5" y="10.5" name="ogonek"/>
  <anchor x="247.25" y="700.0" name="top"/>
  <anchor x="388.0" y="698.75" name="topright"/>
  <anchor x="246.5" y="0.0" name="bottom"/>
  <outline>
    <contour>
      <point x="247.25" y="163.75" type="curve" smooth="yes"/>
      <point x="213.5" y="163.75"/>
      <point x="206.25" y="193.5"/>
      <point x="206.25" y="349.25" type="curve" smooth="yes"/>
      <point x="206.25" y="504.5"/>
      <point x="214.0" y="536.25"/>
      <point x="247.25" y="536.25" type="curve" smooth="yes"/>
      <point x="282.0" y="536.25"/>
      <point x="288.0" y="505.5"/>
      <point x="288.0" y="351.0" type="curve" smooth="yes"/>
      <point x="288.0" y="196.5"/>
      <point x="281.0" y="163.75"/>
    </contour>
    <contour>
      <point x="246.5" y="-10.0" type="curve" smooth="yes"/>
      <point x="408.5" y="-10.0"/>
      <point x="481.5" y="80.75"/>
      <point x="481.5" y="352.25" type="curve" smooth="yes"/>
      <point x="481.5" y="620.25"/>
      <point x="411.25" y="710.0"/>
      <point x="247.25" y="710.0" type="curve" smooth="yes"/>
      <point x="83.25" y="710.0"/>
      <point x="11.75" y="618.5"/>
      <point x="11.75" y="348.5" type="curve" smooth="yes"/>
      <point x="11.75" y="79.0"/>
      <point x="84.5" y="-10.0"/>
    </contour>
  </outline>
</glyph>
<glyph name="P" format="2">
  <advance width="505.5"/>
  <unicode hex="0050"/>
  <outline>
    <contour>
      <point x="27.299999999999997" y="0.0" type="line"/>
      <point x="217.70000000000002" y="0.0" type="line"/>
      <point x="217.70000000000002" y="158.0" type="line"/>
      <point x="259.0" y="154.0"/>
      <point x="256.0" y="154.0"/>
      <point x="292.6" y="154.0" type="curve" smooth="yes"/>
      <point x="437.09999999999997" y="154.0"/>
      <point x="494.7" y="247.1"/>
      <point x="494.7" y="438.0" type="curve" smooth="yes"/>
      <point x="494.7" y="622.6"/>
      <point x="436.2" y="710.0"/>
      <point x="247.70000000000002" y="710.0" type="curve" smooth="yes"/>
      <point x="218.9" y="710.0"/>
      <point x="142.6" y="708.8"/>
      <point x="27.299999999999997" y="701.8000000000001" type="curve"/>
    </contour>
    <contour>
      <point x="218.6" y="535.2" type="line"/>
      <point x="239.70000000000002" y="538.3000000000001"/>
      <point x="249.9" y="538.3"/>
      <point x="261.2" y="538.3" type="curve" smooth="yes"/>
      <point x="293.70000000000005" y="538.3"/>
      <point x="303.6" y="509.8"/>
      <point x="303.6" y="448.7" type="curve" smooth="yes"/>
      <point x="303.6" y="355.0"/>
      <point x="295.09999999999997" y="323.3"/>
      <point x="248.8" y="323.3" type="curve" smooth="yes"/>
      <point x="237.6" y="323.3"/>
      <point x="230.9" y="323.4"/>
      <point x="218.6" y="325.6" type="curve"/>
    </contour>
  </outline>
</glyph>
<glyph name="Q" format="2">
  <advance width="493.4"/>
  <unicode hex="0051"/>
  <outline>
    <contour>
      <point x="390.1" y="56.7" type="curve"/>
      <point x="246.0" y="12.35" type="line"/>
      <point x="267.8" y="-107.5"/>
      <point x="304.2" y="-165.05"/>
      <point x="395.25" y="-165.05" type="curve" smooth="yes"/>
      <point x="423.45" y="-165.05"/>
      <point x="451.05" y="-159.05"/>
      <point x="472.7" y="-151.15" type="curve"/>
      <point x="453.25" y="29.65" type="line"/>
      <point x="446.1" y="26.4"/>
      <point x="437.0" y="23.7"/>
      <point x="426.75" y="23.7" type="curve" smooth="yes"/>
      <point x="408.6" y="23.7"/>
      <point x="399.25" y="39.7"/>
    </contour>
    <component base="O"/>
  </outline>
</glyph>
<glyph name="R" format="2">
  <advance width="533.25"/>
  <unicode hex="0052"/>
  <anchor x="263.75" y="700.0" name="top"/>
  <anchor x="265.75" y="0.0" name="bottom"/>
  <outline>
    <contour>
      <point x="463.75" y="-10.0" type="curve" smooth="yes"/>
      <point x="492.5" y="-10.0"/>
      <point x="507.75" y="-8.25"/>
      <point x="519.0" y="-5.5" type="curve"/>
      <point x="519.5" y="195.0" type="line"/>
      <point x="515.25" y="195.0"/>
      <point x="511.25" y="195.0"/>
      <point x="507.25" y="195.0" type="curve" smooth="yes"/>
      <point x="464.25" y="195.0"/>
      <point x="425.25" y="229.0"/>
      <point x="397.0" y="267.75" type="curve"/>
      <point x="468.75" y="295.75"/>
      <point x="497.75" y="382.0"/>
      <point x="497.75" y="479.5" type="curve" smooth="yes"/>
      <point x="497.75" y="635.5"/>
      <point x="413.5" y="709.0"/>
      <point x="264.0" y="709.0" type="curve" smooth="yes"/>
      <point x="172.25" y="709.0"/>
      <point x="105.25" y="705.0"/>
      <point x="32.0" y="698.75" type="curve"/>
      <point x="32.0" y="0.0" type="line"/>
      <point x="206.0" y="0.0" type="line"/>
      <point x="206.0" y="204.75" type="line"/>
      <point x="219.0" y="204.5"/>
      <point x="229.25" y="204.25"/>
      <point x="240.0" y="204.25" type="curve" smooth="yes"/>
      <point x="243.25" y="204.25"/>
      <point x="245.5" y="204.25"/>
      <point x="249.0" y="204.0" type="curve"/>
      <point x="319.0" y="14.75"/>
      <point x="386.25" y="-10.0"/>
    </contour>
    <contour>
      <point x="257.0" y="338.25" type="curve" smooth="yes"/>
      <point x="237.25" y="338.25"/>
      <point x="223.75" y="339.5"/>
      <point x="206.0" y="340.75" type="curve"/>
      <point x="206.0" y="537.5" type="line"/>
      <point x="228.0" y="540.75"/>
      <point x="241.75" y="541.75"/>
      <point x="258.0" y="541.75" type="curve" smooth="yes"/>
      <point x="304.75" y="541.75"/>
      <point x="321.75" y="514.25"/>
      <point x="321.75" y="450.0" type="curve" smooth="yes"/>
      <point x="321.75" y="372.25"/>
      <point x="303.0" y="338.25"/>
    </contour>
  </outline>
</glyph>
<glyph name="S" format="2">
  <advance width="468.0"/>
  <unicode hex="0053"/>
  <anchor x="235.0" y="700.0" name="top"/>
  <anchor x="226.6" y="0.0" name="bottom"/>
  <outline>
    <contour>
      <point x="442.85" y="673.6" type="line"/>
      <point x="409.6" y="690.75"/>
      <point x="324.05" y="710.0"/>
      <point x="252.25" y="710.0" type="curve" smooth="yes"/>
      <point x="64.75" y="710.0"/>
      <point x="10.05" y="596.9"/>
      <point x="10.05" y="493.85" type="curve" smooth="yes"/>
      <point x="10.05" y="390.75"/>
      <point x="52.75" y="332.3"/>
      <point x="130.8" y="292.8" type="curve" smooth="yes"/>
      <point x="219.9" y="250.25"/>
      <point x="269.7" y="234.8"/>
      <point x="269.7" y="202.45" type="curve" smooth="yes"/>
      <point x="269.7" y="177.15"/>
      <point x="250.15" y="160.3"/>
      <point x="202.05" y="160.3" type="curve" smooth="yes"/>
      <point x="160.3" y="160.3"/>
      <point x="104.15" y="170.6"/>
      <point x="36.55" y="194.5" type="curve"/>
      <point x="0.34999999999999964" y="33.55" type="line"/>
      <point x="74.95" y="-0.30000000000000027"/>
      <point x="147.85" y="-10.0"/>
      <point x="205.35" y="-10.0" type="curve" smooth="yes"/>
      <point x="381.75" y="-10.0"/>
      <point x="460.15" y="85.3"/>
      <point x="460.15" y="212.0" type="curve" smooth="yes"/>
      <point x="460.15" y="323.9"/>
      <point x="409.55" y="376.45"/>
      <point x="318.95" y="413.5" type="curve" smooth="yes"/>
      <point x="238.3" y="446.25"/>
      <point x="204.0" y="461.2"/>
      <point x="204.0" y="492.15" type="curve" smooth="yes"/>
      <point x="204.0" y="521.65"/>
      <point x="225.9" y="533.65"/>
      <point x="268.35" y="533.65" type="curve" smooth="yes"/>
      <point x="308.05" y="533.65"/>
      <point x="359.8" y="527.65"/>
      <point x="406.4" y="510.0" type="curve"/>
    </contour>
  </outline>
</glyph>
<glyph name="T" format="2">
  <advance width="464.8"/>
  <unicode hex="0054"/>
  <anchor x="232.4" y="700.0" name="top"/>
  <anchor x="232.4" y="0.0" name="bottom"/>
  <outline>
    <contour>
      <point x="452.3" y="512.2" type="line"/>
      <point x="452.3" y="700.0" type="line"/>
      <point x="12.5" y="700.0" type="line"/>
      <point x="12.5" y="512.2" type="line"/>
      <point x="138.1" y="512.2" type="line"/>
      <point x="138.1" y="0.0" type="line"/>
      <point x="327.6" y="0.0" type="line"/>
      <point x="327.6" y="512.2" type="line"/>
    </contour>
  </outline>
</glyph>
<glyph name="U" format="2">
  <advance width="499.29999999999995"/>
  <unicode hex="0055"/>
  <anchor x="338.90000000000003" y="1.8" name="ogonek"/>
  <anchor x="250.10000000000002" y="700.0" name="top"/>
  <anchor x="474.5" y="700.0" name="topright"/>
  <anchor x="250.10000000000002" y="0.0" name="bottom"/>
  <outline>
    <contour>
      <point x="24.799999999999997" y="212.79999999999998" type="line"/>
      <point x="24.799999999999997" y="52.6"/>
      <point x="101.69999999999999" y="-10.0"/>
      <point x="248.29999999999998" y="-10.0" type="curve" smooth="yes"/>
      <point x="401.20000000000005" y="-10.0"/>
      <point x="474.5" y="52.6"/>
      <point x="474.5" y="212.79999999999998" type="curve" smooth="yes"/>
      <point x="474.5" y="700.0" type="line"/>
      <point x="284.0" y="700.0" type="line"/>
      <point x="284.0" y="193.5" type="line" smooth="yes"/>
      <point x="284.0" y="173.0"/>
      <point x="275.20000000000005" y="161.1"/>
      <point x="248.6" y="161.1" type="curve" smooth="yes"/>
      <point x="223.6" y="161.1"/>
      <point x="213.5" y="172.1"/>
      <point x="213.5" y="193.5" type="curve" smooth="yes"/>
      <point x="213.5" y="700.0" type="line"/>
      <point x="24.799999999999997" y="700.0" type="line"/>
    </contour>
  </outline>
</glyph>
<glyph name="V" format="2">
  <advance width="508.3"/>
  <unicode hex="0056"/>
  <outline>
    <contour>
      <point x="133.1" y="0.0" type="line"/>
      <point x="381.5" y="0.0" type="line"/>
      <point x="510.8" y="700.0" type="line"/>
      <point x="302.6" y="700.1" type="line"/>
      <point x="257.5" y="167.25" type="line"/>
      <point x="207.0" y="700.1" type="line"/>
      <point x="-2.5" y="700.0" type="line"/>
    </contour>
  </outline>
</glyph>
<glyph name="W" format="2">
  <advance width="649.25"/>
  <unicode hex="0057"/>
  <anchor x="325.0" y="700.0" name="top"/>
  <anchor x="325.0" y="0.0" name="bottom"/>
  <outline>
    <contour>
      <point x="557.7" y="0.0" type="line"/>
      <point x="651.35" y="700.05" type="line"/>
      <point x="443.7" y="700.05" type="line"/>
      <point x="440.85" y="183.05" type="line"/>
      <point x="398.35" y="645.85" type="line"/>
      <point x="252.0" y="645.85" type="line"/>
      <point x="207.8" y="183.65" type="line"/>
      <point x="204.95" y="700.05" type="line"/>
      <point x="-2.1" y="700.05" type="line"/>
      <point x="90.3" y="0.0" type="line"/>
      <point x="291.5" y="0.0" type="line"/>
      <point x="324.45" y="354.25" type="line"/>
      <point x="353.65" y="0.0" type="line"/>
    </contour>
  </outline>
</glyph>
<glyph name="X" format="2">
  <advance width="524.7"/>
  <unicode hex="0058"/>
  <outline>
    <contour>
      <point x="-4.8" y="-0.10000000000000009" type="line"/>
      <point x="225.3" y="-0.09999999999999998" type="line"/>
      <point x="264.65" y="238.45" type="line"/>
      <point x="302.0" y="-0.09999999999999998" type="line"/>
      <point x="529.65" y="-0.10000000000000009" type="line"/>
      <point x="409.0" y="356.4" type="line"/>
      <point x="520.9" y="700.1" type="line"/>
      <point x="299.15" y="700.1" type="line"/>
      <point x="263.2" y="470.0" type="line"/>
      <point x="228.7" y="700.1" type="line"/>
      <point x="6.05" y="700.1" type="line"/>
      <point x="116.95" y="353.8" type="line"/>
    </contour>
  </outline>
</glyph>
<glyph name="Y" format="2">
  <advance width="509.20000000000005"/>
  <unicode hex="0059"/>
  <anchor x="254.6" y="700.0" name="top"/>
  <anchor x="254.60000000000002" y="0.0" name="bottom"/>
  <outline>
    <contour>
      <point x="159.39999999999998" y="0.0" type="line"/>
      <point x="348.9" y="0.0" type="line"/>
      <point x="348.9" y="209.8" type="line"/>
      <point x="511.8" y="700.0" type="line"/>
      <point x="295.3" y="700.0" type="line"/>
      <point x="254.79999999999998" y="339.3" type="line"/>
      <point x="214.3" y="700.0" type="line"/>
      <point x="-2.6" y="700.0" type="line"/>
      <point x="159.39999999999998" y="209.8" type="line"/>
    </contour>
  </outline>
</glyph>
<glyph name="Z" format="2">
  <advance width="463.5"/>
  <unicode hex="005A"/>
  <anchor x="231.0" y="350.0" name="center"/>
  <anchor x="231.0" y="0.0" name="bottom"/>
  <anchor x="236.4" y="700.0" name="top"/>
  <outline>
    <contour>
      <point x="12.7" y="0.0" type="line"/>
      <point x="448.09999999999997" y="0.0" type="line"/>
      <point x="448.09999999999997" y="175.79999999999998" type="line"/>
      <point x="224.89999999999998" y="175.79999999999998" type="line"/>
      <point x="224.89999999999998" y="176.9" type="line"/>
      <point x="444.09999999999997" y="519.0" type="line"/>
      <point x="444.09999999999997" y="700.0" type="line"/>
      <point x="24.4" y="700.0" type="line"/>
      <point x="24.4" y="524.1999999999999" type="line"/>
      <point x="234.5" y="524.1999999999999" type="line"/>
      <point x="234.5" y="523.1" type="line"/>
      <point x="12.7" y="181.0" type="line"/>
    </contour>
  </outline>
</glyph>
<glyph name="backslash" format="2">
  <advance width="415.5"/>
  <unicode hex="005C"/>
  <outline>
    <contour>
      <point x="149.5" y="740.0" type="line"/>
      <point x="-7.999999999999999" y="740.0" type="line"/>
      <point x="266.90000000000003" y="-210.0" type="line"/>
      <point x="423.5" y="-210.0" type="line"/>
    </contour>
  </outline>
</glyph>
<glyph name="bracketright" format="2">
  <advance width="265.1"/>
  <unicode hex="005D"/>
  <outline>
    <contour>
      <point x="11.0" y="-61.0" type="line"/>
      <point x="11.0" y="-210.0" type="line"/>
      <point x="248.7" y="-210.0" type="line"/>
      <point x="248.7" y="740.0" type="line"/>
      <point x="11.0" y="740.0" type="line"/>
      <point x="11.0" y="591.0" type="line"/>
      <point x="106.0" y="591.0" type="line"/>
      <point x="106.0" y="-61.0" type="line"/>
    </contour>
  </outline>
</glyph>
<glyph name="asciicircum" format="2">
  <advance width="456.2"/>
  <unicode hex="005E"/>
  <outline>
    <contour>
      <point x="50.1" y="238.0" type="line"/>
      <point x="186.10000000000002" y="238.0" type="line"/>
      <point x="228.1" y="505.09999999999997" type="line"/>
      <point x="271.09999999999997" y="238.0" type="line"/>
      <point x="406.09999999999997" y="238.0" type="line"/>
      <point x="320.2" y="700.0" type="line"/>
      <point x="136.0" y="700.0" type="line"/>
    </contour>
  </outline>
</glyph>
<glyph name="underscore" format="2">
  <advance width="667.4000000000001"/>
  <unicode hex="005F"/>
  <outline>
    <contour>
      <point x="20.0" y="-209.1" type="line"/>
      <point x="647.4000000000001" y="-209.1" type="line"/>
      <point x="647.4000000000001" y="-41.1" type="line"/>
      <point x="20.0" y="-41.1" type="line"/>
    </contour>
  </outline>
</glyph>
<glyph name="a" format="2">
  <advance width="472.75"/>
  <unicode hex="0061"/>
  <anchor x="467.5" y="15.0" name="ogonek"/>
  <anchor x="238.5" y="0.0" name="bottom"/>
  <anchor x="228.25" y="550.0" name="top"/>
  <outline>
    <contour>
      <point x="11.0" y="165.5" type="curve" smooth="yes"/>
      <point x="11.0" y="78.75"/>
      <point x="44.75" y="-10.0"/>
      <point x="138.0" y="-10.0" type="curve" smooth="yes"/>
      <point x="200.25" y="-10.0"/>
      <point x="233.25" y="9.0"/>
      <point x="266.25" y="42.0" type="curve"/>
      <point x="285.25" y="7.0"/>
      <point x="314.25" y="-10.0"/>
      <point x="367.5" y="-10.0" type="curve" smooth="yes"/>
      <point x="414.0" y="-10.0"/>
      <point x="443.25" y="2.0"/>
      <point x="467.5" y="15.0" type="curve"/>
      <point x="456.75" y="175.0" type="line"/>
      <point x="453.5" y="174.0"/>
      <point x="447.25" y="173.0"/>
      <point x="442.75" y="173.0" type="curve" smooth="yes"/>
      <point x="434.75" y="173.0"/>
      <point x="426.5" y="179.0"/>
      <point x="426.5" y="207.25" type="curve" smooth="yes"/>
      <point x="426.5" y="342.25" type="line" smooth="yes"/>
      <point x="426.5" y="480.25"/>
      <point x="364.75" y="560.0"/>
      <point x="204.5" y="560.0" type="curve" smooth="yes"/>
      <point x="154.5" y="560.0"/>
      <point x="79.75" y="545.0"/>
      <point x="28.75" y="524.0" type="curve"/>
      <point x="65.5" y="356.5" type="line"/>
      <point x="128.75" y="376.25"/>
      <point x="161.25" y="380.0"/>
      <point x="188.75" y="380.0" type="curve" smooth="yes"/>
      <point x="225.25" y="380.0"/>
      <point x="254.75" y="366.5"/>
      <point x="254.75" y="339.25" type="curve" smooth="yes"/>
      <point x="254.75" y="346.75" type="line"/>
      <point x="94.5" y="328.75"/>
      <point x="11.0" y="296.25"/>
    </contour>
    <contour>
      <point x="182.0" y="183.5" type="curve" smooth="yes"/>
      <point x="182.0" y="231.75"/>
      <point x="207.5" y="238.75"/>
      <point x="254.75" y="239.75" type="curve"/>
      <point x="254.75" y="139.5" type="line"/>
      <point x="241.25" y="129.0"/>
      <point x="222.0" y="125.0"/>
      <point x="209.75" y="125.0" type="curve" smooth="yes"/>
      <point x="194.5" y="125.0"/>
      <point x="182.0" y="137.0"/>
    </contour>
  </outline>
</glyph>
<glyph name="b" format="2">
  <advance width="466.4"/>
  <unicode hex="0062"/>
  <outline>
    <contour>
      <point x="22.5" y="19.4" type="line"/>
      <point x="83.2" y="1.9"/>
      <point x="158.9" y="-10.0"/>
      <point x="216.0" y="-10.0" type="curve" smooth="yes"/>
      <point x="389.29999999999995" y="-10.0"/>
      <point x="454.5" y="71.6"/>
      <point x="454.5" y="292.5" type="curve" smooth="yes"/>
      <point x="454.5" y="476.70000000000005"/>
      <point x="405.7" y="560.0"/>
      <point x="300.2" y="560.0" type="curve" smooth="yes"/>
      <point x="271.70000000000005" y="560.0"/>
      <point x="235.6" y="548.0"/>
      <point x="210.0" y="530.4" type="curve"/>
      <point x="210.0" y="740.0" type="line"/>
      <point x="22.5" y="740.0" type="line"/>
    </contour>
    <contour>
      <point x="210.0" y="143.7" type="curve"/>
      <point x="210.0" y="377.7" type="line"/>
      <point x="219.1" y="383.1"/>
      <point x="226.7" y="385.8"/>
      <point x="234.2" y="385.8" type="curve" smooth="yes"/>
      <point x="251.5" y="385.8"/>
      <point x="256.7" y="366.8"/>
      <point x="256.7" y="272.2" type="curve" smooth="yes"/>
      <point x="256.7" y="160.79999999999998"/>
      <point x="250.50000000000003" y="139.5"/>
      <point x="230.70000000000002" y="139.5" type="curve" smooth="yes"/>
      <point x="224.10000000000002" y="139.5"/>
      <point x="217.2" y="140.9"/>
    </contour>
  </outline>
</glyph>
<glyph name="c" format="2">
  <advance width="398.90000000000003"/>
  <unicode hex="0063"/>
  <anchor x="241.8" y="550.0" name="top"/>
  <anchor x="247.79999999999998" y="0.0" name="bottom"/>
  <outline>
    <contour>
      <point x="11.9" y="272.90000000000003" type="curve" smooth="yes"/>
      <point x="11.9" y="83.9"/>
      <point x="83.0" y="-10.0"/>
      <point x="232.29999999999998" y="-10.0" type="curve" smooth="yes"/>
      <point x="289.2" y="-10.0"/>
      <point x="356.7" y="2.0"/>
      <point x="392.79999999999995" y="16.900000000000002" type="curve"/>
      <point x="356.5" y="193.20000000000002" type="line"/>
      <point x="327.6" y="186.2"/>
      <point x="305.0" y="182.0"/>
      <point x="280.3" y="182.0" type="curve" smooth="yes"/>
      <point x="233.4" y="182.0"/>
      <point x="209.7" y="215.8"/>
      <point x="209.7" y="280.4" type="curve" smooth="yes"/>
      <point x="209.7" y="339.9"/>
      <point x="233.10000000000002" y="366.59999999999997"/>
      <point x="282.6" y="366.59999999999997" type="curve" smooth="yes"/>
      <point x="308.4" y="366.59999999999997"/>
      <point x="332.20000000000005" y="364.0"/>
      <point x="354.6" y="357.8" type="curve"/>
      <point x="385.5" y="541.7" type="line"/>
      <point x="354.7" y="552.6"/>
      <point x="298.4" y="560.0"/>
      <point x="245.2" y="560.0" type="curve" smooth="yes"/>
      <point x="90.1" y="560.0"/>
      <point x="11.9" y="461.79999999999995"/>
    </contour>
  </outline>
</glyph>
<glyph name="d" format="2">
  <advance width="467.4"/>
  <unicode hex="0064"/>
  <anchor x="232.4" y="275.0" name="center"/>
  <anchor x="226.5" y="740.0" name="top"/>
  <anchor x="475.9" y="740.0" name="topright"/>
  <anchor x="232.4" y="0.0" name="bottom"/>
  <outline>
    <contour>
      <point x="276.3" y="-0.4" type="line"/>
      <point x="444.9" y="-0.4" type="line"/>
      <point x="444.9" y="740.0" type="line"/>
      <point x="256.5" y="740.0" type="line"/>
      <point x="256.5" y="555.2" type="line"/>
      <point x="243.7" y="558.0999999999999"/>
      <point x="225.5" y="560.0"/>
      <point x="211.7" y="560.0" type="curve" smooth="yes"/>
      <point x="80.69999999999999" y="560.0"/>
      <point x="11.9" y="456.8"/>
      <point x="11.9" y="265.6" type="curve" smooth="yes"/>
      <point x="11.9" y="83.3"/>
      <point x="62.6" y="-10.0"/>
      <point x="160.8" y="-10.0" type="curve" smooth="yes"/>
      <point x="197.4" y="-10.0"/>
      <point x="234.4" y="2.0"/>
      <point x="260.9" y="21.4" type="curve"/>
    </contour>
    <contour>
      <point x="256.4" y="166.9" type="line"/>
      <point x="250.0" y="164.2"/>
      <point x="240.6" y="161.5"/>
      <point x="234.0" y="161.5" type="curve" smooth="yes"/>
      <point x="215.79999999999998" y="161.5"/>
      <point x="210.6" y="185.0"/>
      <point x="210.6" y="293.1" type="curve" smooth="yes"/>
      <point x="210.6" y="389.2"/>
      <point x="216.8" y="407.8"/>
      <point x="235.7" y="407.8" type="curve" smooth="yes"/>
      <point x="243.29999999999998" y="407.8"/>
      <point x="249.2" y="406.40000000000003"/>
      <point x="256.4" y="400.90000000000003" type="curve"/>
    </contour>
  </outline>
</glyph>
<glyph name="e" format="2">
  <advance width="451.7"/>
  <unicode hex="0065"/>
  <anchor x="385.9" y="11.200000000000001" name="ogonek"/>
  <anchor x="227.7" y="0.0" name="bottom"/>
  <anchor x="233.4" y="550.0" name="top"/>
  <outline>
    <contour>
      <point x="232.9" y="-10.0" type="curve" smooth="yes"/>
      <point x="311.4" y="-10.0"/>
      <point x="371.1" y="1.6999999999999993"/>
      <point x="435.1" y="27.8" type="curve"/>
      <point x="410.6" y="182.20000000000002" type="line"/>
      <point x="365.8" y="171.1"/>
      <point x="319.9" y="161.4"/>
      <point x="280.2" y="161.4" type="curve" smooth="yes"/>
      <point x="218.1" y="161.4"/>
      <point x="205.0" y="178.3"/>
      <point x="204.8" y="200.1" type="curve" smooth="yes"/>
      <point x="204.8" y="202.9"/>
      <point x="204.79999999999998" y="204.70000000000002"/>
      <point x="204.79999999999998" y="207.5" type="curve"/>
      <point x="264.1" y="210.70000000000002"/>
      <point x="378.2" y="223.3"/>
      <point x="435.59999999999997" y="230.1" type="curve"/>
      <point x="436.7" y="250.9"/>
      <point x="437.59999999999997" y="282.5"/>
      <point x="437.59999999999997" y="297.7" type="curve" smooth="yes"/>
      <point x="437.59999999999997" y="484.1"/>
      <point x="377.90000000000003" y="560.0"/>
      <point x="238.5" y="560.0" type="curve" smooth="yes"/>
      <point x="90.0" y="560.0"/>
      <point x="11.9" y="476.59999999999997"/>
      <point x="11.9" y="267.09999999999997" type="curve" smooth="yes"/>
      <point x="11.9" y="74.2"/>
      <point x="88.10000000000001" y="-10.0"/>
    </contour>
    <contour>
      <point x="204.9" y="320.20000000000005" type="curve"/>
      <point x="206.5" y="398.4"/>
      <point x="213.0" y="412.7"/>
      <point x="228.9" y="412.7" type="curve" smooth="yes"/>
      <point x="244.60000000000002" y="412.7"/>
      <point x="252.20000000000002" y="399.2"/>
      <point x="253.00000000000003" y="322.5" type="curve"/>
      <point x="237.29999999999998" y="321.40000000000003"/>
      <point x="217.0" y="320.40000000000003"/>
    </contour>
  </outline>
</glyph>
<glyph name="f" format="2">
  <advance width="315.0"/>
  <unicode hex="0066"/>
  <outline>
    <contour>
      <point x="55.0" y="0.0" type="line"/>
      <point x="238.5" y="0.0" type="line"/>
      <point x="238.5" y="371.59999999999997" type="line"/>
      <point x="299.1" y="371.59999999999997" type="line"/>
      <point x="299.1" y="524.5" type="line"/>
      <point x="239.4" y="524.5" type="line"/>
      <point x="239.4" y="537.1999999999999" type="line" smooth="yes"/>
      <point x="239.4" y="572.8000000000001"/>
      <point x="252.20000000000002" y="585.4"/>
      <point x="277.2" y="585.4" type="curve" smooth="yes"/>
      <point x="289.59999999999997" y="585.4"/>
      <point x="304.09999999999997" y="582.8"/>
      <point x="323.8" y="576.5" type="curve"/>
      <point x="351.3" y="720.6" type="line"/>
      <point x="308.5" y="741.6"/>
      <point x="270.20000000000005" y="750.0"/>
      <point x="225.20000000000002" y="750.0" type="curve" smooth="yes"/>
      <point x="113.8" y="750.0"/>
      <point x="55.0" y="674.2"/>
      <point x="55.0" y="539.6" type="curve" smooth="yes"/>
      <point x="55.0" y="524.5" type="line"/>
      <point x="5.9" y="516.2" type="line"/>
      <point x="5.9" y="371.59999999999997" type="line"/>
      <point x="55.0" y="371.59999999999997" type="line"/>
    </contour>
  </outline>
</glyph>
<glyph name="g" format="2">
  <advance width="466.3"/>
  <unicode hex="0067"/>
  <anchor x="210.1" y="550.0" name="top"/>
  <anchor x="228.1" y="-211.0" name="bottom"/>
  <outline>
    <contour>
      <point x="205.20000000000002" y="-220.0" type="curve" smooth="yes"/>
      <point x="362.5" y="-220.0"/>
      <point x="448.4" y="-143.7"/>
      <point x="448.4" y="-16.0" type="curve" smooth="yes"/>
      <point x="448.4" y="81.7"/>
      <point x="394.0" y="138.7"/>
      <point x="300.4" y="138.7" type="curve" smooth="yes"/>
      <point x="182.7" y="138.7" type="line" smooth="yes"/>
      <point x="160.3" y="138.7"/>
      <point x="148.3" y="146.5"/>
      <point x="148.3" y="162.5" type="curve" smooth="yes"/>
      <point x="148.3" y="178.4"/>
      <point x="153.5" y="186.7"/>
      <point x="170.79999999999998" y="197.9" type="curve"/>
      <point x="79.7" y="219.0" type="line"/>
      <point x="46.0" y="195.5"/>
      <point x="19.8" y="158.6"/>
      <point x="19.8" y="101.3" type="curve" smooth="yes"/>
      <point x="19.8" y="26.5"/>
      <point x="77.6" y="-22.099999999999998"/>
      <point x="169.9" y="-22.099999999999998" type="curve" smooth="yes"/>
      <point x="247.3" y="-22.099999999999998" type="line" smooth="yes"/>
      <point x="272.9" y="-22.099999999999998"/>
      <point x="277.4" y="-25.700000000000003"/>
      <point x="277.4" y="-38.1" type="curve" smooth="yes"/>
      <point x="277.4" y="-52.9"/>
      <point x="255.2" y="-61.1"/>
      <point x="213.6" y="-61.1" type="curve" smooth="yes"/>
      <point x="153.79999999999998" y="-61.1"/>
      <point x="136.29999999999998" y="-55.2"/>
      <point x="136.29999999999998" y="-35.099999999999994" type="curve" smooth="yes"/>
      <point x="136.29999999999998" y="-22.2"/>
      <point x="140.6" y="-17.2"/>
      <point x="154.9" y="-11.5" type="curve"/>
      <point x="66.89999999999999" y="26.7" type="line"/>
      <point x="31.000000000000004" y="9.0"/>
      <point x="1.8" y="-26.9"/>
      <point x="1.8" y="-84.10000000000001" type="curve" smooth="yes"/>
      <point x="1.8" y="-174.5"/>
      <point x="72.9" y="-220.0"/>
    </contour>
    <contour>
      <point x="211.0" y="163.10000000000002" type="curve" smooth="yes"/>
      <point x="341.7" y="163.10000000000002"/>
      <point x="408.8" y="230.4"/>
      <point x="408.8" y="361.6" type="curve" smooth="yes"/>
      <point x="408.8" y="492.8"/>
      <point x="341.7" y="560.1"/>
      <point x="211.0" y="560.1" type="curve" smooth="yes"/>
      <point x="80.30000000000001" y="560.1"/>
      <point x="13.200000000000001" y="492.8"/>
      <point x="13.200000000000001" y="361.6" type="curve" smooth="yes"/>
      <point x="13.200000000000001" y="230.4"/>
      <point x="80.30000000000001" y="163.10000000000002"/>
    </contour>
    <contour>
      <point x="211.0" y="291.5" type="curve" smooth="yes"/>
      <point x="195.0" y="291.5"/>
      <point x="188.7" y="303.2"/>
      <point x="188.7" y="361.6" type="curve" smooth="yes"/>
      <point x="188.7" y="420.0"/>
      <point x="195.0" y="431.7"/>
      <point x="211.0" y="431.7" type="curve" smooth="yes"/>
      <point x="227.0" y="431.7"/>
      <point x="233.29999999999998" y="420.0"/>
      <point x="233.29999999999998" y="361.6" type="curve" smooth="yes"/>
      <point x="233.29999999999998" y="303.2"/>
      <point x="227.0" y="291.5"/>
    </contour>
    <contour>
      <point x="382.0" y="393.8" type="line"/>
      <point x="389.5" y="409.2"/>
      <point x="400.70000000000005" y="418.5"/>
      <point x="414.1" y="418.5" type="curve" smooth="yes"/>
      <point x="425.8" y="418.5"/>
      <point x="434.59999999999997" y="416.5"/>
      <point x="443.6" y="414.3" type="curve"/>
      <point x="471.1" y="575.2" type="line"/>
      <point x="454.90000000000003" y="583.6"/>
      <point x="433.0" y="589.0999999999999"/>
      <point x="411.3" y="589.0999999999999" type="curve" smooth="yes"/>
      <point x="369.0" y="589.0999999999999"/>
      <point x="337.9" y="568.3000000000001"/>
      <point x="315.0" y="520.9" type="curve"/>
    </contour>
  </outline>
</glyph>
<glyph name="h" format="2">
  <advance width="463.59999999999997"/>
  <unicode hex="0068"/>
  <anchor x="230.79999999999998" y="395.0" name="center"/>
  <anchor x="231.79999999999998" y="0.0" name="bottom"/>
  <anchor x="237.1" y="740.0" name="top"/>
  <outline>
    <contour>
      <point x="22.5" y="0.0" type="line"/>
      <point x="210.0" y="0.0" type="line"/>
      <point x="210.0" y="374.7" type="line"/>
      <point x="219.5" y="380.5"/>
      <point x="226.6" y="383.2"/>
      <point x="235.8" y="383.2" type="curve" smooth="yes"/>
      <point x="244.2" y="383.2"/>
      <point x="254.5" y="378.8"/>
      <point x="254.5" y="358.3" type="curve" smooth="yes"/>
      <point x="254.5" y="0.0" type="line"/>
      <point x="442.9" y="0.0" type="line"/>
      <point x="442.9" y="414.09999999999997" type="line" smooth="yes"/>
      <point x="442.9" y="515.9000000000001"/>
      <point x="397.3" y="560.0"/>
      <point x="321.0" y="560.0" type="curve" smooth="yes"/>
      <point x="285.8" y="560.0"/>
      <point x="245.6" y="546.4"/>
      <point x="210.0" y="512.7" type="curve"/>
      <point x="210.0" y="740.0" type="line"/>
      <point x="22.5" y="740.0" type="line"/>
    </contour>
  </outline>
</glyph>
<glyph name="i" format="2">
  <advance width="232.5"/>
  <unicode hex="0069"/>
  <anchor x="210.0" y="0.0" name="ogonek"/>
  <anchor x="116.7" y="0.0" name="bottom"/>
  <outline>
    <contour>
      <point x="116.7" y="569.1" type="curve" smooth="yes"/>
      <point x="187.29999999999998" y="569.1"/>
      <point x="222.9" y="606.2"/>
      <point x="222.9" y="679.1" type="curve" smooth="yes"/>
      <point x="222.9" y="753.8"/>
      <point x="185.5" y="790.0"/>
      <point x="116.7" y="790.0" type="curve" smooth="yes"/>
      <point x="47.0" y="790.0"/>
      <point x="9.599999999999998" y="753.8"/>
      <point x="9.599999999999998" y="679.1" type="curve" smooth="yes"/>
      <point x="9.599999999999998" y="605.3"/>
      <point x="47.0" y="569.1"/>
    </contour>
    <contour>
      <point x="22.5" y="0.0" type="line"/>
      <point x="210.0" y="0.0" type="line"/>
      <point x="210.0" y="550.0" type="line"/>
      <point x="22.5" y="550.0" type="line"/>
    </contour>
  </outline>
</glyph>
<glyph name="j" format="2">
  <advance width="235.3"/>
  <unicode hex="006A"/>
  <outline>
    <contour>
      <point x="212.8" y="550.0" type="line"/>
      <point x="25.299999999999997" y="550.0" type="line"/>
      <point x="25.299999999999997" y="27.4" type="line" smooth="yes"/>
      <point x="25.299999999999997" y="-17.599999999999998"/>
      <point x="16.1" y="-30.6"/>
      <point x="-10.5" y="-30.6" type="curve" smooth="yes"/>
      <point x="-21.8" y="-30.599999999999998"/>
      <point x="-31.3" y="-27.9"/>
      <point x="-45.3" y="-23.4" type="curve"/>
      <point x="-70.60000000000001" y="-203.29999999999998" type="line"/>
      <point x="-35.199999999999996" y="-214.3"/>
      <point x="-0.6999999999999998" y="-220.0"/>
      <point x="29.2" y="-220.0" type="curve" smooth="yes"/>
      <point x="163.20000000000002" y="-220.0"/>
      <point x="212.8" y="-142.8"/>
      <point x="212.8" y="12.3" type="curve" smooth="yes"/>
    </contour>
    <contour>
      <point x="119.5" y="569.1" type="curve" smooth="yes"/>
      <point x="190.1" y="569.1"/>
      <point x="225.7" y="606.2"/>
      <point x="225.7" y="679.1" type="curve" smooth="yes"/>
      <point x="225.7" y="753.8"/>
      <point x="188.3" y="790.0"/>
      <point x="119.5" y="790.0" type="curve" smooth="yes"/>
      <point x="49.8" y="790.0"/>
      <point x="12.4" y="753.8"/>
      <point x="12.4" y="679.1" type="curve" smooth="yes"/>
      <point x="12.4" y="605.3"/>
      <point x="49.8" y="569.1"/>
    </contour>
  </outline>
</glyph>
<glyph name="k" format="2">
  <advance width="456.25"/>
  <unicode hex="006B"/>
  <anchor x="109.0" y="740.0" name="top"/>
  <anchor x="231.5" y="0.0" name="bottom"/>
  <outline>
    <contour>
      <point x="397.5" y="-10.5" type="curve" smooth="yes"/>
      <point x="412.25" y="-10.5"/>
      <point x="426.25" y="-9.5"/>
      <point x="442.5" y="-5.75" type="curve"/>
      <point x="442.25" y="182.5" type="line"/>
      <point x="439.0" y="182.5"/>
      <point x="437.0" y="182.5"/>
      <point x="434.25" y="182.5" type="curve" smooth="yes"/>
      <point x="404.0" y="182.5"/>
      <point x="376.25" y="201.0"/>
      <point x="308.25" y="288.75" type="curve" smooth="yes"/>
      <point x="191.0" y="440.25" type="line"/>
      <point x="191.0" y="740.0" type="line"/>
      <point x="27.0" y="740.0" type="line"/>
      <point x="27.0" y="0.0" type="line"/>
      <point x="191.0" y="0.0" type="line"/>
      <point x="191.0" y="161.25" type="line"/>
      <point x="262.5" y="72.0" type="line" smooth="yes"/>
      <point x="312.25" y="10.0"/>
      <point x="346.25" y="-10.5"/>
    </contour>
    <contour>
      <point x="291.0" y="214.75" type="line"/>
      <point x="376.0" y="324.0"/>
      <point x="440.75" y="453.25"/>
      <point x="453.25" y="548.5" type="curve"/>
      <point x="285.5" y="559.0" type="line"/>
      <point x="279.25" y="467.0"/>
      <point x="246.75" y="404.5"/>
      <point x="183.75" y="327.25" type="curve"/>
    </contour>
  </outline>
</glyph>
<glyph name="l" format="2">
  <advance width="266.3"/>
  <unicode hex="006C"/>
  <anchor x="133.5" y="395.0" name="center"/>
  <anchor x="116.7" y="740.0" name="top"/>
  <anchor x="241.0" y="740.0" name="topright"/>
  <anchor x="145.4" y="0.0" name="bottom"/>
  <outline>
    <contour>
      <point x="210.0" y="740.0" type="line"/>
      <point x="22.5" y="740.0" type="line"/>
      <point x="22.5" y="183.7" type="line" smooth="yes"/>
      <point x="22.5" y="46.0"/>
      <point x="69.3" y="-10.0"/>
      <point x="172.89999999999998" y="-10.0" type="curve" smooth="yes"/>
      <point x="212.70000000000002" y="-10.0"/>
      <point x="247.1" y="4.0"/>
      <point x="267.59999999999997" y="16.9" type="curve"/>
      <point x="255.20000000000002" y="174.1" type="line"/>
      <point x="247.0" y="172.29999999999998"/>
      <point x="239.0" y="170.9"/>
      <point x="233.29999999999998" y="170.9" type="curve" smooth="yes"/>
      <point x="219.3" y="170.9"/>
      <point x="210.0" y="178.1"/>
      <point x="210.0" y="209.4" type="curve" smooth="yes"/>
    </contour>
  </outline>
</glyph>
<glyph name="m" format="2">
  <advance width="690.4"/>
  <unicode hex="006D"/>
  <outline>
    <contour>
      <point x="22.5" y="0.0" type="line"/>
      <point x="210.9" y="0.0" type="line"/>
      <point x="210.9" y="374.7" type="line"/>
      <point x="218.20000000000002" y="379.40000000000003"/>
      <point x="225.29999999999998" y="382.7"/>
      <point x="233.7" y="382.7" type="curve" smooth="yes"/>
      <point x="242.2" y="382.7"/>
      <point x="251.9" y="377.6"/>
      <point x="251.9" y="358.3" type="curve" smooth="yes"/>
      <point x="251.9" y="0.0" type="line"/>
      <point x="440.3" y="0.0" type="line"/>
      <point x="440.3" y="368.9" type="line" smooth="yes"/>
      <point x="440.3" y="370.5"/>
      <point x="440.3" y="373.1"/>
      <point x="440.2" y="374.7" type="curve"/>
      <point x="448.4" y="379.6"/>
      <point x="455.3" y="382.8"/>
      <point x="463.5" y="382.8" type="curve" smooth="yes"/>
      <point x="471.9" y="382.8"/>
      <point x="481.3" y="377.8"/>
      <point x="481.3" y="358.3" type="curve" smooth="yes"/>
      <point x="481.3" y="0.0" type="line"/>
      <point x="669.7" y="0.0" type="line"/>
      <point x="669.7" y="418.6" type="line" smooth="yes"/>
      <point x="669.7" y="509.3"/>
      <point x="629.2" y="560.0"/>
      <point x="551.0" y="560.0" type="curve" smooth="yes"/>
      <point x="510.1" y="560.0"/>
      <point x="469.7" y="550.0"/>
      <point x="417.9" y="509.20000000000005" type="curve"/>
      <point x="399.0" y="542.3"/>
      <point x="367.7" y="560.0"/>
      <point x="320.1" y="560.0" type="curve" smooth="yes"/>
      <point x="280.6" y="560.0"/>
      <point x="238.9" y="549.6"/>
      <point x="192.5" y="511.2" type="curve"/>
      <point x="192.5" y="550.0" type="line"/>
      <point x="22.5" y="550.0" type="line"/>
    </contour>
  </outline>
</glyph>
<glyph name="n" format="2">
  <advance width="464.5"/>
  <unicode hex="006E"/>
  <anchor x="231.7" y="550.0" name="top"/>
  <anchor x="231.7" y="0.0" name="bottom"/>
  <outline>
    <contour>
      <point x="22.5" y="0.0" type="line"/>
      <point x="210.9" y="0.0" type="line"/>
      <point x="210.9" y="374.7" type="line"/>
      <point x="219.5" y="379.6"/>
      <point x="227.5" y="383.2"/>
      <point x="236.70000000000002" y="383.2" type="curve" smooth="yes"/>
      <point x="245.09999999999997" y="383.2"/>
      <point x="255.39999999999998" y="378.8"/>
      <point x="255.39999999999998" y="358.3" type="curve" smooth="yes"/>
      <point x="255.39999999999998" y="0.0" type="line"/>
      <point x="443.8" y="0.0" type="line"/>
      <point x="443.8" y="418.59999999999997" type="line" smooth="yes"/>
      <point x="443.8" y="507.8"/>
      <point x="404.5" y="560.0"/>
      <point x="321.90000000000003" y="560.0" type="curve" smooth="yes"/>
      <point x="280.40000000000003" y="560.0"/>
      <point x="239.70000000000002" y="549.5"/>
      <point x="192.5" y="511.2" type="curve"/>
      <point x="192.5" y="550.0" type="line"/>
      <point x="22.5" y="550.0" type="line"/>
    </contour>
  </outline>
</glyph>
<glyph name="o" format="2">
  <advance width="465.4"/>
  <unicode hex="006F"/>
  <anchor x="332.3" y="9.1" name="ogonek"/>
  <anchor x="232.7" y="550.0" name="top"/>
  <anchor x="361.40000000000003" y="540.0" name="topright"/>
  <anchor x="232.79999999999998" y="0.0" name="bottom"/>
  <outline>
    <contour>
      <point x="11.9" y="276.09999999999997" type="curve" smooth="yes"/>
      <point x="11.9" y="115.9"/>
      <point x="53.4" y="-10.0"/>
      <point x="232.79999999999998" y="-10.0" type="curve" smooth="yes"/>
      <point x="412.0" y="-10.0"/>
      <point x="453.5" y="115.9"/>
      <point x="453.5" y="276.09999999999997" type="curve" smooth="yes"/>
      <point x="453.5" y="435.0"/>
      <point x="413.8" y="560.0"/>
      <point x="232.79999999999998" y="560.0" type="curve" smooth="yes"/>
      <point x="51.6" y="560.0"/>
      <point x="11.9" y="435.0"/>
    </contour>
    <contour>
      <point x="208.0" y="276.0" type="curve" smooth="yes"/>
      <point x="208.0" y="380.6"/>
      <point x="212.6" y="391.90000000000003"/>
      <point x="232.7" y="391.90000000000003" type="curve" smooth="yes"/>
      <point x="252.0" y="391.90000000000003"/>
      <point x="257.4" y="380.6"/>
      <point x="257.4" y="276.0" type="curve" smooth="yes"/>
      <point x="257.4" y="170.9"/>
      <point x="251.4" y="159.0"/>
      <point x="232.7" y="159.0" type="curve" smooth="yes"/>
      <point x="213.1" y="159.0"/>
      <point x="208.0" y="170.9"/>
    </contour>
  </outline>
</glyph>
<glyph name="p" format="2">
  <advance width="467.3"/>
  <unicode hex="0070"/>
  <outline>
    <contour>
      <point x="22.5" y="-210.0" type="line"/>
      <point x="211.0" y="-210.0" type="line"/>
      <point x="211.0" y="-5.199999999999999" type="line"/>
      <point x="225.5" y="-8.1"/>
      <point x="243.70000000000002" y="-10.0"/>
      <point x="255.59999999999997" y="-10.0" type="curve" smooth="yes"/>
      <point x="386.59999999999997" y="-10.0"/>
      <point x="455.4" y="94.1"/>
      <point x="455.4" y="285.29999999999995" type="curve" smooth="yes"/>
      <point x="455.4" y="467.70000000000005"/>
      <point x="404.8" y="560.0"/>
      <point x="306.5" y="560.0" type="curve" smooth="yes"/>
      <point x="268.0" y="560.0"/>
      <point x="236.6" y="550.1"/>
      <point x="203.3" y="527.1999999999999" type="curve"/>
      <point x="192.5" y="550.0" type="line"/>
      <point x="22.5" y="550.0" type="line"/>
    </contour>
    <contour>
      <point x="231.6" y="143.1" type="curve" smooth="yes"/>
      <point x="224.10000000000002" y="143.1"/>
      <point x="217.2" y="145.4"/>
      <point x="210.9" y="150.0" type="curve"/>
      <point x="210.9" y="384.0" type="line"/>
      <point x="218.2" y="387.6"/>
      <point x="226.7" y="389.40000000000003"/>
      <point x="233.29999999999998" y="389.40000000000003" type="curve" smooth="yes"/>
      <point x="251.5" y="389.40000000000003"/>
      <point x="256.7" y="368.6"/>
      <point x="256.7" y="257.79999999999995" type="curve" smooth="yes"/>
      <point x="256.7" y="162.6"/>
      <point x="250.50000000000003" y="143.1"/>
    </contour>
  </outline>
</glyph>
<glyph name="q" format="2">
  <advance width="468.2"/>
  <unicode hex="0071"/>
  <outline>
    <contour>
      <point x="445.7" y="534.2" type="line"/>
      <point x="392.20000000000005" y="549.9"/>
      <point x="315.6" y="560.0"/>
      <point x="252.20000000000002" y="560.0" type="curve" smooth="yes"/>
      <point x="87.89999999999999" y="560.0"/>
      <point x="11.9" y="472.09999999999997"/>
      <point x="11.9" y="282.70000000000005" type="curve" smooth="yes"/>
      <point x="11.9" y="77.8"/>
      <point x="59.800000000000004" y="-10.0"/>
      <point x="168.0" y="-10.0" type="curve" smooth="yes"/>
      <point x="198.3" y="-10.0"/>
      <point x="234.4" y="2.0"/>
      <point x="258.2" y="18.700000000000003" type="curve"/>
      <point x="258.2" y="-210.0" type="line"/>
      <point x="445.7" y="-210.0" type="line"/>
    </contour>
    <contour>
      <point x="257.3" y="404.5" type="curve"/>
      <point x="257.3" y="170.5" type="line"/>
      <point x="250.0" y="166.0"/>
      <point x="241.5" y="162.39999999999998"/>
      <point x="234.0" y="162.39999999999998" type="curve" smooth="yes"/>
      <point x="216.7" y="162.39999999999998"/>
      <point x="211.5" y="181.4"/>
      <point x="211.5" y="276.0" type="curve" smooth="yes"/>
      <point x="211.5" y="387.40000000000003"/>
      <point x="217.70000000000002" y="408.7"/>
      <point x="237.5" y="408.7" type="curve" smooth="yes"/>
      <point x="243.3" y="408.7"/>
      <point x="251.0" y="407.3"/>
    </contour>
  </outline>
</glyph>
<glyph name="r" format="2">
  <advance width="337.7"/>
  <unicode hex="0072"/>
  <anchor x="173.0" y="550.0" name="top"/>
  <anchor x="115.8" y="0.0" name="bottom"/>
  <outline>
    <contour>
      <point x="191.6" y="550.0" type="line"/>
      <point x="22.5" y="550.0" type="line"/>
      <point x="22.5" y="0.0" type="line"/>
      <point x="209.1" y="0.0" type="line"/>
      <point x="209.1" y="350.2" type="line"/>
      <point x="229.2" y="360.5"/>
      <point x="243.60000000000002" y="362.90000000000003"/>
      <point x="261.0" y="362.90000000000003" type="curve" smooth="yes"/>
      <point x="270.2" y="362.90000000000003"/>
      <point x="288.0" y="362.3"/>
      <point x="304.0" y="357.8" type="curve"/>
      <point x="335.9" y="550.6" type="line"/>
      <point x="315.1" y="558.5999999999999"/>
      <point x="300.8" y="560.0"/>
      <point x="289.59999999999997" y="560.0" type="curve" smooth="yes"/>
      <point x="246.2" y="560.0"/>
      <point x="227.0" y="544.0"/>
      <point x="191.6" y="501.0" type="curve"/>
    </contour>
  </outline>
</glyph>
<glyph name="s" format="2">
  <advance width="394.25"/>
  <unicode hex="0073"/>
  <anchor x="199.0" y="550.0" name="top"/>
  <anchor x="202.5" y="0.0" name="bottom"/>
  <outline>
    <contour>
      <point x="14.25" y="20.75" type="line"/>
      <point x="65.75" y="-0.5"/>
      <point x="115.25" y="-10.0"/>
      <point x="179.0" y="-10.0" type="curve" smooth="yes"/>
      <point x="309.5" y="-10.0"/>
      <point x="387.75" y="52.0"/>
      <point x="387.75" y="180.5" type="curve" smooth="yes"/>
      <point x="387.75" y="307.0"/>
      <point x="321.75" y="340.25"/>
      <point x="255.0" y="354.0" type="curve" smooth="yes"/>
      <point x="207.25" y="363.75"/>
      <point x="176.75" y="364.0"/>
      <point x="176.75" y="380.0" type="curve" smooth="yes"/>
      <point x="176.75" y="392.75"/>
      <point x="192.0" y="393.25"/>
      <point x="214.75" y="393.25" type="curve" smooth="yes"/>
      <point x="259.25" y="393.25"/>
      <point x="301.75" y="385.5"/>
      <point x="342.75" y="372.0" type="curve"/>
      <point x="367.25" y="530.75" type="line"/>
      <point x="329.0" y="548.0"/>
      <point x="267.25" y="560.0"/>
      <point x="211.0" y="560.0" type="curve" smooth="yes"/>
      <point x="79.75" y="560.0"/>
      <point x="8.75" y="494.75"/>
      <point x="8.75" y="365.0" type="curve" smooth="yes"/>
      <point x="8.75" y="277.0"/>
      <point x="43.75" y="222.5"/>
      <point x="114.25" y="203.5" type="curve" smooth="yes"/>
      <point x="164.25" y="190.0"/>
      <point x="211.25" y="192.0"/>
      <point x="211.25" y="169.25" type="curve" smooth="yes"/>
      <point x="211.25" y="161.0"/>
      <point x="201.0" y="153.25"/>
      <point x="173.5" y="153.25" type="curve" smooth="yes"/>
      <point x="132.5" y="153.25"/>
      <point x="67.25" y="163.0"/>
      <point x="31.75" y="175.25" type="curve"/>
    </contour>
  </outline>
</glyph>
<glyph name="t" format="2">
  <advance width="323.3"/>
  <unicode hex="0074"/>
  <anchor x="157.20000000000002" y="275.0" name="center"/>
  <anchor x="154.1" y="655.1" name="top"/>
  <anchor x="261.1" y="767.5" name="topright"/>
  <anchor x="180.2" y="0.0" name="bottom"/>
  <outline>
    <contour>
      <point x="192.0" y="-10.0" type="curve" smooth="yes"/>
      <point x="229.20000000000002" y="-10.0"/>
      <point x="277.79999999999995" y="-6.0"/>
      <point x="324.6" y="15.7" type="curve"/>
      <point x="297.8" y="168.5" type="line"/>
      <point x="284.8" y="165.7"/>
      <point x="272.6" y="164.1"/>
      <point x="263.4" y="164.1" type="curve" smooth="yes"/>
      <point x="247.5" y="164.1"/>
      <point x="236.0" y="171.79999999999998"/>
      <point x="236.0" y="213.29999999999998" type="curve" smooth="yes"/>
      <point x="236.0" y="397.09999999999997" type="line"/>
      <point x="302.7" y="397.09999999999997" type="line"/>
      <point x="302.7" y="550.0" type="line"/>
      <point x="236.0" y="550.0" type="line"/>
      <point x="236.0" y="655.1" type="line"/>
      <point x="72.2" y="655.1" type="line"/>
      <point x="48.5" y="550.0" type="line"/>
      <point x="4.9" y="542.6" type="line"/>
      <point x="4.9" y="398.0" type="line"/>
      <point x="48.5" y="398.0" type="line"/>
      <point x="48.5" y="192.1" type="line" smooth="yes"/>
      <point x="48.5" y="53.4"/>
      <point x="98.8" y="-10.0"/>
    </contour>
  </outline>
</glyph>
<glyph name="u" format="2">
  <advance width="481.3"/>
  <unicode hex="0075"/>
  <anchor x="479.5" y="17.2" name="ogonek"/>
  <anchor x="232.2" y="550.0" name="top"/>
  <anchor x="441.09999999999997" y="550.0" name="topright"/>
  <anchor x="241.2" y="0.0" name="bottom"/>
  <outline>
    <contour>
      <point x="150.7" y="-10.0" type="curve" smooth="yes"/>
      <point x="198.4" y="-10.0"/>
      <point x="238.5" y="6.799999999999999"/>
      <point x="274.6" y="35.699999999999996" type="curve"/>
      <point x="296.9" y="9.4"/>
      <point x="326.1" y="-10.0"/>
      <point x="372.4" y="-10.0" type="curve" smooth="yes"/>
      <point x="420.3" y="-10.0"/>
      <point x="454.29999999999995" y="2.9000000000000004"/>
      <point x="479.5" y="17.2" type="curve"/>
      <point x="467.2" y="178.1" type="line"/>
      <point x="463.59999999999997" y="176.8"/>
      <point x="457.5" y="175.8"/>
      <point x="453.0" y="175.8" type="curve" smooth="yes"/>
      <point x="445.09999999999997" y="175.8"/>
      <point x="441.09999999999997" y="180.4"/>
      <point x="441.09999999999997" y="201.4" type="curve" smooth="yes"/>
      <point x="441.09999999999997" y="550.0" type="line"/>
      <point x="253.59999999999997" y="550.0" type="line"/>
      <point x="253.59999999999997" y="174.70000000000002" type="line"/>
      <point x="244.49999999999997" y="168.6"/>
      <point x="236.7" y="166.39999999999998"/>
      <point x="228.10000000000002" y="166.39999999999998" type="curve" smooth="yes"/>
      <point x="219.5" y="166.39999999999998"/>
      <point x="209.1" y="170.8"/>
      <point x="209.1" y="190.3" type="curve" smooth="yes"/>
      <point x="209.1" y="550.0" type="line"/>
      <point x="20.7" y="550.0" type="line"/>
      <point x="20.7" y="153.9" type="line" smooth="yes"/>
      <point x="20.7" y="32.3"/>
      <point x="76.60000000000001" y="-10.0"/>
    </contour>
  </outline>
</glyph>
<glyph name="v" format="2">
  <advance width="477.25"/>
  <unicode hex="0076"/>
  <outline>
    <contour>
      <point x="118.0" y="0.0" type="line"/>
      <point x="357.75" y="0.0" type="line"/>
      <point x="475.5" y="550.0" type="line"/>
      <point x="273.5" y="550.0" type="line"/>
      <point x="240.25" y="170.0" type="line"/>
      <point x="205.0" y="550.0" type="line"/>
      <point x="1.5" y="550.0" type="line"/>
    </contour>
  </outline>
</glyph>
<glyph name="w" format="2">
  <advance width="693.95"/>
  <unicode hex="0077"/>
  <anchor x="346.9" y="550.0" name="top"/>
  <anchor x="346.9" y="0.0" name="bottom"/>
  <outline>
    <contour>
      <point x="81.9" y="0.0" type="line"/>
      <point x="321.55" y="0.0" type="line"/>
      <point x="347.6" y="324.1" type="line"/>
      <point x="372.05" y="0.0" type="line"/>
      <point x="609.2" y="0.0" type="line"/>
      <point x="688.3" y="549.95" type="line"/>
      <point x="500.15" y="550.1" type="line"/>
      <point x="478.45" y="168.5" type="line"/>
      <point x="448.1" y="550.0" type="line"/>
      <point x="245.6" y="550.0" type="line"/>
      <point x="214.75" y="168.55" type="line"/>
      <point x="195.7" y="550.1" type="line"/>
      <point x="5.4" y="549.95" type="line"/>
    </contour>
  </outline>
</glyph>
<glyph name="x" format="2">
  <advance width="483.05"/>
  <unicode hex="0078"/>
  <outline>
    <contour>
      <point x="2.55" y="0.09999999999999987" type="line"/>
      <point x="214.7" y="0.04999999999999999" type="line"/>
      <point x="243.75" y="186.95" type="line"/>
      <point x="273.7" y="0.04999999999999999" type="line"/>
      <point x="482.4" y="0.09999999999999987" type="line"/>
      <point x="386.4" y="280.15" type="line"/>
      <point x="476.6" y="550.1" type="line"/>
      <point x="271.9" y="550.15" type="line"/>
      <point x="243.4" y="355.2" type="line"/>
      <point x="215.9" y="550.0" type="line"/>
      <point x="10.5" y="550.0" type="line"/>
      <point x="99.45" y="278.95" type="line"/>
    </contour>
  </outline>
</glyph>
<glyph name="y" format="2">
  <advance width="483.25"/>
  <unicode hex="0079"/>
  <anchor x="236.75000000000003" y="550.0" name="top"/>
  <anchor x="438.75" y="0.0" name="bottom"/>
  <outline>
    <contour>
      <point x="109.5" y="-210.0" type="line"/>
      <point x="313.99999999999994" y="-210.0" type="line"/>
      <point x="481.75000000000006" y="550.0" type="line"/>
      <point x="276.75" y="550.0" type="line"/>
      <point x="242.5" y="160.5" type="line"/>
      <point x="210.5" y="550.0" type="line"/>
      <point x="1.5" y="550.0" type="line"/>
      <point x="141.25" y="0.0" type="line"/>
      <point x="161.5" y="0.0" type="line"/>
    </contour>
  </outline>
</glyph>
<glyph name="z" format="2">
  <advance width="413.6"/>
  <unicode hex="007A"/>
  <anchor x="209.5" y="550.0" name="top"/>
  <outline>
    <contour>
      <point x="14.8" y="0.0" type="line"/>
      <point x="397.7" y="0.0" type="line"/>
      <point x="397.7" y="165.29999999999998" type="line"/>
      <point x="223.1" y="165.29999999999998" type="line"/>
      <point x="390.79999999999995" y="403.5" type="line"/>
      <point x="390.79999999999995" y="550.0" type="line"/>
      <point x="24.4" y="550.0" type="line"/>
      <point x="24.4" y="386.5" type="line"/>
      <point x="183.5" y="386.5" type="line"/>
      <point x="14.8" y="149.2" type="line"/>
    </contour>
  </outline>
</glyph>
<glyph name="braceleft" format="2">
  <advance width="265.09999999999997"/>
  <unicode hex="007B"/>
  <outline>
    <contour>
      <point x="29.700000000000003" y="-33.9" type="curve" smooth="yes"/>
      <point x="29.700000000000003" y="-163.9"/>
      <point x="98.5" y="-210.9"/>
      <point x="170.8" y="-210.9" type="curve" smooth="yes"/>
      <point x="254.1" y="-210.9" type="line"/>
      <point x="254.1" y="-61.9" type="line"/>
      <point x="218.8" y="-61.9" type="line" smooth="yes"/>
      <point x="194.8" y="-61.9"/>
      <point x="183.9" y="-42.9"/>
      <point x="183.9" y="-9.9" type="curve" smooth="yes"/>
      <point x="183.9" y="33.1"/>
      <point x="208.0" y="77.10000000000001"/>
      <point x="208.0" y="129.1" type="curve" smooth="yes"/>
      <point x="208.0" y="177.1"/>
      <point x="194.0" y="226.29999999999998"/>
      <point x="143.5" y="265.0" type="curve"/>
      <point x="194.0" y="301.2"/>
      <point x="208.0" y="352.0"/>
      <point x="208.0" y="400.0" type="curve" smooth="yes"/>
      <point x="208.0" y="452.0"/>
      <point x="183.9" y="496.0"/>
      <point x="183.9" y="539.0" type="curve" smooth="yes"/>
      <point x="183.9" y="572.0"/>
      <point x="194.8" y="591.0"/>
      <point x="218.8" y="591.0" type="curve" smooth="yes"/>
      <point x="254.1" y="591.0" type="line"/>
      <point x="254.1" y="740.0" type="line"/>
      <point x="170.8" y="740.0" type="line" smooth="yes"/>
      <point x="98.5" y="740.0"/>
      <point x="29.700000000000003" y="693.0"/>
      <point x="29.700000000000003" y="563.0" type="curve" smooth="yes"/>
      <point x="29.700000000000003" y="476.0"/>
      <point x="62.3" y="432.0"/>
      <point x="62.3" y="390.0" type="curve" smooth="yes"/>
      <point x="62.3" y="358.0"/>
      <point x="56.6" y="343.0"/>
      <point x="32.6" y="343.0" type="curve" smooth="yes"/>
      <point x="16.4" y="343.0" type="line"/>
      <point x="16.4" y="186.1" type="line"/>
      <point x="32.6" y="186.1" type="line" smooth="yes"/>
      <point x="56.6" y="186.1"/>
      <point x="62.3" y="171.1"/>
      <point x="62.3" y="139.1" type="curve" smooth="yes"/>
      <point x="62.3" y="97.10000000000001"/>
      <point x="29.700000000000003" y="53.099999999999994"/>
    </contour>
  </outline>
</glyph>
<glyph name="bar" format="2">
  <advance width="189.0"/>
  <unicode hex="007C"/>
  <outline>
    <contour>
      <point x="173.5" y="790.9" type="line"/>
      <point x="15.5" y="790.9" type="line"/>
      <point x="15.5" y="-210.0" type="line"/>
      <point x="173.5" y="-210.0" type="line"/>
    </contour>
  </outline>
</glyph>
<glyph name="braceright" format="2">
  <advance width="265.09999999999997"/>
  <unicode hex="007D"/>
  <outline>
    <contour>
      <point x="11.0" y="-61.9" type="line"/>
      <point x="11.0" y="-210.9" type="line"/>
      <point x="94.3" y="-210.9" type="line" smooth="yes"/>
      <point x="166.6" y="-210.9"/>
      <point x="235.4" y="-163.9"/>
      <point x="235.4" y="-33.9" type="curve" smooth="yes"/>
      <point x="235.4" y="53.099999999999994"/>
      <point x="202.8" y="97.10000000000001"/>
      <point x="202.8" y="139.1" type="curve" smooth="yes"/>
      <point x="202.8" y="171.1"/>
      <point x="208.5" y="186.1"/>
      <point x="232.5" y="186.1" type="curve" smooth="yes"/>
      <point x="248.7" y="186.1" type="line"/>
      <point x="248.7" y="343.0" type="line"/>
      <point x="232.5" y="343.0" type="line" smooth="yes"/>
      <point x="208.5" y="343.0"/>
      <point x="202.8" y="358.0"/>
      <point x="202.8" y="390.0" type="curve" smooth="yes"/>
      <point x="202.8" y="432.0"/>
      <point x="235.4" y="476.0"/>
      <point x="235.4" y="563.0" type="curve" smooth="yes"/>
      <point x="235.4" y="693.0"/>
      <point x="166.6" y="740.0"/>
      <point x="94.3" y="740.0" type="curve" smooth="yes"/>
      <point x="11.0" y="740.0" type="line"/>
      <point x="11.0" y="591.0" type="line"/>
      <point x="31.0" y="591.0" type="line" smooth="yes"/>
      <point x="55.0" y="591.0"/>
      <point x="65.9" y="572.0"/>
      <point x="65.9" y="539.0" type="curve" smooth="yes"/>
      <point x="65.9" y="496.0"/>
      <point x="41.8" y="452.0"/>
      <point x="41.8" y="400.0" type="curve" smooth="yes"/>
      <point x="41.8" y="352.0"/>
      <point x="55.8" y="301.2"/>
      <point x="106.3" y="265.0" type="curve"/>
      <point x="55.8" y="226.29999999999998"/>
      <point x="41.8" y="177.1"/>
      <point x="41.8" y="129.1" type="curve" smooth="yes"/>
      <point x="41.8" y="77.10000000000001"/>
      <point x="65.9" y="33.1"/>
      <point x="65.9" y="-9.9" type="curve" smooth="yes"/>
      <point x="65.9" y="-42.9"/>
      <point x="55.0" y="-61.9"/>
      <point x="31.0" y="-61.9" type="curve" smooth="yes"/>
    </contour>
  </outline>
</glyph>
<glyph name="asciitilde" format="2">
  <advance width="456.2"/>
  <unicode hex="007E"/>
  <outline>
    <contour>
      <point x="403.4" y="234.9" type="curve"/>
      <point x="403.4" y="395.9" type="line"/>
      <point x="376.8" y="371.4"/>
      <point x="348.9" y="362.9"/>
      <point x="318.7" y="362.9" type="curve" smooth="yes"/>
      <point x="242.4" y="362.9"/>
      <point x="216.5" y="428.9"/>
      <point x="144.4" y="428.9" type="curve" smooth="yes"/>
      <point x="97.4" y="428.9"/>
      <point x="58.7" y="402.9"/>
      <point x="52.9" y="395.90000000000003" type="curve"/>
      <point x="52.9" y="234.9" type="line"/>
      <point x="61.4" y="243.5"/>
      <point x="99.10000000000001" y="267.5"/>
      <point x="143.3" y="267.5" type="curve" smooth="yes"/>
      <point x="216.5" y="267.5"/>
      <point x="243.6" y="201.4"/>
      <point x="318.8" y="201.4" type="curve" smooth="yes"/>
      <point x="348.6" y="201.4"/>
      <point x="377.3" y="210.8"/>
    </contour>
  </outline>
</glyph>
<glyph name="exclamdown" format="2">
  <advance width="219.0"/>
  <unicode hex="00A1"/>
  <outline>
    <contour>
      <point x="191.7" y="290.9" type="line"/>
      <point x="29.8" y="290.9" type="line"/>
      <point x="13.400000000000002" y="-190.1" type="line"/>
      <point x="205.4" y="-190.1" type="line"/>
    </contour>
    <contour>
      <point x="209.5" y="443.3" type="curve" smooth="yes"/>
      <point x="209.5" y="521.0"/>
      <point x="179.8" y="560.0"/>
      <point x="109.5" y="560.0" type="curve" smooth="yes"/>
      <point x="39.199999999999996" y="560.0"/>
      <point x="9.5" y="521.0"/>
      <point x="9.5" y="443.3" type="curve" smooth="yes"/>
      <point x="9.5" y="364.6"/>
      <point x="39.199999999999996" y="325.6"/>
      <point x="109.5" y="325.6" type="curve" smooth="yes"/>
      <point x="179.8" y="325.6"/>
      <point x="209.5" y="364.6"/>
    </contour>
  </outline>
</glyph>
<glyph name="cent" format="2">
  <advance width="483.0"/>
  <unicode hex="00A2"/>
  <outline>
    <contour>
      <point x="273.0" y="-10.9" type="curve" smooth="yes"/>
      <point x="329.2" y="-10.9"/>
      <point x="387.5" y="-0.7"/>
      <point x="427.3" y="16.9" type="curve"/>
      <point x="391.1" y="193.2" type="line"/>
      <point x="363.7" y="185.29999999999998"/>
      <point x="342.3" y="182.0"/>
      <point x="321.70000000000005" y="182.0" type="curve" smooth="yes"/>
      <point x="282.6" y="182.0"/>
      <point x="260.0" y="211.5"/>
      <point x="260.0" y="272.0" type="curve" smooth="yes"/>
      <point x="260.0" y="341.2"/>
      <point x="279.5" y="366.59999999999997"/>
      <point x="324.0" y="366.59999999999997" type="curve" smooth="yes"/>
      <point x="348.70000000000005" y="366.59999999999997"/>
      <point x="369.4" y="362.2"/>
      <point x="389.3" y="357.8" type="curve"/>
      <point x="420.09999999999997" y="541.7" type="line"/>
      <point x="391.9" y="549.2"/>
      <point x="336.0" y="561.8"/>
      <point x="275.3" y="561.8" type="curve" smooth="yes"/>
      <point x="108.7" y="561.8"/>
      <point x="63.6" y="423.7"/>
      <point x="63.6" y="266.0" type="curve" smooth="yes"/>
      <point x="63.6" y="81.89999999999999"/>
      <point x="131.79999999999998" y="-10.9"/>
    </contour>
    <contour>
      <point x="182.6" y="-105.9" type="line"/>
      <point x="347.59999999999997" y="-105.9" type="line"/>
      <point x="347.59999999999997" y="13.4" type="line"/>
      <point x="182.6" y="22.099999999999998" type="line"/>
    </contour>
    <contour>
      <point x="182.6" y="525.5999999999999" type="line"/>
      <point x="347.59999999999997" y="539.4" type="line"/>
      <point x="347.59999999999997" y="654.1" type="line"/>
      <point x="182.6" y="654.1" type="line"/>
    </contour>
  </outline>
</glyph>
<glyph name="sterling" format="2">
  <advance width="483.0"/>
  <unicode hex="00A3"/>
  <outline>
    <contour>
      <point x="57.0" y="0.0" type="line"/>
      <point x="426.3" y="0.0" type="line"/>
      <point x="426.3" y="164.0" type="line"/>
      <point x="262.5" y="164.0" type="line"/>
      <point x="289.29999999999995" y="186.4"/>
      <point x="323.7" y="220.29999999999998"/>
      <point x="323.7" y="275.90000000000003" type="curve" smooth="yes"/>
      <point x="323.7" y="341.8"/>
      <point x="282.0" y="405.3"/>
      <point x="282.0" y="456.0" type="curve" smooth="yes"/>
      <point x="282.0" y="509.3"/>
      <point x="308.5" y="527.5"/>
      <point x="339.0" y="527.5" type="curve" smooth="yes"/>
      <point x="364.1" y="527.5"/>
      <point x="383.2" y="523.6"/>
      <point x="401.4" y="517.5" type="curve"/>
      <point x="429.2" y="675.6" type="line"/>
      <point x="391.79999999999995" y="698.5"/>
      <point x="344.1" y="710.0"/>
      <point x="296.5" y="710.0" type="curve" smooth="yes"/>
      <point x="159.2" y="710.0"/>
      <point x="86.8" y="633.4"/>
      <point x="86.8" y="519.4" type="curve" smooth="yes"/>
      <point x="86.8" y="402.40000000000003"/>
      <point x="146.5" y="365.4"/>
      <point x="146.5" y="255.70000000000002" type="curve" smooth="yes"/>
      <point x="146.5" y="218.1"/>
      <point x="119.2" y="162.9"/>
      <point x="57.0" y="123.0" type="curve"/>
    </contour>
    <contour>
      <point x="54.3" y="307.1" type="line"/>
      <point x="406.7" y="307.1" type="line"/>
      <point x="406.7" y="400.1" type="line"/>
      <point x="54.3" y="400.1" type="line"/>
    </contour>
  </outline>
</glyph>
<glyph name="currency" format="2">
  <advance width="440.0"/>
  <unicode hex="00A4"/>
  <outline>
    <contour>
      <point x="22.3" y="378.2" type="line"/>
      <point x="67.7" y="331.8" type="line"/>
      <point x="65.2" y="319.9"/>
      <point x="63.9" y="307.9"/>
      <point x="63.9" y="295.7" type="curve" smooth="yes"/>
      <point x="63.9" y="282.5"/>
      <point x="65.2" y="268.6"/>
      <point x="68.7" y="255.8" type="curve"/>
      <point x="22.3" y="209.4" type="line"/>
      <point x="135.6" y="96.1" type="line"/>
      <point x="190.3" y="150.7" type="line"/>
      <point x="199.7" y="148.7"/>
      <point x="211.0" y="148.7"/>
      <point x="222.4" y="148.7" type="curve" smooth="yes"/>
      <point x="232.2" y="148.7"/>
      <point x="240.9" y="148.8"/>
      <point x="249.6" y="149.9" type="curve"/>
      <point x="304.4" y="96.1" type="line"/>
      <point x="417.7" y="209.4" type="line"/>
      <point x="374.4" y="251.8" type="line"/>
      <point x="378.6" y="266.3"/>
      <point x="380.8" y="280.9"/>
      <point x="380.8" y="295.7" type="curve" smooth="yes"/>
      <point x="380.8" y="308.6"/>
      <point x="378.7" y="322.2"/>
      <point x="375.3" y="335.8" type="curve"/>
      <point x="417.7" y="378.2" type="line"/>
      <point x="304.4" y="491.5" type="line"/>
      <point x="253.2" y="440.3" type="line"/>
      <point x="243.6" y="441.5"/>
      <point x="233.1" y="442.5"/>
      <point x="222.4" y="442.5" type="curve" smooth="yes"/>
      <point x="209.2" y="442.5"/>
      <point x="197.9" y="440.6"/>
      <point x="186.7" y="439.5" type="curve"/>
      <point x="135.6" y="491.5" type="line"/>
    </contour>
    <contour>
      <point x="222.3" y="265.2" type="curve" smooth="yes"/>
      <point x="203.2" y="265.2"/>
      <point x="192.7" y="275.6"/>
      <point x="192.7" y="294.8" type="curve" smooth="yes"/>
      <point x="192.7" y="311.9"/>
      <point x="203.1" y="325.1"/>
      <point x="222.3" y="325.1" type="curve" smooth="yes"/>
      <point x="241.5" y="325.1"/>
      <point x="252.0" y="311.9"/>
      <point x="252.0" y="294.8" type="curve" smooth="yes"/>
      <point x="252.0" y="275.6"/>
      <point x="241.4" y="265.2"/>
    </contour>
  </outline>
</glyph>
<glyph name="yen" format="2">
  <advance width="498.5"/>
  <unicode hex="00A5"/>
  <outline>
    <contour>
      <point x="41.5" y="285.0" type="line"/>
      <point x="161.75" y="285.0" type="line"/>
      <point x="161.75" y="259.75" type="line"/>
      <point x="41.5" y="259.75" type="line"/>
      <point x="41.5" y="168.75" type="line"/>
      <point x="161.75" y="168.75" type="line"/>
      <point x="161.75" y="0.0" type="line"/>
      <point x="336.75" y="0.0" type="line"/>
      <point x="336.75" y="168.75" type="line"/>
      <point x="457.0" y="168.75" type="line"/>
      <point x="457.0" y="259.75" type="line"/>
      <point x="336.75" y="259.75" type="line"/>
      <point x="336.75" y="285.0" type="line"/>
      <point x="457.0" y="285.0" type="line"/>
      <point x="457.0" y="376.0" type="line"/>
      <point x="336.75" y="376.0" type="line"/>
      <point x="503.25" y="699.5" type="line"/>
      <point x="308.25" y="700.5" type="line"/>
      <point x="249.75" y="489.0" type="line"/>
      <point x="190.25" y="700.5" type="line"/>
      <point x="-4.75" y="699.5" type="line"/>
      <point x="161.75" y="376.0" type="line"/>
      <point x="41.5" y="376.0" type="line"/>
    </contour>
  </outline>
</glyph>
<glyph name="brokenbar" format="2">
  <advance width="188.1"/>
  <unicode hex="00A6"/>
  <outline>
    <contour>
      <point x="172.60000000000002" y="391.0" type="line"/>
      <point x="172.60000000000002" y="790.9" type="line"/>
      <point x="15.5" y="790.9" type="line"/>
      <point x="15.5" y="391.0" type="line"/>
    </contour>
    <contour>
      <point x="15.5" y="190.9" type="line"/>
      <point x="15.5" y="-210.0" type="line"/>
      <point x="172.60000000000002" y="-210.0" type="line"/>
      <point x="172.60000000000002" y="190.9" type="line"/>
    </contour>
  </outline>
</glyph>
<glyph name="section" format="2">
  <advance width="500.3"/>
  <unicode hex="00A7"/>
  <outline>
    <contour>
      <point x="197.7" y="-220.9" type="curve" smooth="yes"/>
      <point x="365.3" y="-220.9"/>
      <point x="463.1" y="-99.39999999999999"/>
      <point x="463.1" y="68.0" type="curve" smooth="yes"/>
      <point x="463.1" y="133.5"/>
      <point x="442.9" y="231.5"/>
      <point x="396.70000000000005" y="326.70000000000005" type="curve" smooth="yes"/>
      <point x="352.20000000000005" y="424.0"/>
      <point x="332.2" y="471.4"/>
      <point x="332.2" y="502.3" type="curve" smooth="yes"/>
      <point x="332.2" y="531.1"/>
      <point x="348.09999999999997" y="549.1"/>
      <point x="376.9" y="549.1" type="curve" smooth="yes"/>
      <point x="389.1" y="549.1"/>
      <point x="399.5" y="547.1"/>
      <point x="412.2" y="540.2" type="curve"/>
      <point x="448.59999999999997" y="721.6999999999999" type="line"/>
      <point x="418.1" y="738.8"/>
      <point x="366.5" y="750.0"/>
      <point x="314.8" y="750.0" type="curve" smooth="yes"/>
      <point x="143.0" y="750.0"/>
      <point x="31.3" y="644.8"/>
      <point x="37.6" y="478.5" type="curve" smooth="yes"/>
      <point x="40.3" y="406.9"/>
      <point x="47.6" y="338.6"/>
      <point x="112.2" y="197.5" type="curve" smooth="yes"/>
      <point x="155.3" y="102.2"/>
      <point x="176.6" y="63.3"/>
      <point x="176.6" y="24.799999999999997" type="curve" smooth="yes"/>
      <point x="176.6" y="-7.2"/>
      <point x="156.2" y="-20.7"/>
      <point x="124.69999999999999" y="-20.7" type="curve" smooth="yes"/>
      <point x="108.2" y="-20.7"/>
      <point x="89.7" y="-16.5"/>
      <point x="75.3" y="-4.8" type="curve"/>
      <point x="42.099999999999994" y="-184.9" type="line"/>
      <point x="75.9" y="-206.29999999999998"/>
      <point x="136.7" y="-220.9"/>
    </contour>
    <contour>
      <point x="188.60000000000002" y="-103.7" type="curve" smooth="yes"/>
      <point x="170.89999999999998" y="-103.7"/>
      <point x="151.1" y="-98.8"/>
      <point x="129.5" y="-87.39999999999999" type="curve"/>
      <point x="175.7" y="-115.60000000000001" type="line"/>
      <point x="252.1" y="-111.4"/>
      <point x="304.59999999999997" y="-55.0"/>
      <point x="304.59999999999997" y="30.0" type="curve" smooth="yes"/>
      <point x="304.59999999999997" y="87.5"/>
      <point x="288.6" y="150.5"/>
      <point x="239.8" y="260.0" type="curve" smooth="yes"/>
      <point x="191.79999999999998" y="367.4"/>
      <point x="172.9" y="422.4"/>
      <point x="172.9" y="490.0" type="curve" smooth="yes"/>
      <point x="172.9" y="556.8000000000001"/>
      <point x="214.3" y="608.5999999999999"/>
      <point x="262.7" y="608.5999999999999" type="curve" smooth="yes"/>
      <point x="283.9" y="608.5999999999999"/>
      <point x="298.09999999999997" y="603.5"/>
      <point x="313.0" y="589.1" type="curve"/>
      <point x="288.90000000000003" y="629.5999999999999" type="line"/>
      <point x="245.6" y="618.7"/>
      <point x="201.10000000000002" y="577.5"/>
      <point x="201.1" y="512.4" type="curve" smooth="yes"/>
      <point x="201.1" y="458.6"/>
      <point x="215.0" y="398.40000000000003"/>
      <point x="266.4" y="282.7" type="curve" smooth="yes"/>
      <point x="322.5" y="156.8"/>
      <point x="334.5" y="99.2"/>
      <point x="334.5" y="51.4" type="curve" smooth="yes"/>
      <point x="334.5" y="-42.4"/>
      <point x="279.2" y="-103.7"/>
    </contour>
  </outline>
</glyph>
<glyph name="copyright" format="2">
  <advance width="747.8"/>
  <unicode hex="00A9"/>
  <outline>
    <contour>
      <point x="373.9" y="48.4" type="curve" smooth="yes"/>
      <point x="186.6" y="48.4"/>
      <point x="94.0" y="173.70000000000002"/>
      <point x="94.0" y="350.7" type="curve" smooth="yes"/>
      <point x="94.0" y="527.9"/>
      <point x="186.7" y="652.7"/>
      <point x="373.9" y="652.7" type="curve" smooth="yes"/>
      <point x="563.8000000000001" y="652.7"/>
      <point x="652.9" y="527.9"/>
      <point x="652.9" y="350.7" type="curve" smooth="yes"/>
      <point x="652.9" y="173.70000000000002"/>
      <point x="563.9" y="48.4"/>
    </contour>
    <contour>
      <point x="373.9" y="710.0" type="curve" smooth="yes"/>
      <point x="151.5" y="710.0"/>
      <point x="33.0" y="551.8"/>
      <point x="33.0" y="350.7" type="curve" smooth="yes"/>
      <point x="33.0" y="150.70000000000002"/>
      <point x="151.2" y="-10.0"/>
      <point x="373.9" y="-10.0" type="curve" smooth="yes"/>
      <point x="596.6" y="-10.0"/>
      <point x="714.8" y="150.70000000000002"/>
      <point x="714.8" y="350.7" type="curve" smooth="yes"/>
      <point x="714.8" y="551.8"/>
      <point x="596.3000000000001" y="710.0"/>
    </contour>
    <contour>
      <point x="226.79999999999998" y="354.6" type="curve" smooth="yes"/>
      <point x="226.79999999999998" y="195.79999999999998"/>
      <point x="282.8" y="123.39999999999999"/>
      <point x="381.0" y="123.39999999999999" type="curve" smooth="yes"/>
      <point x="414.6" y="123.39999999999999"/>
      <point x="446.7" y="126.2"/>
      <point x="482.3" y="143.1" type="curve"/>
      <point x="463.29999999999995" y="257.6" type="line"/>
      <point x="435.9" y="249.4"/>
      <point x="418.8" y="246.1"/>
      <point x="398.0" y="246.1" type="curve" smooth="yes"/>
      <point x="366.7" y="246.1"/>
      <point x="359.6" y="267.5"/>
      <point x="359.6" y="348.8" type="curve" smooth="yes"/>
      <point x="359.6" y="439.0"/>
      <point x="370.20000000000005" y="465.9"/>
      <point x="402.79999999999995" y="465.9" type="curve" smooth="yes"/>
      <point x="419.0" y="465.9"/>
      <point x="449.4" y="459.4"/>
      <point x="466.4" y="454.79999999999995" type="curve"/>
      <point x="488.5" y="566.2" type="line"/>
      <point x="461.09999999999997" y="582.1"/>
      <point x="417.79999999999995" y="588.8000000000001"/>
      <point x="379.2" y="588.8000000000001" type="curve" smooth="yes"/>
      <point x="288.5" y="588.8000000000001"/>
      <point x="226.79999999999998" y="531.0"/>
    </contour>
  </outline>
</glyph>
<glyph name="ordfeminine" format="2">
  <advance width="328.0"/>
  <unicode hex="00AA"/>
  <outline>
    <contour>
      <point x="28.299999999999997" y="231.0" type="line"/>
      <point x="302.9" y="231.0" type="line"/>
      <point x="302.9" y="323.8" type="line"/>
      <point x="28.299999999999997" y="323.8" type="line"/>
    </contour>
    <component base="a.superior" xOffset="8.0"/>
  </outline>
</glyph>
<glyph name="logicalnot" format="2">
  <advance width="456.2"/>
  <unicode hex="00AC"/>
  <outline>
    <contour>
      <point x="43.8" y="286.4" type="line"/>
      <point x="247.9" y="286.4" type="line"/>
      <point x="247.9" y="176.3" type="line"/>
      <point x="412.4" y="176.3" type="line"/>
      <point x="412.4" y="450.9" type="line"/>
      <point x="43.8" y="450.9" type="line"/>
    </contour>
  </outline>
</glyph>
<glyph name="registered" format="2">
  <advance width="713.7500000000001"/>
  <unicode hex="00AE"/>
  <outline>
    <contour>
      <point x="355.5" y="207.74999999999997" type="curve" smooth="yes"/>
      <point x="568.5" y="207.74999999999997"/>
      <point x="680.7500000000001" y="360.0"/>
      <point x="680.7500000000001" y="550.7500000000001" type="curve" smooth="yes"/>
      <point x="680.7500000000001" y="741.7500000000001"/>
      <point x="568.5" y="892.25"/>
      <point x="355.5" y="892.25" type="curve" smooth="yes"/>
      <point x="144.24999999999997" y="892.25"/>
      <point x="33.0" y="741.7500000000001"/>
      <point x="33.0" y="550.7500000000001" type="curve" smooth="yes"/>
      <point x="33.0" y="360.75"/>
      <point x="144.0" y="207.74999999999997"/>
    </contour>
    <contour>
      <point x="355.5" y="262.99999999999994" type="curve" smooth="yes"/>
      <point x="177.49999999999997" y="262.99999999999994"/>
      <point x="90.75" y="382.75"/>
      <point x="90.75" y="550.7500000000001" type="curve" smooth="yes"/>
      <point x="90.75" y="719.0"/>
      <point x="177.5" y="837.9999999999999"/>
      <point x="355.5" y="837.9999999999999" type="curve" smooth="yes"/>
      <point x="538.0" y="837.9999999999999"/>
      <point x="621.9999999999999" y="719.0"/>
      <point x="621.9999999999999" y="550.7500000000001" type="curve" smooth="yes"/>
      <point x="621.9999999999999" y="382.5"/>
      <point x="537.75" y="262.99999999999994"/>
    </contour>
    <contour>
      <point x="488.25000000000006" y="339.25" type="curve" smooth="yes"/>
      <point x="494.00000000000006" y="339.25"/>
      <point x="503.0" y="339.25"/>
      <point x="508.5" y="340.0" type="curve"/>
      <point x="508.5" y="463.50000000000006" type="line"/>
      <point x="506.74999999999994" y="463.5"/>
      <point x="503.99999999999994" y="463.5"/>
      <point x="501.99999999999994" y="463.5" type="curve" smooth="yes"/>
      <point x="472.75" y="463.75"/>
      <point x="457.25" y="489.75"/>
      <point x="450.25" y="507.25" type="curve"/>
      <point x="488.0" y="524.5"/>
      <point x="505.25" y="576.0000000000001"/>
      <point x="505.25" y="635.5" type="curve" smooth="yes"/>
      <point x="505.25" y="729.5"/>
      <point x="455.75" y="773.25"/>
      <point x="369.75" y="773.25" type="curve" smooth="yes"/>
      <point x="322.75" y="773.25"/>
      <point x="281.0" y="770.5"/>
      <point x="234.99999999999997" y="767.25" type="curve"/>
      <point x="234.99999999999997" y="345.0" type="line"/>
      <point x="346.25" y="345.0" type="line"/>
      <point x="346.25" y="468.50000000000006" type="line"/>
      <point x="347.25" y="468.50000000000006"/>
      <point x="348.99999999999994" y="468.50000000000006"/>
      <point x="350.0" y="468.50000000000006" type="curve" smooth="yes"/>
      <point x="352.0" y="468.50000000000006"/>
      <point x="352.75" y="468.50000000000006"/>
      <point x="354.5" y="468.5" type="curve"/>
      <point x="390.25000000000006" y="342.75"/>
      <point x="435.99999999999994" y="339.5"/>
    </contour>
    <contour>
      <point x="362.0" y="545.5" type="curve" smooth="yes"/>
      <point x="357.25" y="545.5"/>
      <point x="353.49999999999994" y="545.5"/>
      <point x="346.25" y="546.4999999999999" type="curve"/>
      <point x="346.25" y="668.0" type="line"/>
      <point x="355.99999999999994" y="669.9999999999999"/>
      <point x="362.0" y="669.9999999999999"/>
      <point x="366.99999999999994" y="669.9999999999999" type="curve" smooth="yes"/>
      <point x="386.0" y="669.9999999999999"/>
      <point x="390.0" y="653.7499999999999"/>
      <point x="390.0" y="616.0" type="curve" smooth="yes"/>
      <point x="390.0" y="564.0"/>
      <point x="384.5" y="545.5"/>
    </contour>
  </outline>
</glyph>
<glyph name="degree" format="2">
  <advance width="338.0"/>
  <unicode hex="00B0"/>
  <outline>
    <contour>
      <point x="169.0" y="366.0" type="curve" smooth="yes"/>
      <point x="271.0" y="366.0"/>
      <point x="316.2" y="442.0"/>
      <point x="316.2" y="538.0" type="curve" smooth="yes"/>
      <point x="316.2" y="627.0"/>
      <point x="277.3" y="710.0"/>
      <point x="169.0" y="710.0" type="curve" smooth="yes"/>
      <point x="60.7" y="710.0"/>
      <point x="21.8" y="627.0"/>
      <point x="21.8" y="538.0" type="curve" smooth="yes"/>
      <point x="21.8" y="442.0"/>
      <point x="67.0" y="366.0"/>
    </contour>
    <contour>
      <point x="169.0" y="494.1" type="curve" smooth="yes"/>
      <point x="151.7" y="494.1"/>
      <point x="140.9" y="510.5"/>
      <point x="140.9" y="537.0" type="curve" smooth="yes"/>
      <point x="140.9" y="561.5"/>
      <point x="150.6" y="577.9"/>
      <point x="169.0" y="577.9" type="curve" smooth="yes"/>
      <point x="187.4" y="577.9"/>
      <point x="197.1" y="561.5"/>
      <point x="197.1" y="537.0" type="curve" smooth="yes"/>
      <point x="197.1" y="510.5"/>
      <point x="186.3" y="494.1"/>
    </contour>
  </outline>
</glyph>
<glyph name="plusminus" format="2">
  <advance width="456.2"/>
  <unicode hex="00B1"/>
  <outline>
    <contour>
      <point x="43.8" y="-0.1" type="line"/>
      <point x="412.4" y="-0.1" type="line"/>
      <point x="412.4" y="164.4" type="line"/>
      <point x="312.29999999999995" y="164.4" type="line"/>
      <point x="312.29999999999995" y="247.8" type="line"/>
      <point x="412.4" y="247.8" type="line"/>
      <point x="412.4" y="412.3" type="line"/>
      <point x="312.29999999999995" y="412.3" type="line"/>
      <point x="312.29999999999995" y="504.3" type="line"/>
      <point x="143.8" y="504.3" type="line"/>
      <point x="143.8" y="412.3" type="line"/>
      <point x="43.8" y="412.3" type="line"/>
      <point x="43.8" y="247.8" type="line"/>
      <point x="143.8" y="247.8" type="line"/>
      <point x="143.8" y="164.4" type="line"/>
      <point x="43.8" y="164.4" type="line"/>
    </contour>
  </outline>
</glyph>
<glyph name="uni00B2" format="2">
  <advance width="299.59999999999997"/>
  <unicode hex="00B2"/>
  <outline>
    <contour>
      <point x="31.200000000000003" y="370.0" type="line"/>
      <point x="275.7" y="370.0" type="line"/>
      <point x="275.7" y="464.4" type="line"/>
      <point x="177.0" y="464.4" type="line"/>
      <point x="247.29999999999998" y="546.3"/>
      <point x="266.3" y="583.6"/>
      <point x="266.3" y="642.4" type="curve" smooth="yes"/>
      <point x="266.3" y="729.3000000000001"/>
      <point x="218.7" y="774.8"/>
      <point x="138.6" y="774.8" type="curve" smooth="yes"/>
      <point x="93.6" y="774.8"/>
      <point x="53.9" y="761.7"/>
      <point x="15.799999999999999" y="738.1" type="curve"/>
      <point x="56.7" y="631.6999999999999" type="line"/>
      <point x="78.30000000000001" y="642.6"/>
      <point x="92.2" y="647.1"/>
      <point x="109.7" y="647.1" type="curve" smooth="yes"/>
      <point x="129.5" y="647.1"/>
      <point x="143.1" y="631.1"/>
      <point x="143.1" y="611.8000000000001" type="curve" smooth="yes"/>
      <point x="143.1" y="577.5"/>
      <point x="96.8" y="517.5999999999999"/>
      <point x="31.200000000000003" y="455.7" type="curve"/>
    </contour>
  </outline>
</glyph>
<glyph name="uni00B3" format="2">
  <advance width="312.7"/>
  <unicode hex="00B3"/>
  <outline>
    <contour>
      <point x="20.3" y="393.7" type="line"/>
      <point x="63.699999999999996" y="372.40000000000003"/>
      <point x="95.5" y="365.7"/>
      <point x="139.6" y="365.7" type="curve" smooth="yes"/>
      <point x="229.79999999999998" y="365.7"/>
      <point x="285.9" y="410.3"/>
      <point x="285.9" y="489.0" type="curve" smooth="yes"/>
      <point x="285.9" y="531.4"/>
      <point x="264.5" y="565.5"/>
      <point x="226.3" y="585.5" type="curve"/>
      <point x="258.5" y="607.0"/>
      <point x="279.2" y="641.4000000000001"/>
      <point x="279.2" y="676.8" type="curve" smooth="yes"/>
      <point x="279.2" y="738.2"/>
      <point x="230.79999999999998" y="776.5999999999999"/>
      <point x="144.60000000000002" y="776.5999999999999" type="curve" smooth="yes"/>
      <point x="94.10000000000001" y="776.5999999999999"/>
      <point x="50.4" y="765.6999999999999"/>
      <point x="18.400000000000002" y="743.6999999999999" type="curve"/>
      <point x="53.699999999999996" y="652.1" type="line"/>
      <point x="62.699999999999996" y="657.5"/>
      <point x="84.4" y="663.1"/>
      <point x="113.30000000000001" y="663.1" type="curve" smooth="yes"/>
      <point x="141.70000000000002" y="663.1"/>
      <point x="160.0" y="654.2"/>
      <point x="160.0" y="638.1" type="curve" smooth="yes"/>
      <point x="160.0" y="624.6"/>
      <point x="150.0" y="615.5"/>
      <point x="127.5" y="615.5" type="curve" smooth="yes"/>
      <point x="83.39999999999999" y="615.5" type="line"/>
      <point x="83.39999999999999" y="527.1999999999999" type="line"/>
      <point x="127.39999999999999" y="527.1999999999999" type="line" smooth="yes"/>
      <point x="156.7" y="527.1999999999999"/>
      <point x="164.7" y="516.9"/>
      <point x="164.7" y="501.0" type="curve" smooth="yes"/>
      <point x="164.7" y="482.8"/>
      <point x="149.29999999999998" y="472.09999999999997"/>
      <point x="121.3" y="472.09999999999997" type="curve" smooth="yes"/>
      <point x="94.1" y="472.09999999999997"/>
      <point x="79.0" y="475.59999999999997"/>
      <point x="58.8" y="485.8" type="curve"/>
    </contour>
  </outline>
</glyph>
<glyph name="uni00B5" format="2">
  <advance width="483.1"/>
  <unicode hex="00B5"/>
  <outline>
    <contour>
      <point x="22.5" y="-210.0" type="line"/>
      <point x="201.9" y="-210.0" type="line"/>
      <point x="201.9" y="-5.1000000000000005" type="line"/>
      <point x="207.1" y="-6.300000000000001"/>
      <point x="214.1" y="-8.2"/>
      <point x="223.9" y="-8.2" type="curve" smooth="yes"/>
      <point x="247.10000000000002" y="-8.2"/>
      <point x="271.70000000000005" y="6.799999999999999"/>
      <point x="286.3" y="24.9" type="curve"/>
      <point x="307.7" y="4.9"/>
      <point x="320.70000000000005" y="-10.0"/>
      <point x="374.2" y="-10.0" type="curve" smooth="yes"/>
      <point x="422.1" y="-10.0"/>
      <point x="456.09999999999997" y="2.9000000000000004"/>
      <point x="481.3" y="17.2" type="curve"/>
      <point x="469.0" y="168.20000000000002" type="line"/>
      <point x="465.4" y="166.9"/>
      <point x="459.3" y="165.9"/>
      <point x="454.8" y="165.9" type="curve" smooth="yes"/>
      <point x="446.9" y="165.9"/>
      <point x="442.9" y="170.5"/>
      <point x="442.9" y="191.5" type="curve" smooth="yes"/>
      <point x="442.9" y="550.0" type="line"/>
      <point x="255.39999999999998" y="550.0" type="line"/>
      <point x="255.39999999999998" y="170.20000000000002" type="line"/>
      <point x="246.29999999999998" y="164.1"/>
      <point x="238.5" y="161.89999999999998"/>
      <point x="229.9" y="161.89999999999998" type="curve" smooth="yes"/>
      <point x="221.3" y="161.89999999999998"/>
      <point x="210.9" y="166.3"/>
      <point x="210.9" y="185.8" type="curve" smooth="yes"/>
      <point x="210.9" y="550.0" type="line"/>
      <point x="22.5" y="550.0" type="line"/>
    </contour>
  </outline>
</glyph>
<glyph name="paragraph" format="2">
  <advance width="598.5"/>
  <unicode hex="00B6"/>
  <outline>
    <contour>
      <point x="423.59999999999997" y="-210.0" type="line"/>
      <point x="569.0" y="-210.0" type="line"/>
      <point x="569.0" y="740.0" type="line"/>
      <point x="423.59999999999997" y="740.0" type="line"/>
    </contour>
    <contour>
      <point x="244.39999999999998" y="373.0" type="line"/>
      <point x="226.3" y="378.5"/>
      <point x="197.1" y="420.4"/>
      <point x="197.1" y="485.4" type="curve" smooth="yes"/>
      <point x="197.1" y="537.7"/>
      <point x="218.0" y="573.7"/>
      <point x="254.00000000000003" y="573.6999999999999" type="curve"/>
      <point x="254.00000000000003" y="-210.0" type="line"/>
      <point x="399.40000000000003" y="-210.0" type="line"/>
      <point x="399.40000000000003" y="740.0" type="line"/>
      <point x="306.8" y="740.0" type="line" smooth="yes"/>
      <point x="90.3" y="740.0"/>
      <point x="31.799999999999997" y="623.1"/>
      <point x="31.799999999999997" y="493.29999999999995" type="curve" smooth="yes"/>
      <point x="31.799999999999997" y="372.0"/>
      <point x="92.4" y="279.2"/>
      <point x="223.1" y="251.8" type="curve"/>
    </contour>
  </outline>
</glyph>
<glyph name="periodcentered" format="2">
  <advance width="219.0"/>
  <unicode hex="00B7"/>
  <outline>
    <contour>
      <point x="9.5" y="326.8" type="curve" smooth="yes"/>
      <point x="9.5" y="249.1"/>
      <point x="39.199999999999996" y="210.1"/>
      <point x="109.5" y="210.1" type="curve" smooth="yes"/>
      <point x="179.8" y="210.1"/>
      <point x="209.5" y="249.1"/>
      <point x="209.5" y="326.8" type="curve" smooth="yes"/>
      <point x="209.5" y="405.5"/>
      <point x="179.8" y="444.5"/>
      <point x="109.5" y="444.5" type="curve" smooth="yes"/>
      <point x="39.199999999999996" y="444.5"/>
      <point x="9.5" y="405.5"/>
    </contour>
  </outline>
</glyph>
<glyph name="uni00B9" format="2">
  <advance width="276.6"/>
  <unicode hex="00B9"/>
  <outline>
    <contour>
      <point x="30.3" y="370.0" type="line"/>
      <point x="264.5" y="370.0" type="line"/>
      <point x="264.5" y="464.9" type="line"/>
      <point x="212.6" y="464.9" type="line"/>
      <point x="212.6" y="768.5" type="line"/>
      <point x="151.29999999999998" y="768.5" type="line"/>
      <point x="15.600000000000001" y="733.5" type="line"/>
      <point x="36.7" y="624.9" type="line"/>
      <point x="89.60000000000001" y="636.1999999999999" type="line"/>
      <point x="89.60000000000001" y="464.9" type="line"/>
      <point x="30.3" y="464.9" type="line"/>
    </contour>
  </outline>
</glyph>
<glyph name="ordmasculine" format="2">
  <advance width="323.8"/>
  <unicode hex="00BA"/>
  <outline>
    <contour>
      <point x="28.099999999999998" y="231.0" type="line"/>
      <point x="302.7" y="231.0" type="line"/>
      <point x="302.7" y="323.8" type="line"/>
      <point x="28.099999999999998" y="323.8" type="line"/>
    </contour>
    <component base="o.superior" xOffset="8.0"/>
  </outline>
</glyph>
<glyph name="questiondown" format="2">
  <advance width="402.6"/>
  <unicode hex="00BF"/>
  <outline>
    <contour>
      <point x="313.6" y="281.0" type="line"/>
      <point x="150.79999999999998" y="281.0" type="line"/>
      <point x="150.6" y="210.9" type="line"/>
      <point x="61.7" y="172.5"/>
      <point x="27.8" y="89.3"/>
      <point x="27.8" y="-5.699999999999999" type="curve" smooth="yes"/>
      <point x="27.8" y="-138.0"/>
      <point x="106.60000000000001" y="-209.1"/>
      <point x="243.10000000000002" y="-209.1" type="curve" smooth="yes"/>
      <point x="306.4" y="-209.1"/>
      <point x="370.2" y="-187.39999999999998"/>
      <point x="411.8" y="-156.9" type="curve"/>
      <point x="348.4" y="12.0" type="line"/>
      <point x="315.20000000000005" y="-9.8"/>
      <point x="295.8" y="-12.7"/>
      <point x="274.3" y="-12.7" type="curve" smooth="yes"/>
      <point x="239.2" y="-12.7"/>
      <point x="222.79999999999998" y="6.0"/>
      <point x="222.79999999999998" y="29.8" type="curve" smooth="yes"/>
      <point x="222.79999999999998" y="57.199999999999996"/>
      <point x="234.4" y="93.6"/>
      <point x="317.90000000000003" y="127.50000000000001" type="curve"/>
    </contour>
    <contour>
      <point x="331.90000000000003" y="433.4" type="curve" smooth="yes"/>
      <point x="331.90000000000003" y="511.1"/>
      <point x="303.09999999999997" y="550.1"/>
      <point x="231.9" y="550.1" type="curve" smooth="yes"/>
      <point x="162.5" y="550.1"/>
      <point x="131.9" y="511.1"/>
      <point x="131.9" y="433.4" type="curve" smooth="yes"/>
      <point x="131.9" y="354.7"/>
      <point x="162.5" y="315.7"/>
      <point x="231.9" y="315.7" type="curve" smooth="yes"/>
      <point x="303.1" y="315.7"/>
      <point x="331.90000000000003" y="354.7"/>
    </contour>
  </outline>
</glyph>
<glyph name="AE" format="2">
  <advance width="741.6"/>
  <unicode hex="00C6"/>
  <anchor x="421.70000000000005" y="700.0" name="top"/>
  <outline>
    <contour>
      <point x="1.8" y="0.0" type="line"/>
      <point x="210.5" y="0.0" type="line"/>
      <point x="239.10000000000002" y="106.0" type="line"/>
      <point x="343.6" y="106.0" type="line"/>
      <point x="343.6" y="0.0" type="line"/>
      <point x="726.5" y="0.0" type="line"/>
      <point x="726.5" y="180.7" type="line"/>
      <point x="523.4" y="180.7" type="line"/>
      <point x="523.4" y="263.7" type="line"/>
      <point x="689.8" y="263.7" type="line"/>
      <point x="689.8" y="432.9" type="line"/>
      <point x="523.4" y="432.9" type="line"/>
      <point x="523.4" y="514.8" type="line"/>
      <point x="713.7" y="514.8" type="line"/>
      <point x="713.7" y="700.0" type="line"/>
      <point x="218.8" y="700.0" type="line"/>
    </contour>
    <contour>
      <point x="281.4" y="282.5" type="line"/>
      <point x="341.8" y="570.3000000000001" type="line"/>
      <point x="341.8" y="282.5" type="line"/>
    </contour>
  </outline>
</glyph>
<glyph name="multiply" format="2">
  <advance width="446.2"/>
  <unicode hex="00D7"/>
  <outline>
    <contour>
      <point x="146.8" y="150.8" type="line"/>
      <point x="223.1" y="223.79999999999998" type="line"/>
      <point x="299.4" y="150.8" type="line"/>
      <point x="414.0" y="268.5" type="line"/>
      <point x="341.09999999999997" y="338.7" type="line"/>
      <point x="414.0" y="409.0" type="line"/>
      <point x="299.40000000000003" y="526.7" type="line"/>
      <point x="223.1" y="453.59999999999997" type="line"/>
      <point x="146.8" y="526.7" type="line"/>
      <point x="32.2" y="409.0" type="line"/>
      <point x="105.0" y="338.7" type="line"/>
      <point x="32.199999999999996" y="268.5" type="line"/>
    </contour>
  </outline>
</glyph>
<glyph name="Oslash" format="2">
  <advance width="517.0"/>
  <unicode hex="00D8"/>
  <anchor x="260.25" y="700.0" name="top"/>
  <outline>
    <contour>
      <point x="94.0" y="-10.0" type="line"/>
      <point x="160.5" y="122.75" type="line"/>
      <point x="165.25" y="119.25" type="line"/>
      <point x="411.5" y="566.75" type="line"/>
      <point x="416.25" y="562.0" type="line"/>
      <point x="495.5" y="720.0" type="line"/>
      <point x="426.75" y="720.0" type="line"/>
      <point x="367.75" y="604.25" type="line"/>
      <point x="362.75" y="607.5" type="line"/>
      <point x="113.75" y="155.5" type="line"/>
      <point x="108.75" y="159.25" type="line"/>
      <point x="24.5" y="-10.0" type="line"/>
    </contour>
    <contour>
      <point x="260.25" y="150.25" type="curve" smooth="yes"/>
      <point x="214.75" y="150.25"/>
      <point x="189.0" y="179.0"/>
      <point x="189.0" y="349.0" type="curve" smooth="yes"/>
      <point x="189.0" y="520.25"/>
      <point x="215.75" y="549.75"/>
      <point x="260.25" y="549.75" type="curve" smooth="yes"/>
      <point x="305.75" y="549.75"/>
      <point x="331.75" y="522.5"/>
      <point x="331.75" y="351.0" type="curve" smooth="yes"/>
      <point x="331.75" y="179.5"/>
      <point x="304.75" y="150.25"/>
    </contour>
    <contour>
      <point x="259.25" y="-10.0" type="curve" smooth="yes"/>
      <point x="416.25" y="-10.0"/>
      <point x="503.0" y="75.75"/>
      <point x="503.0" y="352.5" type="curve" smooth="yes"/>
      <point x="503.0" y="626.25"/>
      <point x="416.0" y="710.0"/>
      <point x="260.25" y="710.0" type="curve" smooth="yes"/>
      <point x="104.0" y="710.0"/>
      <point x="17.0" y="624.0"/>
      <point x="17.0" y="348.0" type="curve" smooth="yes"/>
      <point x="17.0" y="75.5"/>
      <point x="103.0" y="-10.0"/>
    </contour>
  </outline>
</glyph>
<glyph name="Thorn" format="2">
  <advance width="507.9"/>
  <unicode hex="00DE"/>
  <outline>
    <contour>
      <point x="27.299999999999997" y="0.0" type="line"/>
      <point x="217.70000000000002" y="0.0" type="line"/>
      <point x="217.70000000000002" y="96.0" type="line"/>
      <point x="259.0" y="92.0"/>
      <point x="256.0" y="92.0"/>
      <point x="292.6" y="92.0" type="curve" smooth="yes"/>
      <point x="437.09999999999997" y="92.0"/>
      <point x="494.7" y="185.1"/>
      <point x="494.7" y="376.0" type="curve" smooth="yes"/>
      <point x="494.7" y="560.6"/>
      <point x="436.2" y="648.0"/>
      <point x="247.70000000000002" y="648.0" type="curve" smooth="yes"/>
      <point x="240.6" y="648.0"/>
      <point x="229.1" y="647.9"/>
      <point x="218.6" y="647.8" type="curve"/>
      <point x="218.6" y="700.0" type="line"/>
      <point x="27.299999999999997" y="700.0" type="line"/>
    </contour>
    <contour>
      <point x="248.8" y="270.3" type="curve" smooth="yes"/>
      <point x="239.4" y="270.3"/>
      <point x="233.6" y="270.40000000000003"/>
      <point x="218.6" y="272.6" type="curve"/>
      <point x="218.6" y="473.2" type="line"/>
      <point x="239.70000000000002" y="476.29999999999995"/>
      <point x="249.9" y="476.3"/>
      <point x="261.2" y="476.3" type="curve" smooth="yes"/>
      <point x="293.70000000000005" y="476.3"/>
      <point x="303.6" y="447.8"/>
      <point x="303.6" y="386.70000000000005" type="curve" smooth="yes"/>
      <point x="303.6" y="324.5"/>
      <point x="300.5" y="270.3"/>
    </contour>
  </outline>
</glyph>
<glyph name="germandbls" format="2">
  <advance width="627.45"/>
  <unicode hex="00DF"/>
  <outline>
    <contour>
      <point x="53.15" y="0.0" type="line"/>
      <point x="240.65" y="0.0" type="line"/>
      <point x="240.65" y="494.85" type="line" smooth="yes"/>
      <point x="240.65" y="548.6"/>
      <point x="272.2" y="585.1"/>
      <point x="333.7" y="585.1" type="curve" smooth="yes"/>
      <point x="380.55" y="585.1"/>
      <point x="396.25" y="576.6"/>
      <point x="396.25" y="552.0" type="curve" smooth="yes"/>
      <point x="396.25" y="531.3"/>
      <point x="382.35" y="525.85"/>
      <point x="347.05" y="506.1" type="curve" smooth="yes"/>
      <point x="295.85" y="481.25"/>
      <point x="269.0" y="438.1"/>
      <point x="269.0" y="365.25" type="curve" smooth="yes"/>
      <point x="269.0" y="256.8"/>
      <point x="310.9" y="209.85"/>
      <point x="393.5" y="194.8" type="curve" smooth="yes"/>
      <point x="441.65" y="185.7"/>
      <point x="449.2" y="187.35"/>
      <point x="449.2" y="173.4" type="curve" smooth="yes"/>
      <point x="449.2" y="159.4"/>
      <point x="433.6" y="153.0"/>
      <point x="409.45" y="153.0" type="curve" smooth="yes"/>
      <point x="367.25" y="153.0"/>
      <point x="316.15" y="161.0"/>
      <point x="274.15" y="171.8" type="curve"/>
      <point x="257.05" y="17.85" type="line"/>
      <point x="302.6" y="-1.4500000000000002"/>
      <point x="358.65" y="-9.9"/>
      <point x="415.05" y="-9.9" type="curve" smooth="yes"/>
      <point x="541.5" y="-9.9"/>
      <point x="624.8" y="53.5"/>
      <point x="624.8" y="184.7" type="curve" smooth="yes"/>
      <point x="624.8" y="282.05"/>
      <point x="588.0" y="334.1"/>
      <point x="498.35" y="351.15" type="curve" smooth="yes"/>
      <point x="451.95" y="359.05"/>
      <point x="444.2" y="366.4"/>
      <point x="444.2" y="377.75" type="curve" smooth="yes"/>
      <point x="444.2" y="390.75"/>
      <point x="451.1" y="392.9"/>
      <point x="480.85" y="403.85" type="curve" smooth="yes"/>
      <point x="560.8" y="433.85"/>
      <point x="592.65" y="475.65"/>
      <point x="592.65" y="553.5" type="curve" smooth="yes"/>
      <point x="592.65" y="682.65"/>
      <point x="497.8" y="750.0"/>
      <point x="323.75" y="750.0" type="curve" smooth="yes"/>
      <point x="150.85" y="750.0"/>
      <point x="53.1" y="675.1"/>
      <point x="53.15" y="533.3" type="curve" smooth="yes"/>
      <point x="53.15" y="524.35" type="line"/>
      <point x="6.0" y="515.95" type="line"/>
      <point x="6.0" y="371.45" type="line"/>
      <point x="53.15" y="371.45" type="line"/>
    </contour>
  </outline>
</glyph>
<glyph name="ae" format="2">
  <advance width="661.95"/>
  <unicode hex="00E6"/>
  <anchor x="331.9" y="550.0" name="top"/>
  <outline>
    <contour>
      <point x="147.55" y="-10.0" type="curve" smooth="yes"/>
      <point x="212.55" y="-10.0"/>
      <point x="253.65" y="10.5"/>
      <point x="300.65" y="49.7" type="curve"/>
      <point x="301.75" y="49.7" type="line"/>
      <point x="344.65" y="7.65"/>
      <point x="391.6" y="-10.0"/>
      <point x="465.6" y="-10.0" type="curve" smooth="yes"/>
      <point x="526.85" y="-10.0"/>
      <point x="584.1" y="2.25"/>
      <point x="647.2" y="27.55" type="curve"/>
      <point x="622.65" y="188.9" type="line"/>
      <point x="577.05" y="176.95"/>
      <point x="523.15" y="167.95"/>
      <point x="498.1" y="167.95" type="curve" smooth="yes"/>
      <point x="444.45" y="167.95"/>
      <point x="422.25" y="173.45"/>
      <point x="421.55" y="200.0" type="curve" smooth="yes"/>
      <point x="421.45" y="202.45"/>
      <point x="421.45" y="206.4"/>
      <point x="421.5" y="207.45" type="curve"/>
      <point x="491.5" y="212.45"/>
      <point x="598.4" y="224.05"/>
      <point x="645.75" y="230.0" type="curve"/>
      <point x="646.65" y="251.1"/>
      <point x="647.75" y="282.35"/>
      <point x="647.75" y="297.7" type="curve" smooth="yes"/>
      <point x="647.75" y="490.4"/>
      <point x="590.25" y="560.0"/>
      <point x="448.2" y="560.0" type="curve" smooth="yes"/>
      <point x="406.55" y="560.0"/>
      <point x="369.45" y="552.45"/>
      <point x="332.7" y="524.4" type="curve"/>
      <point x="331.6" y="524.4" type="line"/>
      <point x="287.3" y="550.25"/>
      <point x="249.8" y="560.0"/>
      <point x="196.65" y="560.0" type="curve" smooth="yes"/>
      <point x="146.45" y="560.0"/>
      <point x="73.75" y="545.35"/>
      <point x="24.0" y="526.0" type="curve"/>
      <point x="60.2" y="357.3" type="line"/>
      <point x="119.05" y="375.6"/>
      <point x="160.05" y="376.6"/>
      <point x="180.3" y="376.6" type="curve" smooth="yes"/>
      <point x="212.85" y="376.6"/>
      <point x="231.05" y="364.3"/>
      <point x="231.05" y="345.95" type="curve" smooth="yes"/>
      <point x="231.05" y="344.8" type="line"/>
      <point x="77.8" y="335.25"/>
      <point x="6.3" y="291.05"/>
      <point x="6.3" y="164.1" type="curve" smooth="yes"/>
      <point x="6.3" y="54.8"/>
      <point x="60.75" y="-10.0"/>
    </contour>
    <contour>
      <point x="211.05" y="135.2" type="curve" smooth="yes"/>
      <point x="200.1" y="135.2"/>
      <point x="190.2" y="148.25"/>
      <point x="190.2" y="180.5" type="curve" smooth="yes"/>
      <point x="190.2" y="222.4"/>
      <point x="212.0" y="232.95"/>
      <point x="232.0" y="234.8" type="curve"/>
      <point x="232.1" y="223.2"/>
      <point x="232.1" y="208.3"/>
      <point x="232.1" y="197.9" type="curve" smooth="yes"/>
      <point x="232.1" y="180.95"/>
      <point x="231.75" y="161.65"/>
      <point x="232.25" y="144.35" type="curve"/>
      <point x="230.6" y="142.1"/>
      <point x="219.45" y="135.2"/>
    </contour>
    <contour>
      <point x="419.75" y="318.8" type="curve"/>
      <point x="416.05" y="400.25"/>
      <point x="429.95" y="412.15"/>
      <point x="438.75" y="412.15" type="curve" smooth="yes"/>
      <point x="454.65" y="412.15"/>
      <point x="458.75" y="394.2"/>
      <point x="462.25" y="321.05" type="curve"/>
      <point x="451.75" y="320.5"/>
      <point x="432.0" y="318.9"/>
    </contour>
  </outline>
</glyph>
<glyph name="eth" format="2">
  <advance width="474.75"/>
  <unicode hex="00F0"/>
  <outline>
    <contour>
      <point x="302.0" y="389.25" type="curve"/>
      <point x="310.75" y="516.25" type="line"/>
      <point x="280.0" y="530.0"/>
      <point x="247.0" y="536.75"/>
      <point x="214.75" y="536.75" type="curve" smooth="yes"/>
      <point x="71.75" y="536.75"/>
      <point x="14.5" y="442.75"/>
      <point x="14.5" y="245.5" type="curve" smooth="yes"/>
      <point x="14.5" y="73.0"/>
      <point x="83.5" y="-10.0"/>
      <point x="226.25" y="-10.0" type="curve" smooth="yes"/>
      <point x="399.25" y="-10.0"/>
      <point x="459.75" y="83.0"/>
      <point x="459.75" y="354.25" type="curve" smooth="yes"/>
      <point x="459.75" y="615.25"/>
      <point x="357.25" y="750.0"/>
      <point x="165.5" y="750.0" type="curve" smooth="yes"/>
      <point x="111.75" y="750.0"/>
      <point x="61.5" y="736.5"/>
      <point x="21.25" y="720.75" type="curve"/>
      <point x="39.75" y="605.5" type="line"/>
      <point x="64.75" y="613.0"/>
      <point x="93.75" y="621.0"/>
      <point x="123.5" y="621.0" type="curve" smooth="yes"/>
      <point x="244.5" y="621.0"/>
      <point x="280.5" y="573.5"/>
      <point x="280.5" y="384.25" type="curve" smooth="yes"/>
      <point x="280.5" y="142.5"/>
      <point x="268.25" y="119.25"/>
      <point x="234.0" y="119.25" type="curve" smooth="yes"/>
      <point x="206.5" y="119.25"/>
      <point x="195.5" y="147.0"/>
      <point x="195.5" y="246.75" type="curve" smooth="yes"/>
      <point x="195.5" y="388.75"/>
      <point x="214.5" y="402.75"/>
      <point x="246.25" y="402.75" type="curve" smooth="yes"/>
      <point x="264.75" y="402.75"/>
      <point x="281.25" y="398.5"/>
    </contour>
    <contour>
      <point x="158.25" y="556.0" type="line"/>
      <point x="276.5" y="629.75" type="line"/>
      <point x="278.25" y="633.0" type="line"/>
      <point x="445.75" y="749.5" type="line"/>
      <point x="330.75" y="750.5" type="line"/>
      <point x="222.75" y="676.75" type="line"/>
      <point x="224.0" y="672.0" type="line"/>
      <point x="48.5" y="557.0" type="line"/>
    </contour>
  </outline>
</glyph>
<glyph name="divide" format="2">
  <advance width="456.2"/>
  <unicode hex="00F7"/>
  <outline>
    <contour>
      <point x="134.7" y="122.9" type="curve" smooth="yes"/>
      <point x="134.7" y="65.0"/>
      <point x="163.4" y="35.0"/>
      <point x="228.1" y="35.0" type="curve" smooth="yes"/>
      <point x="292.0" y="35.0"/>
      <point x="321.6" y="65.0"/>
      <point x="321.6" y="122.9" type="curve" smooth="yes"/>
      <point x="321.6" y="181.9"/>
      <point x="292.0" y="211.9"/>
      <point x="228.1" y="211.9" type="curve" smooth="yes"/>
      <point x="163.4" y="211.9"/>
      <point x="134.7" y="181.9"/>
    </contour>
    <contour>
      <point x="134.7" y="533.9" type="curve" smooth="yes"/>
      <point x="134.7" y="476.0"/>
      <point x="163.4" y="446.0"/>
      <point x="228.1" y="446.0" type="curve" smooth="yes"/>
      <point x="292.0" y="446.0"/>
      <point x="321.6" y="476.0"/>
      <point x="321.6" y="533.9" type="curve" smooth="yes"/>
      <point x="321.6" y="592.9"/>
      <point x="292.0" y="622.9"/>
      <point x="228.1" y="622.9" type="curve" smooth="yes"/>
      <point x="163.4" y="622.9"/>
      <point x="134.7" y="592.9"/>
    </contour>
    <contour>
      <point x="43.8" y="247.5" type="line"/>
      <point x="412.40000000000003" y="247.5" type="line"/>
      <point x="412.40000000000003" y="412.0" type="line"/>
      <point x="43.8" y="412.0" type="line"/>
    </contour>
  </outline>
</glyph>
<glyph name="oslash" format="2">
  <advance width="484.25"/>
  <unicode hex="00F8"/>
  <anchor x="241.0" y="550.0" name="top"/>
  <outline>
    <contour>
      <point x="241.0" y="-10.0" type="curve" smooth="yes"/>
      <point x="54.5" y="-10.0"/>
      <point x="14.5" y="123.0"/>
      <point x="14.5" y="276.25" type="curve" smooth="yes"/>
      <point x="14.5" y="428.0"/>
      <point x="52.75" y="560.0"/>
      <point x="241.0" y="560.0" type="curve" smooth="yes"/>
      <point x="429.5" y="560.0"/>
      <point x="468.75" y="428.0"/>
      <point x="468.75" y="276.25" type="curve" smooth="yes"/>
      <point x="468.75" y="123.0"/>
      <point x="427.75" y="-10.0"/>
    </contour>
    <contour>
      <point x="241.0" y="144.25" type="curve" smooth="yes"/>
      <point x="282.25" y="144.25"/>
      <point x="294.75" y="157.25"/>
      <point x="294.75" y="276.25" type="curve" smooth="yes"/>
      <point x="294.75" y="394.0"/>
      <point x="284.0" y="406.75"/>
      <point x="241.0" y="406.75" type="curve" smooth="yes"/>
      <point x="196.25" y="406.75"/>
      <point x="187.5" y="394.0"/>
      <point x="187.5" y="276.25" type="curve" smooth="yes"/>
      <point x="187.5" y="157.25"/>
      <point x="198.0" y="144.25"/>
    </contour>
    <contour>
      <point x="11.75" y="0.0" type="line"/>
      <point x="100.75" y="139.75" type="line"/>
      <point x="103.5" y="139.75" type="line"/>
      <point x="333.25" y="459.25" type="line"/>
      <point x="336.0" y="459.25" type="line"/>
      <point x="400.25" y="560.0" type="line"/>
      <point x="471.5" y="560.0" type="line"/>
      <point x="382.0" y="421.5" type="line"/>
      <point x="379.25" y="421.5" type="line"/>
      <point x="147.25" y="97.25" type="line"/>
      <point x="144.5" y="97.25" type="line"/>
      <point x="82.0" y="0.0" type="line"/>
    </contour>
  </outline>
</glyph>
<glyph name="thorn" format="2">
  <advance width="466.4"/>
  <unicode hex="00FE"/>
  <outline>
    <contour>
      <point x="22.5" y="-210.0" type="line"/>
      <point x="208.3" y="-210.0" type="line"/>
      <point x="208.3" y="-9.7" type="line"/>
      <point x="214.7" y="-9.9"/>
      <point x="220.29999999999998" y="-10.0"/>
      <point x="226.8" y="-10.0" type="curve" smooth="yes"/>
      <point x="392.0" y="-10.0"/>
      <point x="454.5" y="72.5"/>
      <point x="454.5" y="292.5" type="curve" smooth="yes"/>
      <point x="454.5" y="476.7"/>
      <point x="405.7" y="560.0"/>
      <point x="300.20000000000005" y="560.0" type="curve" smooth="yes"/>
      <point x="272.59999999999997" y="560.0"/>
      <point x="235.9" y="547.9"/>
      <point x="210.1" y="530.6" type="curve"/>
      <point x="210.1" y="740.0" type="line"/>
      <point x="22.5" y="740.0" type="line"/>
    </contour>
    <contour>
      <point x="230.70000000000002" y="139.5" type="curve" smooth="yes"/>
      <point x="225.0" y="139.5"/>
      <point x="218.1" y="140.9"/>
      <point x="210.9" y="143.7" type="curve"/>
      <point x="210.9" y="377.7" type="line"/>
      <point x="220.0" y="383.09999999999997"/>
      <point x="225.8" y="385.79999999999995"/>
      <point x="234.20000000000002" y="385.79999999999995" type="curve" smooth="yes"/>
      <point x="251.5" y="385.79999999999995"/>
      <point x="256.7" y="366.79999999999995"/>
      <point x="256.7" y="272.2" type="curve" smooth="yes"/>
      <point x="256.7" y="160.8"/>
      <point x="250.50000000000003" y="139.5"/>
    </contour>
  </outline>
</glyph>
<glyph name="Dcroat" format="2">
  <advance width="506.19999999999993"/>
  <unicode hex="0110"/>
  <outline>
    <contour>
      <point x="-0.2999999999999998" y="267.3" type="line"/>
      <point x="254.9" y="267.3" type="line"/>
      <point x="254.9" y="432.5" type="line"/>
      <point x="-0.2999999999999998" y="432.5" type="line"/>
    </contour>
    <component base="D" xOffset="0.7999999999999999"/>
  </outline>
</glyph>
<glyph name="dcroat" format="2">
  <advance width="474.7"/>
  <unicode hex="0111"/>
  <outline>
    <contour>
      <point x="164.4" y="603.0" type="line"/>
      <point x="486.0" y="603.0" type="line"/>
      <point x="486.0" y="707.0" type="line"/>
      <point x="164.4" y="707.0" type="line"/>
    </contour>
    <component base="d"/>
  </outline>
</glyph>
<glyph name="Hbar" format="2">
  <advance width="505.3"/>
  <unicode hex="0126"/>
  <outline>
    <contour>
      <point x="0.3000000000000004" y="502.7" type="line"/>
      <point x="27.799999999999997" y="502.7" type="line"/>
      <point x="27.799999999999997" y="0.0" type="line"/>
      <point x="217.3" y="0.0" type="line"/>
      <point x="217.3" y="226.3" type="line"/>
      <point x="289.0" y="226.3" type="line"/>
      <point x="289.0" y="0.0" type="line"/>
      <point x="477.5" y="0.0" type="line"/>
      <point x="477.5" y="502.7" type="line"/>
      <point x="505.00000000000006" y="502.7" type="line"/>
      <point x="505.00000000000006" y="649.0" type="line"/>
      <point x="477.5" y="649.0" type="line"/>
      <point x="477.5" y="700.0" type="line"/>
      <point x="289.0" y="700.0" type="line"/>
      <point x="289.0" y="649.0" type="line"/>
      <point x="217.3" y="649.0" type="line"/>
      <point x="217.3" y="700.0" type="line"/>
      <point x="27.799999999999997" y="700.0" type="line"/>
      <point x="27.799999999999997" y="649.0" type="line"/>
      <point x="0.3000000000000004" y="649.0" type="line"/>
    </contour>
    <contour>
      <point x="217.3" y="416.8" type="line"/>
      <point x="217.3" y="502.7" type="line"/>
      <point x="289.0" y="502.7" type="line"/>
      <point x="289.0" y="416.8" type="line"/>
    </contour>
  </outline>
</glyph>
<glyph name="hbar" format="2">
  <advance width="463.59999999999997"/>
  <unicode hex="0127"/>
  <outline>
    <contour>
      <point x="-7.800000000000001" y="603.0" type="line"/>
      <point x="295.0" y="603.0" type="line"/>
      <point x="295.0" y="707.0" type="line"/>
      <point x="-7.800000000000001" y="707.0" type="line"/>
    </contour>
    <component base="h"/>
  </outline>
</glyph>
<glyph name="Idotaccent" format="2">
  <advance width="244.10000000000002"/>
  <unicode hex="0130"/>
  <outline>
    <contour>
      <point x="123.4" y="719.1" type="curve" smooth="yes"/>
      <point x="194.0" y="719.1"/>
      <point x="229.6" y="756.2"/>
      <point x="229.6" y="829.1" type="curve" smooth="yes"/>
      <point x="229.6" y="903.8"/>
      <point x="192.2" y="940.0"/>
      <point x="123.4" y="940.0" type="curve" smooth="yes"/>
      <point x="53.7" y="940.0"/>
      <point x="16.3" y="903.8"/>
      <point x="16.3" y="829.1" type="curve" smooth="yes"/>
      <point x="16.3" y="755.3"/>
      <point x="53.7" y="719.1"/>
    </contour>
    <component base="I"/>
  </outline>
</glyph>
<glyph name="dotlessi" format="2">
  <advance width="235.2"/>
  <unicode hex="0131"/>
  <anchor x="206.1" y="10.0" name="ogonek"/>
  <anchor x="119.4" y="0.0" name="bottom"/>
  <anchor x="117.6" y="550.0" name="top"/>
  <outline>
    <contour>
      <point x="22.5" y="0.0" type="line"/>
      <point x="212.7" y="0.0" type="line"/>
      <point x="212.7" y="550.0" type="line"/>
      <point x="22.5" y="550.0" type="line"/>
    </contour>
  </outline>
</glyph>
<glyph name="Ldot" format="2">
  <advance width="407.1"/>
  <unicode hex="013F"/>
  <outline>
    <contour>
      <point x="256.2" y="402.09999999999997" type="curve" smooth="yes"/>
      <point x="256.2" y="349.59999999999997"/>
      <point x="276.9" y="323.2"/>
      <point x="325.6" y="323.2" type="curve" smooth="yes"/>
      <point x="375.2" y="323.2"/>
      <point x="395.9" y="349.59999999999997"/>
      <point x="395.9" y="402.09999999999997" type="curve" smooth="yes"/>
      <point x="395.9" y="455.59999999999997"/>
      <point x="375.2" y="482.0"/>
      <point x="325.6" y="482.0" type="curve" smooth="yes"/>
      <point x="276.9" y="482.0"/>
      <point x="256.2" y="455.59999999999997"/>
    </contour>
    <component base="L"/>
  </outline>
</glyph>
<glyph name="ldot" format="2">
  <advance width="381.1"/>
  <unicode hex="0140"/>
  <outline>
    <contour>
      <point x="308.3" y="303.79999999999995" type="curve" smooth="yes"/>
      <point x="347.5" y="303.79999999999995"/>
      <point x="371.3" y="327.2"/>
      <point x="371.3" y="381.09999999999997" type="curve" smooth="yes"/>
      <point x="371.3" y="435.9"/>
      <point x="347.5" y="459.29999999999995"/>
      <point x="308.3" y="459.29999999999995" type="curve" smooth="yes"/>
      <point x="270.0" y="459.29999999999995"/>
      <point x="246.2" y="435.9"/>
      <point x="246.2" y="381.09999999999997" type="curve" smooth="yes"/>
      <point x="246.2" y="327.2"/>
      <point x="270.0" y="303.79999999999995"/>
    </contour>
    <component base="l"/>
  </outline>
</glyph>
<glyph name="Lslash" format="2">
  <advance width="422.4"/>
  <unicode hex="0141"/>
  <outline>
    <contour>
      <point x="5.2" y="203.8" type="line"/>
      <point x="42.6" y="224.1" type="line"/>
      <point x="42.6" y="0.0" type="line"/>
      <point x="409.9" y="0.0" type="line"/>
      <point x="409.9" y="184.2" type="line"/>
      <point x="233.0" y="184.2" type="line"/>
      <point x="233.0" y="319.59999999999997" type="line"/>
      <point x="344.0" y="374.8" type="line"/>
      <point x="344.0" y="554.2" type="line"/>
      <point x="233.0" y="499.0" type="line"/>
      <point x="233.0" y="700.0" type="line"/>
      <point x="42.6" y="700.0" type="line"/>
      <point x="42.6" y="403.5" type="line"/>
      <point x="5.2" y="383.2" type="line"/>
    </contour>
  </outline>
</glyph>
<glyph name="lslash" format="2">
  <advance width="292.90000000000003"/>
  <unicode hex="0142"/>
  <outline>
    <contour>
      <point x="181.6" y="-10.0" type="curve" smooth="yes"/>
      <point x="222.5" y="-10.0"/>
      <point x="260.0" y="3.9999999999999996"/>
      <point x="282.29999999999995" y="16.900000000000002" type="curve"/>
      <point x="269.9" y="192.8" type="line"/>
      <point x="260.4" y="191.0"/>
      <point x="251.4" y="189.6"/>
      <point x="245.0" y="189.6" type="curve" smooth="yes"/>
      <point x="231.7" y="189.6"/>
      <point x="222.7" y="196.9"/>
      <point x="222.7" y="227.2" type="curve" smooth="yes"/>
      <point x="222.7" y="360.2" type="line"/>
      <point x="276.0" y="400.40000000000003" type="line"/>
      <point x="276.0" y="556.0" type="line"/>
      <point x="222.7" y="515.8" type="line"/>
      <point x="222.7" y="740.0" type="line"/>
      <point x="35.2" y="740.0" type="line"/>
      <point x="35.2" y="365.9" type="line"/>
      <point x="2.1000000000000005" y="340.40000000000003" type="line"/>
      <point x="2.1000000000000005" y="184.8" type="line"/>
      <point x="35.4" y="210.4" type="line"/>
      <point x="35.6" y="176.4" type="line" smooth="yes"/>
      <point x="37.3" y="44.300000000000004"/>
      <point x="82.0" y="-10.0"/>
    </contour>
  </outline>
</glyph>
<glyph name="Eng" format="2">
  <advance width="513.25"/>
  <unicode hex="014A"/>
  <outline>
    <contour>
      <point x="27.25" y="0.0" type="line"/>
      <point x="194.5" y="0.0" type="line"/>
      <point x="194.5" y="288.0" type="line"/>
      <point x="303.0" y="-4.5" type="line"/>
      <point x="303.0" y="-6.5" type="line" smooth="yes"/>
      <point x="303.0" y="-19.0"/>
      <point x="291.25" y="-28.5"/>
      <point x="271.25" y="-28.5" type="curve" smooth="yes"/>
      <point x="256.75" y="-28.5"/>
      <point x="241.75" y="-28.0"/>
      <point x="219.5" y="-19.0" type="curve"/>
      <point x="185.5" y="-187.0" type="line"/>
      <point x="218.25" y="-205.25"/>
      <point x="256.0" y="-220.0"/>
      <point x="316.0" y="-220.0" type="curve" smooth="yes"/>
      <point x="421.75" y="-220.0"/>
      <point x="486.0" y="-151.5"/>
      <point x="486.0" y="-15.5" type="curve" smooth="yes"/>
      <point x="486.0" y="700.0" type="line"/>
      <point x="319.25" y="700.0" type="line"/>
      <point x="319.25" y="385.0" type="line"/>
      <point x="222.75" y="700.0" type="line"/>
      <point x="27.25" y="700.0" type="line"/>
    </contour>
  </outline>
</glyph>
<glyph name="eng" format="2">
  <advance width="464.5"/>
  <unicode hex="014B"/>
  <outline>
    <contour>
      <point x="443.8" y="23.0" type="curve"/>
      <point x="443.8" y="423.09999999999997" type="line" smooth="yes"/>
      <point x="443.8" y="505.09999999999997"/>
      <point x="405.40000000000003" y="560.0"/>
      <point x="321.90000000000003" y="560.0" type="curve" smooth="yes"/>
      <point x="273.2" y="560.0"/>
      <point x="231.60000000000002" y="543.1999999999999"/>
      <point x="192.5" y="511.2" type="curve"/>
      <point x="192.5" y="550.0" type="line"/>
      <point x="22.5" y="550.0" type="line"/>
      <point x="22.5" y="0.0" type="line"/>
      <point x="210.9" y="0.0" type="line"/>
      <point x="210.9" y="374.7" type="line"/>
      <point x="218.6" y="378.7"/>
      <point x="226.6" y="383.2"/>
      <point x="236.70000000000002" y="383.2" type="curve" smooth="yes"/>
      <point x="247.79999999999998" y="383.2"/>
      <point x="255.39999999999998" y="376.1"/>
      <point x="255.39999999999998" y="358.3" type="curve" smooth="yes"/>
      <point x="255.39999999999998" y="18.0" type="line" smooth="yes"/>
      <point x="255.39999999999998" y="-6.300000000000001"/>
      <point x="250.70000000000002" y="-14.700000000000001"/>
      <point x="240.4" y="-14.700000000000001" type="curve" smooth="yes"/>
      <point x="236.4" y="-14.700000000000001"/>
      <point x="229.3" y="-13.6"/>
      <point x="225.8" y="-12.5" type="curve"/>
      <point x="216.7" y="-212.79999999999998" type="line"/>
      <point x="236.6" y="-217.9"/>
      <point x="258.1" y="-220.0"/>
      <point x="283.90000000000003" y="-220.0" type="curve" smooth="yes"/>
      <point x="383.3" y="-220.0"/>
      <point x="443.8" y="-129.3"/>
    </contour>
  </outline>
</glyph>
<glyph name="OE" format="2">
  <advance width="689.7"/>
  <unicode hex="0152"/>
  <outline>
    <contour>
      <point x="674.6" y="0.0" type="line"/>
      <point x="674.6" y="180.7" type="line"/>
      <point x="478.1" y="180.7" type="line"/>
      <point x="478.1" y="263.7" type="line"/>
      <point x="637.9" y="263.7" type="line"/>
      <point x="637.9" y="432.9" type="line"/>
      <point x="478.1" y="432.9" type="line"/>
      <point x="478.1" y="514.8" type="line"/>
      <point x="661.8000000000001" y="514.8" type="line"/>
      <point x="661.8000000000001" y="700.0" type="line"/>
      <point x="432.20000000000005" y="700.0" type="line"/>
      <point x="376.9" y="707.6"/>
      <point x="324.8" y="710.0"/>
      <point x="272.3" y="710.0" type="curve" smooth="yes"/>
      <point x="77.30000000000001" y="710.0"/>
      <point x="11.7" y="583.9000000000001"/>
      <point x="11.7" y="354.20000000000005" type="curve" smooth="yes"/>
      <point x="11.7" y="73.4"/>
      <point x="96.30000000000001" y="-10.0"/>
      <point x="268.20000000000005" y="-10.0" type="curve" smooth="yes"/>
      <point x="326.3" y="-10.0"/>
      <point x="399.4" y="-8.7"/>
      <point x="477.20000000000005" y="0.0" type="curve"/>
    </contour>
    <contour>
      <point x="288.6" y="165.9" type="line"/>
      <point x="279.6" y="163.9"/>
      <point x="266.6" y="161.89999999999998"/>
      <point x="251.6" y="161.89999999999998" type="curve" smooth="yes"/>
      <point x="219.70000000000002" y="161.89999999999998"/>
      <point x="208.0" y="209.9"/>
      <point x="208.0" y="350.3" type="curve" smooth="yes"/>
      <point x="208.0" y="494.1"/>
      <point x="216.8" y="536.1999999999999"/>
      <point x="252.29999999999998" y="536.1999999999999" type="curve" smooth="yes"/>
      <point x="268.5" y="536.1999999999999"/>
      <point x="272.29999999999995" y="534.1"/>
      <point x="288.6" y="532.1" type="curve"/>
    </contour>
  </outline>
</glyph>
<glyph name="oe" format="2">
  <advance width="698.3"/>
  <unicode hex="0153"/>
  <outline>
    <contour>
      <point x="11.9" y="276.15" type="curve" smooth="yes"/>
      <point x="11.9" y="115.9"/>
      <point x="52.6" y="-10.0"/>
      <point x="232.05" y="-10.0" type="curve" smooth="yes"/>
      <point x="282.8" y="-10.0"/>
      <point x="322.9" y="6.35"/>
      <point x="353.75" y="24.1" type="curve"/>
      <point x="393.15" y="6.85"/>
      <point x="435.0" y="-10.0"/>
      <point x="502.4" y="-10.0" type="curve" smooth="yes"/>
      <point x="570.55" y="-10.0"/>
      <point x="626.8" y="3.0"/>
      <point x="681.75" y="27.3" type="curve"/>
      <point x="657.2" y="190.45" type="line"/>
      <point x="598.0" y="175.0"/>
      <point x="545.9" y="169.3"/>
      <point x="528.95" y="169.3" type="curve" smooth="yes"/>
      <point x="486.45" y="169.3"/>
      <point x="450.45" y="173.8"/>
      <point x="450.45" y="200.2" type="curve" smooth="yes"/>
      <point x="450.45" y="202.5"/>
      <point x="450.35" y="204.8"/>
      <point x="450.5" y="207.6" type="curve"/>
      <point x="525.4" y="212.6"/>
      <point x="640.8" y="225.2"/>
      <point x="682.1" y="230.0" type="curve"/>
      <point x="683.1" y="249.2"/>
      <point x="684.1" y="280.6"/>
      <point x="684.1" y="297.7" type="curve" smooth="yes"/>
      <point x="684.1" y="468.7"/>
      <point x="636.1" y="560.0"/>
      <point x="475.2" y="560.0" type="curve" smooth="yes"/>
      <point x="429.1" y="560.0"/>
      <point x="391.15" y="540.2"/>
      <point x="359.35" y="520.75" type="curve"/>
      <point x="321.85" y="544.35"/>
      <point x="279.45" y="560.0"/>
      <point x="232.05" y="560.0" type="curve" smooth="yes"/>
      <point x="50.75" y="560.0"/>
      <point x="11.9" y="434.9"/>
    </contour>
    <contour>
      <point x="206.2" y="276.05" type="curve" smooth="yes"/>
      <point x="206.2" y="382.3"/>
      <point x="209.95" y="393.65"/>
      <point x="231.95" y="393.65" type="curve" smooth="yes"/>
      <point x="252.9" y="393.65"/>
      <point x="257.45" y="382.3"/>
      <point x="257.45" y="276.05" type="curve" smooth="yes"/>
      <point x="257.45" y="169.05"/>
      <point x="252.5" y="157.25"/>
      <point x="231.95" y="157.25" type="curve" smooth="yes"/>
      <point x="210.5" y="157.25"/>
      <point x="206.2" y="169.05"/>
    </contour>
    <contour>
      <point x="450.45" y="318.7" type="curve"/>
      <point x="452.05" y="406.6"/>
      <point x="458.6" y="412.15"/>
      <point x="472.4" y="412.15" type="curve" smooth="yes"/>
      <point x="484.15" y="412.15"/>
      <point x="495.3" y="396.45"/>
      <point x="496.8" y="321.05" type="curve"/>
      <point x="480.95" y="319.9"/>
      <point x="463.25" y="318.8"/>
    </contour>
  </outline>
</glyph>
<glyph name="uni0162" format="2">
  <advance width="462.8"/>
  <unicode hex="0162"/>
  <outline>
    <contour>
      <point x="112.2" y="-89.3" type="curve"/>
      <point x="112.5" y="-209.79999999999998" type="line"/>
      <point x="138.5" y="-217.8"/>
      <point x="161.2" y="-220.0"/>
      <point x="184.39999999999998" y="-220.0" type="curve" smooth="yes"/>
      <point x="278.0" y="-220.0"/>
      <point x="308.0" y="-169.39999999999998"/>
      <point x="308.0" y="-102.6" type="curve" smooth="yes"/>
      <point x="308.0" y="-69.10000000000001"/>
      <point x="292.8" y="-15.8"/>
      <point x="281.4" y="6.4" type="curve"/>
      <point x="167.1" y="6.4" type="line"/>
      <point x="179.2" y="-10.0"/>
      <point x="188.79999999999998" y="-41.699999999999996"/>
      <point x="188.79999999999998" y="-56.4" type="curve" smooth="yes"/>
      <point x="188.79999999999998" y="-80.4"/>
      <point x="170.3" y="-93.10000000000001"/>
      <point x="148.6" y="-93.10000000000001" type="curve" smooth="yes"/>
      <point x="138.29999999999998" y="-93.10000000000001"/>
      <point x="128.8" y="-92.1"/>
    </contour>
    <component base="T"/>
  </outline>
</glyph>
<glyph name="Tbar" format="2">
  <advance width="464.8"/>
  <unicode hex="0166"/>
  <outline>
    <contour>
      <point x="63.4" y="236.5" type="line"/>
      <point x="138.1" y="236.5" type="line"/>
      <point x="138.1" y="0.0" type="line"/>
      <point x="327.6" y="0.0" type="line"/>
      <point x="327.6" y="236.5" type="line"/>
      <point x="399.6" y="236.5" type="line"/>
      <point x="399.6" y="405.1" type="line"/>
      <point x="327.6" y="405.1" type="line"/>
      <point x="327.6" y="512.2" type="line"/>
      <point x="452.3" y="512.2" type="line"/>
      <point x="452.3" y="700.0" type="line"/>
      <point x="12.5" y="700.0" type="line"/>
      <point x="12.5" y="512.2" type="line"/>
      <point x="138.1" y="512.2" type="line"/>
      <point x="138.1" y="405.1" type="line"/>
      <point x="63.4" y="405.1" type="line"/>
    </contour>
  </outline>
</glyph>
<glyph name="tbar" format="2">
  <advance width="323.3"/>
  <unicode hex="0167"/>
  <outline>
    <contour>
      <point x="236.0" y="239.9" type="line"/>
      <point x="295.7" y="239.9" type="line"/>
      <point x="295.7" y="363.5" type="line"/>
      <point x="236.0" y="363.5" type="line"/>
      <point x="236.0" y="400.29999999999995" type="line"/>
      <point x="302.7" y="400.29999999999995" type="line"/>
      <point x="302.7" y="550.0" type="line"/>
      <point x="236.0" y="550.0" type="line"/>
      <point x="236.0" y="655.1" type="line"/>
      <point x="72.2" y="655.1" type="line"/>
      <point x="48.5" y="550.0" type="line"/>
      <point x="4.9" y="542.6" type="line"/>
      <point x="4.9" y="401.2" type="line"/>
      <point x="48.5" y="401.2" type="line"/>
      <point x="48.5" y="363.5" type="line"/>
      <point x="7.6" y="363.5" type="line"/>
      <point x="7.6" y="239.9" type="line"/>
      <point x="48.5" y="239.9" type="line"/>
      <point x="48.5" y="190.5" type="line" smooth="yes"/>
      <point x="48.5" y="54.3"/>
      <point x="98.8" y="-10.0"/>
      <point x="192.0" y="-10.0" type="curve" smooth="yes"/>
      <point x="229.20000000000002" y="-10.0"/>
      <point x="277.79999999999995" y="-6.0"/>
      <point x="324.6" y="15.7" type="curve"/>
      <point x="297.8" y="168.5" type="line"/>
      <point x="278.3" y="164.5"/>
      <point x="267.3" y="164.1"/>
      <point x="263.7" y="164.1" type="curve" smooth="yes"/>
      <point x="247.5" y="164.1"/>
      <point x="236.0" y="171.6"/>
      <point x="236.0" y="210.29999999999998" type="curve" smooth="yes"/>
    </contour>
  </outline>
</glyph>
<glyph name="uogonek" format="2">
  <advance width="481.3"/>
  <unicode hex="0173"/>
  <outline>
    <contour>
      <point x="408.5" y="-202.8" type="curve" smooth="yes"/>
      <point x="442.4" y="-202.8"/>
      <point x="464.3" y="-198.79999999999998"/>
      <point x="483.2" y="-190.79999999999998" type="curve"/>
      <point x="475.4" y="-53.599999999999994" type="line"/>
      <point x="472.09999999999997" y="-54.6"/>
      <point x="466.90000000000003" y="-55.599999999999994"/>
      <point x="459.7" y="-55.599999999999994" type="curve" smooth="yes"/>
      <point x="445.09999999999997" y="-55.599999999999994"/>
      <point x="434.70000000000005" y="-46.7"/>
      <point x="434.70000000000005" y="-32.1" type="curve" smooth="yes"/>
      <point x="434.70000000000005" y="-13.1"/>
      <point x="445.40000000000003" y="-1.9000000000000001"/>
      <point x="479.5" y="17.2" type="curve"/>
      <point x="467.2" y="178.1" type="line"/>
      <point x="463.59999999999997" y="176.8"/>
      <point x="457.5" y="175.8"/>
      <point x="453.0" y="175.8" type="curve" smooth="yes"/>
      <point x="445.09999999999997" y="175.8"/>
      <point x="441.09999999999997" y="180.4"/>
      <point x="441.09999999999997" y="201.4" type="curve" smooth="yes"/>
      <point x="441.09999999999997" y="550.0" type="line"/>
      <point x="253.59999999999997" y="550.0" type="line"/>
      <point x="253.59999999999997" y="174.70000000000002" type="line"/>
      <point x="244.49999999999997" y="168.6"/>
      <point x="236.7" y="166.39999999999998"/>
      <point x="228.10000000000002" y="166.39999999999998" type="curve" smooth="yes"/>
      <point x="219.5" y="166.39999999999998"/>
      <point x="209.1" y="170.8"/>
      <point x="209.1" y="190.3" type="curve" smooth="yes"/>
      <point x="209.1" y="550.0" type="line"/>
      <point x="20.7" y="550.0" type="line"/>
      <point x="20.7" y="153.9" type="line" smooth="yes"/>
      <point x="20.7" y="32.3"/>
      <point x="76.60000000000001" y="-10.0"/>
      <point x="150.7" y="-10.0" type="curve" smooth="yes"/>
      <point x="198.4" y="-10.0"/>
      <point x="238.5" y="6.799999999999999"/>
      <point x="274.6" y="35.699999999999996" type="curve"/>
      <point x="296.9" y="9.4"/>
      <point x="326.1" y="-10.0"/>
      <point x="372.4" y="-10.0" type="curve" smooth="yes"/>
      <point x="387.8" y="-10.0"/>
      <point x="401.9" y="-8.9"/>
      <point x="414.5" y="-6.3999999999999995" type="curve"/>
      <point x="378.5" y="8.6" type="line"/>
      <point x="324.0" y="-6.699999999999999"/>
      <point x="285.0" y="-48.199999999999996"/>
      <point x="285.0" y="-99.1" type="curve" smooth="yes"/>
      <point x="285.0" y="-165.5"/>
      <point x="331.0" y="-202.8"/>
    </contour>
  </outline>
</glyph>
<glyph name="longs" format="2">
  <advance width="285.79999999999995"/>
  <unicode hex="017F"/>
  <outline>
    <contour>
      <point x="240.70000000000002" y="525.4" type="line"/>
      <point x="240.70000000000002" y="567.8"/>
      <point x="258.0" y="579.0"/>
      <point x="277.4" y="579.0" type="curve" smooth="yes"/>
      <point x="287.4" y="579.0"/>
      <point x="315.29999999999995" y="574.4"/>
      <point x="326.0" y="570.1" type="curve"/>
      <point x="353.5" y="720.6" type="line"/>
      <point x="316.40000000000003" y="737.0"/>
      <point x="275.4" y="750.0"/>
      <point x="218.4" y="750.0" type="curve" smooth="yes"/>
      <point x="115.60000000000001" y="750.0"/>
      <point x="53.199999999999996" y="676.6"/>
      <point x="53.199999999999996" y="539.5999999999999" type="curve" smooth="yes"/>
      <point x="53.199999999999996" y="524.5" type="line"/>
      <point x="5.9" y="516.2" type="line"/>
      <point x="5.9" y="371.59999999999997" type="line"/>
      <point x="53.199999999999996" y="371.59999999999997" type="line"/>
      <point x="53.199999999999996" y="0.0" type="line"/>
      <point x="240.70000000000002" y="0.0" type="line"/>
    </contour>
  </outline>
</glyph>
<glyph name="uni018F" format="2">
  <advance width="460.3"/>
  <unicode hex="018F"/>
  <outline>
    <contour>
      <point x="56.9" y="501.09999999999997" type="line"/>
      <point x="106.89999999999999" y="518.9"/>
      <point x="142.70000000000002" y="525.7"/>
      <point x="175.89999999999998" y="525.7" type="curve" smooth="yes"/>
      <point x="220.1" y="525.7"/>
      <point x="244.4" y="498.8"/>
      <point x="248.0" y="452.5" type="curve" smooth="yes"/>
      <point x="248.9" y="446.0"/>
      <point x="248.90000000000003" y="440.5"/>
      <point x="248.89999999999998" y="433.1" type="curve"/>
      <point x="165.8" y="423.4"/>
      <point x="91.39999999999999" y="414.4"/>
      <point x="15.899999999999999" y="404.59999999999997" type="curve"/>
      <point x="14.8" y="376.7"/>
      <point x="13.8" y="340.3"/>
      <point x="13.8" y="320.7" type="curve" smooth="yes"/>
      <point x="13.8" y="92.7"/>
      <point x="79.89999999999999" y="-10.0"/>
      <point x="226.2" y="-10.0" type="curve" smooth="yes"/>
      <point x="371.59999999999997" y="-10.0"/>
      <point x="448.6" y="108.3"/>
      <point x="448.6" y="360.7" type="curve" smooth="yes"/>
      <point x="448.6" y="589.1"/>
      <point x="371.70000000000005" y="709.1"/>
      <point x="225.0" y="709.1" type="curve" smooth="yes"/>
      <point x="153.1" y="709.1"/>
      <point x="93.8" y="694.4"/>
      <point x="29.6" y="661.1" type="curve"/>
    </contour>
    <contour>
      <point x="254.20000000000002" y="293.6" type="curve"/>
      <point x="254.3" y="198.29999999999998"/>
      <point x="241.70000000000002" y="154.8"/>
      <point x="221.4" y="154.8" type="curve" smooth="yes"/>
      <point x="200.5" y="154.8"/>
      <point x="195.9" y="176.20000000000002"/>
      <point x="194.5" y="288.4" type="curve"/>
      <point x="211.2" y="290.4"/>
      <point x="236.6" y="292.5"/>
    </contour>
  </outline>
</glyph>
<glyph name="florin" format="2">
  <advance width="483.0"/>
  <unicode hex="0192"/>
  <outline>
    <contour>
      <point x="90.8" y="401.59999999999997" type="line"/>
      <point x="66.69999999999999" y="257.0" type="line"/>
      <point x="113.1" y="257.0" type="line"/>
      <point x="38.5" y="-210.0" type="line"/>
      <point x="215.3" y="-210.0" type="line"/>
      <point x="289.8" y="257.0" type="line"/>
      <point x="354.6" y="257.0" type="line"/>
      <point x="379.0" y="409.9" type="line"/>
      <point x="314.3" y="409.9" type="line"/>
      <point x="324.40000000000003" y="473.8" type="line" smooth="yes"/>
      <point x="331.0" y="511.5"/>
      <point x="342.09999999999997" y="524.6"/>
      <point x="366.0" y="524.6" type="curve" smooth="yes"/>
      <point x="379.9" y="524.6"/>
      <point x="392.2" y="522.5"/>
      <point x="413.1" y="514.8" type="curve"/>
      <point x="469.7" y="679.1" type="line"/>
      <point x="429.5" y="700.7"/>
      <point x="391.6" y="710.0"/>
      <point x="343.6" y="710.0" type="curve" smooth="yes"/>
      <point x="244.5" y="710.0"/>
      <point x="174.2" y="632.9"/>
      <point x="151.9" y="499.59999999999997" type="curve" smooth="yes"/>
      <point x="137.6" y="409.9" type="line"/>
    </contour>
  </outline>
</glyph>
<glyph name="uni0237" format="2">
  <advance width="235.3"/>
  <unicode hex="0237"/>
  <anchor x="118.60000000000001" y="550.0" name="top"/>
  <outline>
    <contour>
      <point x="212.8" y="12.3" type="curve" smooth="yes"/>
      <point x="212.8" y="550.0" type="line"/>
      <point x="25.299999999999997" y="550.0" type="line"/>
      <point x="25.299999999999997" y="27.4" type="line"/>
      <point x="25.299999999999997" y="-17.599999999999998"/>
      <point x="16.1" y="-30.6"/>
      <point x="-10.5" y="-30.6" type="curve" smooth="yes"/>
      <point x="-21.8" y="-30.599999999999998"/>
      <point x="-31.3" y="-27.9"/>
      <point x="-45.3" y="-23.4" type="curve"/>
      <point x="-70.60000000000001" y="-203.29999999999998" type="line"/>
      <point x="-35.199999999999996" y="-214.3"/>
      <point x="-0.6999999999999998" y="-220.0"/>
      <point x="29.2" y="-220.0" type="curve" smooth="yes"/>
      <point x="163.20000000000002" y="-220.0"/>
      <point x="212.8" y="-142.8"/>
    </contour>
  </outline>
</glyph>
<glyph name="uni0259" format="2">
  <advance width="453.70000000000005"/>
  <unicode hex="0259"/>
  <outline>
    <contour>
      <point x="18.099999999999998" y="319.9" type="curve"/>
      <point x="17.0" y="300.0"/>
      <point x="16.099999999999998" y="268.4"/>
      <point x="16.099999999999998" y="252.3" type="curve" smooth="yes"/>
      <point x="16.099999999999998" y="81.2"/>
      <point x="64.10000000000001" y="-10.0"/>
      <point x="225.1" y="-10.0" type="curve" smooth="yes"/>
      <point x="369.59999999999997" y="-10.0"/>
      <point x="441.8" y="92.69999999999999"/>
      <point x="441.8" y="284.3" type="curve" smooth="yes"/>
      <point x="441.8" y="467.7"/>
      <point x="375.7" y="560.0"/>
      <point x="224.29999999999998" y="560.0" type="curve" smooth="yes"/>
      <point x="140.4" y="560.0"/>
      <point x="78.1" y="546.5"/>
      <point x="18.400000000000002" y="522.6" type="curve"/>
      <point x="43.1" y="359.5" type="line"/>
      <point x="102.3" y="375.1"/>
      <point x="154.0" y="380.4"/>
      <point x="171.2" y="380.4" type="curve" smooth="yes"/>
      <point x="211.7" y="380.4"/>
      <point x="245.3" y="377.1"/>
      <point x="245.3" y="349.90000000000003" type="curve" smooth="yes"/>
      <point x="245.3" y="347.1"/>
      <point x="245.3" y="345.3"/>
      <point x="245.29999999999998" y="342.5" type="curve"/>
      <point x="169.8" y="337.5"/>
      <point x="59.3" y="324.90000000000003"/>
    </contour>
    <contour>
      <point x="247.00000000000003" y="229.4" type="curve"/>
      <point x="245.40000000000003" y="145.2"/>
      <point x="239.70000000000002" y="139.6"/>
      <point x="227.9" y="139.6" type="curve" smooth="yes"/>
      <point x="216.9" y="139.6"/>
      <point x="207.7" y="155.4"/>
      <point x="206.2" y="227.1" type="curve"/>
      <point x="218.29999999999998" y="228.20000000000002"/>
      <point x="235.79999999999998" y="229.20000000000002"/>
    </contour>
  </outline>
</glyph>
<glyph name="gravecomb" format="2">
  <unicode hex="0300"/>
  <anchor x="-306.3" y="789.1" name="top"/>
  <anchor x="-237.2" y="550.0" name="_top"/>
  <outline>
    <contour>
      <point x="-312.0" y="595.1" type="line"/>
      <point x="-162.2" y="595.1" type="line"/>
      <point x="-217.70000000000002" y="789.1" type="line"/>
      <point x="-411.8" y="789.1" type="line"/>
    </contour>
  </outline>
</glyph>
<glyph name="acutecomb" format="2">
  <unicode hex="0301"/>
  <anchor x="-185.3" y="789.1" name="top"/>
  <anchor x="-237.2" y="550.0" name="_top"/>
  <outline>
    <contour>
      <point x="-306.7" y="595.1" type="line"/>
      <point x="-165.6" y="595.1" type="line"/>
      <point x="-64.9" y="789.1" type="line"/>
      <point x="-251.20000000000002" y="789.1" type="line"/>
    </contour>
  </outline>
</glyph>
<glyph name="uni0302" format="2">
  <unicode hex="0302"/>
  <anchor x="-237.1" y="781.8" name="top"/>
  <anchor x="-237.1" y="550.0" name="_top"/>
  <anchor x="-16.95" y="651.95" name="top_viet"/>
  <outline>
    <contour>
      <point x="-404.1" y="595.1" type="line"/>
      <point x="-253.95" y="595.1" type="line"/>
      <point x="-237.2" y="704.85" type="line"/>
      <point x="-220.6" y="595.1" type="line"/>
      <point x="-70.2" y="595.1" type="line"/>
      <point x="-133.6" y="789.1" type="line"/>
      <point x="-339.7" y="789.1" type="line"/>
    </contour>
  </outline>
</glyph>
<glyph name="tildecomb" format="2">
  <unicode hex="0303"/>
  <anchor x="-237.2" y="771.9" name="top"/>
  <anchor x="-237.2" y="550.0" name="_top"/>
  <outline>
    <contour>
      <point x="-402.9" y="595.0999999999999" type="curve"/>
      <point x="-304.40000000000003" y="595.0999999999999" type="line"/>
      <point x="-304.40000000000003" y="597.0999999999999"/>
      <point x="-303.5" y="602.6"/>
      <point x="-303.5" y="604.5999999999999" type="curve" smooth="yes"/>
      <point x="-303.5" y="617.6"/>
      <point x="-296.90000000000003" y="627.4"/>
      <point x="-284.09999999999997" y="627.4" type="curve" smooth="yes"/>
      <point x="-268.1" y="627.4"/>
      <point x="-201.4" y="602.3"/>
      <point x="-170.0" y="602.3" type="curve" smooth="yes"/>
      <point x="-107.5" y="602.3"/>
      <point x="-69.4" y="636.1"/>
      <point x="-69.4" y="731.9" type="curve" smooth="yes"/>
      <point x="-69.4" y="747.8"/>
      <point x="-70.39999999999999" y="764.8"/>
      <point x="-72.5" y="781.9" type="curve"/>
      <point x="-171.0" y="781.9" type="line"/>
      <point x="-171.0" y="780.8"/>
      <point x="-171.0" y="775.3000000000001"/>
      <point x="-171.0" y="773.3" type="curve" smooth="yes"/>
      <point x="-171.0" y="759.4000000000001"/>
      <point x="-179.4" y="750.5"/>
      <point x="-190.39999999999998" y="750.5" type="curve" smooth="yes"/>
      <point x="-208.0" y="750.5"/>
      <point x="-252.1" y="775.6"/>
      <point x="-303.7" y="775.6" type="curve" smooth="yes"/>
      <point x="-368.90000000000003" y="775.6"/>
      <point x="-406.0" y="736.4"/>
      <point x="-406.0" y="645.0999999999999" type="curve" smooth="yes"/>
      <point x="-406.0" y="630.1"/>
      <point x="-405.9" y="613.1"/>
    </contour>
  </outline>
</glyph>
<glyph name="uni0304" format="2">
  <unicode hex="0304"/>
  <anchor x="-237.2" y="765.6" name="top"/>
  <anchor x="-237.2" y="550.0" name="_top"/>
  <outline>
    <contour>
      <point x="-371.7" y="600.6" type="line"/>
      <point x="-102.7" y="600.6" type="line"/>
      <point x="-102.7" y="747.6" type="line"/>
      <point x="-371.7" y="747.6" type="line"/>
    </contour>
  </outline>
</glyph>
<glyph name="uni0306" format="2">
  <unicode hex="0306"/>
  <anchor x="-237.2" y="763.0" name="top"/>
  <anchor x="-237.2" y="550.0" name="_top"/>
  <outline>
    <contour>
      <point x="-236.29999999999998" y="599.5999999999999" type="curve" smooth="yes"/>
      <point x="-116.3" y="599.5999999999999"/>
      <point x="-71.8" y="634.8000000000001"/>
      <point x="-71.80000000000001" y="746.5999999999999" type="curve" smooth="yes"/>
      <point x="-71.8" y="755.6"/>
      <point x="-71.8" y="765.6"/>
      <point x="-72.8" y="775.6" type="curve"/>
      <point x="-175.20000000000002" y="775.6" type="line"/>
      <point x="-175.2" y="773.6"/>
      <point x="-175.2" y="772.6"/>
      <point x="-175.20000000000002" y="770.5999999999999" type="curve" smooth="yes"/>
      <point x="-175.2" y="751.6"/>
      <point x="-179.1" y="727.1"/>
      <point x="-236.29999999999998" y="727.1" type="curve" smooth="yes"/>
      <point x="-294.40000000000003" y="727.1"/>
      <point x="-298.3" y="751.6"/>
      <point x="-298.29999999999995" y="770.6" type="curve" smooth="yes"/>
      <point x="-298.3" y="772.6"/>
      <point x="-298.3" y="773.6"/>
      <point x="-298.3" y="775.6" type="curve"/>
      <point x="-401.6" y="775.6" type="line"/>
      <point x="-402.59999999999997" y="765.6"/>
      <point x="-402.59999999999997" y="755.6"/>
      <point x="-402.59999999999997" y="746.6" type="curve" smooth="yes"/>
      <point x="-402.6" y="618.6"/>
      <point x="-336.5" y="599.5999999999999"/>
    </contour>
  </outline>
</glyph>
<glyph name="uni0307" format="2">
  <unicode hex="0307"/>
  <anchor x="-237.2" y="751.1" name="top"/>
  <anchor x="-237.2" y="550.0" name="_top"/>
  <outline>
    <contour>
      <point x="-237.2" y="588.8" type="curve" smooth="yes"/>
      <point x="-190.9" y="588.8"/>
      <point x="-160.70000000000002" y="607.7"/>
      <point x="-160.70000000000002" y="677.7" type="curve" smooth="yes"/>
      <point x="-160.70000000000002" y="747.8"/>
      <point x="-190.9" y="766.8"/>
      <point x="-237.2" y="766.8" type="curve" smooth="yes"/>
      <point x="-283.5" y="766.8"/>
      <point x="-313.7" y="747.8"/>
      <point x="-313.7" y="677.7" type="curve" smooth="yes"/>
      <point x="-313.7" y="607.7"/>
      <point x="-283.5" y="588.8"/>
    </contour>
  </outline>
</glyph>
<glyph name="uni0308" format="2">
  <unicode hex="0308"/>
  <anchor x="-237.2" y="751.1" name="top"/>
  <anchor x="-237.2" y="550.0" name="_top"/>
  <outline>
    <contour>
      <point x="-147.4" y="593.1" type="curve" smooth="yes"/>
      <point x="-101.10000000000001" y="593.1"/>
      <point x="-71.8" y="611.1"/>
      <point x="-71.8" y="681.1" type="curve" smooth="yes"/>
      <point x="-71.8" y="752.1"/>
      <point x="-101.10000000000001" y="771.1"/>
      <point x="-147.4" y="771.1" type="curve" smooth="yes"/>
      <point x="-193.70000000000002" y="771.1"/>
      <point x="-223.9" y="752.1"/>
      <point x="-223.9" y="681.1" type="curve" smooth="yes"/>
      <point x="-223.9" y="611.1"/>
      <point x="-193.70000000000002" y="593.1"/>
    </contour>
    <contour>
      <point x="-327.0" y="593.1" type="curve" smooth="yes"/>
      <point x="-280.7" y="593.1"/>
      <point x="-250.49999999999997" y="611.1"/>
      <point x="-250.49999999999997" y="681.1" type="curve" smooth="yes"/>
      <point x="-250.49999999999997" y="752.1"/>
      <point x="-280.7" y="771.1"/>
      <point x="-327.0" y="771.1" type="curve" smooth="yes"/>
      <point x="-373.3" y="771.1"/>
      <point x="-402.6" y="752.1"/>
      <point x="-402.6" y="681.1" type="curve" smooth="yes"/>
      <point x="-402.6" y="611.1"/>
      <point x="-373.3" y="593.1"/>
    </contour>
  </outline>
</glyph>
<glyph name="hookabovecomb" format="2">
  <unicode hex="0309"/>
  <anchor x="-250.0" y="807.0" name="top"/>
  <anchor x="-237.25" y="550.0" name="_top"/>
  <outline>
    <contour>
      <point x="-279.0" y="587.0" type="line"/>
      <point x="-171.5" y="603.0"/>
      <point x="-134.75000000000003" y="652.0"/>
      <point x="-134.75000000000003" y="708.2499999999999" type="curve" smooth="yes"/>
      <point x="-134.75000000000003" y="782.0"/>
      <point x="-183.25" y="807.0"/>
      <point x="-250.25" y="807.0" type="curve" smooth="yes"/>
      <point x="-283.25" y="807.0"/>
      <point x="-318.5" y="800.2500000000001"/>
      <point x="-337.00000000000006" y="795.2499999999999" type="curve"/>
      <point x="-337.00000000000006" y="700.2500000000001" type="line"/>
      <point x="-321.49999999999994" y="703.25"/>
      <point x="-310.75" y="705.25"/>
      <point x="-294.5" y="705.25" type="curve" smooth="yes"/>
      <point x="-268.5" y="705.25"/>
      <point x="-255.5" y="696.0"/>
      <point x="-255.5" y="682.75" type="curve" smooth="yes"/>
      <point x="-255.5" y="670.75"/>
      <point x="-262.75" y="661.25"/>
      <point x="-290.75" y="655.5" type="curve"/>
    </contour>
  </outline>
</glyph>
